<svg width="430" height="932" viewBox="0 0 430 932" fill="none" xmlns="http://www.w3.org/2000/svg">
<g clip-path="url(#clip0_60_1227)">
<g filter="url(#filter0_d_60_1227)">
<rect x="-62" y="674" width="372" height="258" fill="#5E2898"/>
</g>
<g filter="url(#filter1_i_60_1227)">
<rect x="310" y="845" width="372" height="171" transform="rotate(180 310 845)" fill="#101010" fill-opacity="0.5"/>
</g>
<path d="M328.693 855.17L323 848.994L370.173 797.823H343.333V789H384V833.113H375.867V803.998L328.693 855.17Z" fill="url(#paint0_linear_60_1227)"/>
<rect x="258" y="43.0898" width="20.6815" height="21.8231" fill="#303030" fill-opacity="0.5"/>
<rect x="258" y="91.1016" width="20.6815" height="21.8231" fill="#303030" fill-opacity="0.5"/>
<rect x="258" y="139.109" width="20.6815" height="21.8231" fill="#303030" fill-opacity="0.5"/>
<rect x="258" y="187.121" width="20.6815" height="21.8231" fill="#303030" fill-opacity="0.5"/>
<rect x="258" y="235.133" width="20.6815" height="21.8231" fill="#303030" fill-opacity="0.5"/>
<rect x="258" y="283.145" width="20.6815" height="21.8231" fill="#303030" fill-opacity="0.5"/>
<rect x="258" y="331.152" width="20.6815" height="21.8231" fill="#303030" fill-opacity="0.5"/>
<rect x="258" y="379.164" width="20.6815" height="21.8231" fill="#303030" fill-opacity="0.5"/>
<rect x="258" y="427.176" width="20.6815" height="21.8231" fill="#303030" fill-opacity="0.5"/>
<rect x="294.192" y="42" width="20.6815" height="21.8231" fill="#303030" fill-opacity="0.5"/>
<rect x="294.192" y="90.0117" width="20.6815" height="21.8231" fill="#303030" fill-opacity="0.5"/>
<rect x="294.192" y="138.02" width="20.6815" height="21.8231" fill="#303030" fill-opacity="0.5"/>
<rect x="294.192" y="186.031" width="20.6815" height="21.8231" fill="#303030" fill-opacity="0.5"/>
<rect x="294.192" y="234.043" width="20.6815" height="21.8231" fill="#303030" fill-opacity="0.5"/>
<rect x="294.192" y="282.055" width="20.6815" height="21.8231" fill="#303030" fill-opacity="0.5"/>
<rect x="294.192" y="330.062" width="20.6815" height="21.8231" fill="#303030" fill-opacity="0.5"/>
<rect x="294.192" y="378.074" width="20.6815" height="21.8231" fill="#303030" fill-opacity="0.5"/>
<rect x="294.192" y="426.086" width="20.6815" height="21.8231" fill="#303030" fill-opacity="0.5"/>
<rect x="330.385" y="42" width="20.6815" height="21.8231" fill="#303030" fill-opacity="0.5"/>
<rect x="330.385" y="90.0117" width="20.6815" height="21.8231" fill="#303030" fill-opacity="0.5"/>
<rect x="330.385" y="138.02" width="20.6815" height="21.8231" fill="#303030" fill-opacity="0.5"/>
<rect x="330.385" y="186.031" width="20.6815" height="21.8231" fill="#303030" fill-opacity="0.5"/>
<rect x="330.385" y="234.043" width="20.6815" height="21.8231" fill="#303030" fill-opacity="0.5"/>
<rect x="330.385" y="282.055" width="20.6815" height="21.8231" fill="#303030" fill-opacity="0.5"/>
<rect x="330.385" y="330.062" width="20.6815" height="21.8231" fill="#303030" fill-opacity="0.5"/>
<rect x="330.385" y="378.074" width="20.6815" height="21.8231" fill="#303030" fill-opacity="0.5"/>
<rect x="330.385" y="426.086" width="20.6815" height="21.8231" fill="#303030" fill-opacity="0.5"/>
<rect x="366.578" y="42" width="20.6815" height="21.8231" fill="#303030" fill-opacity="0.5"/>
<rect x="366.578" y="90.0117" width="20.6815" height="21.8231" fill="#303030" fill-opacity="0.5"/>
<rect x="366.578" y="138.02" width="20.6815" height="21.8231" fill="#303030" fill-opacity="0.5"/>
<rect x="366.578" y="186.031" width="20.6815" height="21.8231" fill="#303030" fill-opacity="0.5"/>
<rect x="366.578" y="234.043" width="20.6815" height="21.8231" fill="#303030" fill-opacity="0.5"/>
<rect x="366.578" y="282.055" width="20.6815" height="21.8231" fill="#303030" fill-opacity="0.5"/>
<rect x="366.578" y="330.062" width="20.6815" height="21.8231" fill="#303030" fill-opacity="0.5"/>
<rect x="366.578" y="378.074" width="20.6815" height="21.8231" fill="#303030" fill-opacity="0.5"/>
<rect x="366.578" y="426.086" width="20.6815" height="21.8231" fill="#303030" fill-opacity="0.5"/>
<rect x="402.771" y="42" width="20.6815" height="21.8231" fill="#303030" fill-opacity="0.5"/>
<rect x="402.771" y="90.0117" width="20.6815" height="21.8231" fill="#303030" fill-opacity="0.5"/>
<rect x="402.771" y="138.02" width="20.6815" height="21.8231" fill="#303030" fill-opacity="0.5"/>
<rect x="402.771" y="186.031" width="20.6815" height="21.8231" fill="#303030" fill-opacity="0.5"/>
<rect x="402.771" y="234.043" width="20.6815" height="21.8231" fill="#303030" fill-opacity="0.5"/>
<rect x="402.771" y="282.055" width="20.6815" height="21.8231" fill="#303030" fill-opacity="0.5"/>
<rect x="402.771" y="330.062" width="20.6815" height="21.8231" fill="#303030" fill-opacity="0.5"/>
<rect x="402.771" y="378.074" width="20.6815" height="21.8231" fill="#303030" fill-opacity="0.5"/>
<rect x="402.771" y="426.086" width="20.6815" height="21.8231" fill="#303030" fill-opacity="0.5"/>
<path d="M4.5 120.5C-28.5 100 -343 -98 -343 -98H-268.5C-268.5 -98 4.5 70 30.5 85.5C56.5 101 37.5 141 4.5 120.5Z" fill="url(#paint1_linear_60_1227)" fill-opacity="0.3"/>
<path d="M92.5 97.5C59.5 77 -255 -121 -255 -121H-180.5C-180.5 -121 92.5 47 118.5 62.5C144.5 78 125.5 118 92.5 97.5Z" fill="url(#paint2_linear_60_1227)" fill-opacity="0.3"/>
<path d="M176.5 59.5C143.5 39 -171 -159 -171 -159H-96.5C-96.5 -159 176.5 9 202.5 24.5C228.5 40 209.5 80 176.5 59.5Z" fill="url(#paint3_linear_60_1227)" fill-opacity="0.3"/>
<g filter="url(#filter2_d_60_1227)">
<path d="M293 679H306V688L301 684.5L293 679Z" fill="#5E2898"/>
</g>
<rect x="29" y="691.988" width="89.2722" height="86.3291" fill="#D9D9D9" fill-opacity="0.3"/>
<rect x="139" y="763" width="89.2722" height="86.3291" fill="#D9D9D9" fill-opacity="0.3"/>
<rect x="254" y="692" width="89.2722" height="86.3291" fill="#D9D9D9" fill-opacity="0.3"/>
<path d="M45.028 757.203C44.5613 757.203 44.1413 757.123 43.768 756.963C43.3947 756.796 43.1013 756.563 42.888 756.263C42.6747 755.963 42.568 755.613 42.568 755.213H43.788C43.8147 755.513 43.9313 755.759 44.138 755.953C44.3513 756.146 44.648 756.243 45.028 756.243C45.4213 756.243 45.728 756.149 45.948 755.963C46.168 755.769 46.278 755.523 46.278 755.223C46.278 754.989 46.208 754.799 46.068 754.653C45.9347 754.506 45.7647 754.393 45.558 754.313C45.358 754.233 45.078 754.146 44.718 754.053C44.2647 753.933 43.8947 753.813 43.608 753.693C43.328 753.566 43.088 753.373 42.888 753.113C42.688 752.853 42.588 752.506 42.588 752.073C42.588 751.673 42.688 751.323 42.888 751.023C43.088 750.723 43.368 750.493 43.728 750.333C44.088 750.173 44.5047 750.093 44.978 750.093C45.6513 750.093 46.2013 750.263 46.628 750.603C47.0613 750.936 47.3013 751.396 47.348 751.983H46.088C46.068 751.729 45.948 751.513 45.728 751.333C45.508 751.153 45.218 751.063 44.858 751.063C44.5313 751.063 44.2647 751.146 44.058 751.313C43.8513 751.479 43.748 751.719 43.748 752.033C43.748 752.246 43.8113 752.423 43.938 752.563C44.0713 752.696 44.238 752.803 44.438 752.883C44.638 752.963 44.9113 753.049 45.258 753.143C45.718 753.269 46.0913 753.396 46.378 753.523C46.6713 753.649 46.918 753.846 47.118 754.113C47.3247 754.373 47.428 754.723 47.428 755.163C47.428 755.516 47.3313 755.849 47.138 756.163C46.9513 756.476 46.6747 756.729 46.308 756.923C45.948 757.109 45.5213 757.203 45.028 757.203ZM49.3532 750.893C49.1465 750.893 48.9732 750.823 48.8332 750.683C48.6932 750.543 48.6232 750.369 48.6232 750.163C48.6232 749.956 48.6932 749.783 48.8332 749.643C48.9732 749.503 49.1465 749.433 49.3532 749.433C49.5532 749.433 49.7232 749.503 49.8632 749.643C50.0032 749.783 50.0732 749.956 50.0732 750.163C50.0732 750.369 50.0032 750.543 49.8632 750.683C49.7232 750.823 49.5532 750.893 49.3532 750.893ZM49.9132 751.623V757.133H48.7732V751.623H49.9132ZM52.7399 752.553V755.603C52.7399 755.809 52.7865 755.959 52.8799 756.053C52.9799 756.139 53.1465 756.183 53.3799 756.183H54.0799V757.133H53.1799C52.6665 757.133 52.2732 757.013 51.9999 756.773C51.7265 756.533 51.5899 756.143 51.5899 755.603V752.553H50.9399V751.623H51.5899V750.253H52.7399V751.623H54.0799V752.553H52.7399ZM60.1806 754.243C60.1806 754.449 60.1673 754.636 60.1406 754.803H55.9306C55.9639 755.243 56.1273 755.596 56.4206 755.863C56.7139 756.129 57.0739 756.263 57.5006 756.263C58.1139 756.263 58.5473 756.006 58.8006 755.493H60.0306C59.8639 755.999 59.5606 756.416 59.1206 756.743C58.6873 757.063 58.1473 757.223 57.5006 757.223C56.9739 757.223 56.5006 757.106 56.0806 756.873C55.6673 756.633 55.3406 756.299 55.1006 755.873C54.8673 755.439 54.7506 754.939 54.7506 754.373C54.7506 753.806 54.8639 753.309 55.0906 752.883C55.3239 752.449 55.6473 752.116 56.0606 751.883C56.4806 751.649 56.9606 751.533 57.5006 751.533C58.0206 751.533 58.4839 751.646 58.8906 751.873C59.2973 752.099 59.6139 752.419 59.8406 752.833C60.0673 753.239 60.1806 753.709 60.1806 754.243ZM58.9906 753.883C58.9839 753.463 58.8339 753.126 58.5406 752.873C58.2473 752.619 57.8839 752.493 57.4506 752.493C57.0573 752.493 56.7206 752.619 56.4406 752.873C56.1606 753.119 55.9939 753.456 55.9406 753.883H58.9906ZM65.0401 752.443C65.2334 752.176 65.4968 751.959 65.8301 751.793C66.1701 751.619 66.5468 751.533 66.9601 751.533C67.4468 751.533 67.8868 751.649 68.2801 751.883C68.6734 752.116 68.9834 752.449 69.2101 752.883C69.4368 753.309 69.5501 753.799 69.5501 754.353C69.5501 754.906 69.4368 755.403 69.2101 755.843C68.9834 756.276 68.6701 756.616 68.2701 756.863C67.8768 757.103 67.4401 757.223 66.9601 757.223C66.5334 757.223 66.1534 757.139 65.8201 756.973C65.4934 756.806 65.2334 756.593 65.0401 756.333V757.133H63.9001V749.733H65.0401V752.443ZM68.3901 754.353C68.3901 753.973 68.3101 753.646 68.1501 753.373C67.9968 753.093 67.7901 752.883 67.5301 752.743C67.2768 752.596 67.0034 752.523 66.7101 752.523C66.4234 752.523 66.1501 752.596 65.8901 752.743C65.6368 752.889 65.4301 753.103 65.2701 753.383C65.1168 753.663 65.0401 753.993 65.0401 754.373C65.0401 754.753 65.1168 755.086 65.2701 755.373C65.4301 755.653 65.6368 755.866 65.8901 756.013C66.1501 756.159 66.4234 756.233 66.7101 756.233C67.0034 756.233 67.2768 756.159 67.5301 756.013C67.7901 755.859 67.9968 755.639 68.1501 755.353C68.3101 755.066 68.3901 754.733 68.3901 754.353ZM73.0675 757.223C72.5475 757.223 72.0775 757.106 71.6575 756.873C71.2375 756.633 70.9075 756.299 70.6675 755.873C70.4275 755.439 70.3075 754.939 70.3075 754.373C70.3075 753.813 70.4308 753.316 70.6775 752.883C70.9241 752.449 71.2608 752.116 71.6875 751.883C72.1141 751.649 72.5908 751.533 73.1175 751.533C73.6441 751.533 74.1208 751.649 74.5475 751.883C74.9741 752.116 75.3108 752.449 75.5575 752.883C75.8041 753.316 75.9275 753.813 75.9275 754.373C75.9275 754.933 75.8008 755.429 75.5475 755.863C75.2941 756.296 74.9475 756.633 74.5075 756.873C74.0741 757.106 73.5941 757.223 73.0675 757.223ZM73.0675 756.233C73.3608 756.233 73.6341 756.163 73.8875 756.023C74.1475 755.883 74.3575 755.673 74.5175 755.393C74.6775 755.113 74.7575 754.773 74.7575 754.373C74.7575 753.973 74.6808 753.636 74.5275 753.363C74.3741 753.083 74.1708 752.873 73.9175 752.733C73.6641 752.593 73.3908 752.523 73.0975 752.523C72.8041 752.523 72.5308 752.593 72.2775 752.733C72.0308 752.873 71.8341 753.083 71.6875 753.363C71.5408 753.636 71.4675 753.973 71.4675 754.373C71.4675 754.966 71.6175 755.426 71.9175 755.753C72.2241 756.073 72.6075 756.233 73.0675 756.233ZM79.8344 751.533C80.2677 751.533 80.6544 751.623 80.9944 751.803C81.3411 751.983 81.6111 752.249 81.8044 752.603C81.9977 752.956 82.0944 753.383 82.0944 753.883V757.133H80.9644V754.053C80.9644 753.559 80.8411 753.183 80.5944 752.923C80.3477 752.656 80.0111 752.523 79.5844 752.523C79.1577 752.523 78.8177 752.656 78.5644 752.923C78.3177 753.183 78.1944 753.559 78.1944 754.053V757.133H77.0544V751.623H78.1944V752.253C78.3811 752.026 78.6177 751.849 78.9044 751.723C79.1977 751.596 79.5077 751.533 79.8344 751.533ZM84.1286 750.893C83.9219 750.893 83.7486 750.823 83.6086 750.683C83.4686 750.543 83.3986 750.369 83.3986 750.163C83.3986 749.956 83.4686 749.783 83.6086 749.643C83.7486 749.503 83.9219 749.433 84.1286 749.433C84.3286 749.433 84.4986 749.503 84.6386 749.643C84.7786 749.783 84.8486 749.956 84.8486 750.163C84.8486 750.369 84.7786 750.543 84.6386 750.683C84.4986 750.823 84.3286 750.893 84.1286 750.893ZM84.6886 751.623V757.133H83.5486V751.623H84.6886ZM87.5153 752.553V755.603C87.5153 755.809 87.5619 755.959 87.6553 756.053C87.7553 756.139 87.9219 756.183 88.1553 756.183H88.8553V757.133H87.9553C87.4419 757.133 87.0486 757.013 86.7753 756.773C86.5019 756.533 86.3653 756.143 86.3653 755.603V752.553H85.7153V751.623H86.3653V750.253H87.5153V751.623H88.8553V752.553H87.5153ZM92.296 757.223C91.776 757.223 91.306 757.106 90.886 756.873C90.466 756.633 90.136 756.299 89.896 755.873C89.656 755.439 89.536 754.939 89.536 754.373C89.536 753.813 89.6593 753.316 89.906 752.883C90.1526 752.449 90.4893 752.116 90.916 751.883C91.3426 751.649 91.8193 751.533 92.346 751.533C92.8726 751.533 93.3493 751.649 93.776 751.883C94.2026 752.116 94.5393 752.449 94.786 752.883C95.0326 753.316 95.156 753.813 95.156 754.373C95.156 754.933 95.0293 755.429 94.776 755.863C94.5226 756.296 94.176 756.633 93.736 756.873C93.3026 757.106 92.8226 757.223 92.296 757.223ZM92.296 756.233C92.5893 756.233 92.8626 756.163 93.116 756.023C93.376 755.883 93.586 755.673 93.746 755.393C93.906 755.113 93.986 754.773 93.986 754.373C93.986 753.973 93.9093 753.636 93.756 753.363C93.6026 753.083 93.3993 752.873 93.146 752.733C92.8926 752.593 92.6193 752.523 92.326 752.523C92.0326 752.523 91.7593 752.593 91.506 752.733C91.2593 752.873 91.0626 753.083 90.916 753.363C90.7693 753.636 90.696 753.973 90.696 754.373C90.696 754.966 90.846 755.426 91.146 755.753C91.4526 756.073 91.836 756.233 92.296 756.233ZM103.931 754.243C103.931 754.449 103.917 754.636 103.891 754.803H99.6806C99.7139 755.243 99.8773 755.596 100.171 755.863C100.464 756.129 100.824 756.263 101.251 756.263C101.864 756.263 102.297 756.006 102.551 755.493H103.781C103.614 755.999 103.311 756.416 102.871 756.743C102.437 757.063 101.897 757.223 101.251 757.223C100.724 757.223 100.251 757.106 99.8306 756.873C99.4173 756.633 99.0906 756.299 98.8506 755.873C98.6173 755.439 98.5006 754.939 98.5006 754.373C98.5006 753.806 98.6139 753.309 98.8406 752.883C99.0739 752.449 99.3973 752.116 99.8106 751.883C100.231 751.649 100.711 751.533 101.251 751.533C101.771 751.533 102.234 751.646 102.641 751.873C103.047 752.099 103.364 752.419 103.591 752.833C103.817 753.239 103.931 753.709 103.931 754.243ZM102.741 753.883C102.734 753.463 102.584 753.126 102.291 752.873C101.997 752.619 101.634 752.493 101.201 752.493C100.807 752.493 100.471 752.619 100.191 752.873C99.9106 753.119 99.7439 753.456 99.6906 753.883H102.741ZM57.3523 763.533C57.7857 763.533 58.1723 763.623 58.5123 763.803C58.859 763.983 59.129 764.249 59.3223 764.603C59.5223 764.956 59.6223 765.383 59.6223 765.883V769.133H58.4923V766.053C58.4923 765.559 58.369 765.183 58.1223 764.923C57.8757 764.656 57.539 764.523 57.1123 764.523C56.6857 764.523 56.3457 764.656 56.0923 764.923C55.8457 765.183 55.7223 765.559 55.7223 766.053V769.133H54.5923V766.053C54.5923 765.559 54.469 765.183 54.2223 764.923C53.9757 764.656 53.639 764.523 53.2123 764.523C52.7857 764.523 52.4457 764.656 52.1923 764.923C51.9457 765.183 51.8223 765.559 51.8223 766.053V769.133H50.6823V763.623H51.8223V764.253C52.009 764.026 52.2457 763.849 52.5323 763.723C52.819 763.596 53.1257 763.533 53.4523 763.533C53.8923 763.533 54.2857 763.626 54.6323 763.813C54.979 763.999 55.2457 764.269 55.4323 764.623C55.599 764.289 55.859 764.026 56.2123 763.833C56.5657 763.633 56.9457 763.533 57.3523 763.533ZM63.463 769.223C62.943 769.223 62.473 769.106 62.053 768.873C61.633 768.633 61.303 768.299 61.063 767.873C60.823 767.439 60.703 766.939 60.703 766.373C60.703 765.813 60.8263 765.316 61.073 764.883C61.3196 764.449 61.6563 764.116 62.083 763.883C62.5096 763.649 62.9863 763.533 63.513 763.533C64.0396 763.533 64.5163 763.649 64.943 763.883C65.3696 764.116 65.7063 764.449 65.953 764.883C66.1996 765.316 66.323 765.813 66.323 766.373C66.323 766.933 66.1963 767.429 65.943 767.863C65.6896 768.296 65.343 768.633 64.903 768.873C64.4696 769.106 63.9896 769.223 63.463 769.223ZM63.463 768.233C63.7563 768.233 64.0296 768.163 64.283 768.023C64.543 767.883 64.753 767.673 64.913 767.393C65.073 767.113 65.153 766.773 65.153 766.373C65.153 765.973 65.0763 765.636 64.923 765.363C64.7696 765.083 64.5663 764.873 64.313 764.733C64.0596 764.593 63.7863 764.523 63.493 764.523C63.1996 764.523 62.9263 764.593 62.673 764.733C62.4263 764.873 62.2296 765.083 62.083 765.363C61.9363 765.636 61.863 765.973 61.863 766.373C61.863 766.966 62.013 767.426 62.313 767.753C62.6196 768.073 63.003 768.233 63.463 768.233ZM67.0699 766.353C67.0699 765.799 67.1833 765.309 67.4099 764.883C67.6433 764.456 67.9566 764.126 68.3499 763.893C68.7499 763.653 69.1933 763.533 69.6799 763.533C70.0399 763.533 70.3933 763.613 70.7399 763.773C71.0933 763.926 71.3733 764.133 71.5799 764.393V761.733H72.7299V769.133H71.5799V768.303C71.3933 768.569 71.1333 768.789 70.7999 768.963C70.4733 769.136 70.0966 769.223 69.6699 769.223C69.1899 769.223 68.7499 769.103 68.3499 768.863C67.9566 768.616 67.6433 768.276 67.4099 767.843C67.1833 767.403 67.0699 766.906 67.0699 766.353ZM71.5799 766.373C71.5799 765.993 71.4999 765.663 71.3399 765.383C71.1866 765.103 70.9833 764.889 70.7299 764.743C70.4766 764.596 70.2033 764.523 69.9099 764.523C69.6166 764.523 69.3433 764.596 69.0899 764.743C68.8366 764.883 68.6299 765.093 68.4699 765.373C68.3166 765.646 68.2399 765.973 68.2399 766.353C68.2399 766.733 68.3166 767.066 68.4699 767.353C68.6299 767.639 68.8366 767.859 69.0899 768.013C69.3499 768.159 69.6233 768.233 69.9099 768.233C70.2033 768.233 70.4766 768.159 70.7299 768.013C70.9833 767.866 71.1866 767.653 71.3399 767.373C71.4999 767.086 71.5799 766.753 71.5799 766.373ZM79.2773 766.243C79.2773 766.449 79.2639 766.636 79.2373 766.803H75.0273C75.0606 767.243 75.2239 767.596 75.5173 767.863C75.8106 768.129 76.1706 768.263 76.5973 768.263C77.2106 768.263 77.6439 768.006 77.8973 767.493H79.1273C78.9606 767.999 78.6573 768.416 78.2173 768.743C77.7839 769.063 77.2439 769.223 76.5973 769.223C76.0706 769.223 75.5973 769.106 75.1773 768.873C74.7639 768.633 74.4373 768.299 74.1973 767.873C73.9639 767.439 73.8473 766.939 73.8473 766.373C73.8473 765.806 73.9606 765.309 74.1873 764.883C74.4206 764.449 74.7439 764.116 75.1573 763.883C75.5773 763.649 76.0573 763.533 76.5973 763.533C77.1173 763.533 77.5806 763.646 77.9873 763.873C78.3939 764.099 78.7106 764.419 78.9373 764.833C79.1639 765.239 79.2773 765.709 79.2773 766.243ZM78.0873 765.883C78.0806 765.463 77.9306 765.126 77.6373 764.873C77.3439 764.619 76.9806 764.493 76.5473 764.493C76.1539 764.493 75.8173 764.619 75.5373 764.873C75.2573 765.119 75.0906 765.456 75.0373 765.883H78.0873ZM81.5391 764.423C81.7058 764.143 81.9258 763.926 82.1991 763.773C82.4791 763.613 82.8091 763.533 83.1891 763.533V764.713H82.8991C82.4525 764.713 82.1125 764.826 81.8791 765.053C81.6525 765.279 81.5391 765.673 81.5391 766.233V769.133H80.3991V763.623H81.5391V764.423ZM87.017 763.533C87.4504 763.533 87.837 763.623 88.177 763.803C88.5237 763.983 88.7937 764.249 88.987 764.603C89.1804 764.956 89.277 765.383 89.277 765.883V769.133H88.147V766.053C88.147 765.559 88.0237 765.183 87.777 764.923C87.5304 764.656 87.1937 764.523 86.767 764.523C86.3404 764.523 86.0004 764.656 85.747 764.923C85.5004 765.183 85.377 765.559 85.377 766.053V769.133H84.237V763.623H85.377V764.253C85.5637 764.026 85.8004 763.849 86.087 763.723C86.3804 763.596 86.6904 763.533 87.017 763.533ZM93.1212 769.223C92.6012 769.223 92.1312 769.106 91.7112 768.873C91.2912 768.633 90.9612 768.299 90.7212 767.873C90.4812 767.439 90.3612 766.939 90.3612 766.373C90.3612 765.813 90.4845 765.316 90.7312 764.883C90.9778 764.449 91.3145 764.116 91.7412 763.883C92.1678 763.649 92.6445 763.533 93.1712 763.533C93.6978 763.533 94.1745 763.649 94.6012 763.883C95.0278 764.116 95.3645 764.449 95.6112 764.883C95.8578 765.316 95.9812 765.813 95.9812 766.373C95.9812 766.933 95.8545 767.429 95.6012 767.863C95.3478 768.296 95.0012 768.633 94.5612 768.873C94.1278 769.106 93.6478 769.223 93.1212 769.223ZM93.1212 768.233C93.4145 768.233 93.6878 768.163 93.9412 768.023C94.2012 767.883 94.4112 767.673 94.5712 767.393C94.7312 767.113 94.8112 766.773 94.8112 766.373C94.8112 765.973 94.7345 765.636 94.5812 765.363C94.4278 765.083 94.2245 764.873 93.9712 764.733C93.7178 764.593 93.4445 764.523 93.1512 764.523C92.8578 764.523 92.5845 764.593 92.3312 764.733C92.0845 764.873 91.8878 765.083 91.7412 765.363C91.5945 765.636 91.5212 765.973 91.5212 766.373C91.5212 766.966 91.6712 767.426 91.9712 767.753C92.2778 768.073 92.6612 768.233 93.1212 768.233Z" fill="white"/>
<path d="M156.404 815.815C156.404 815.135 156.561 814.525 156.874 813.985C157.194 813.445 157.624 813.025 158.164 812.725C158.711 812.418 159.308 812.265 159.954 812.265C160.694 812.265 161.351 812.448 161.924 812.815C162.504 813.175 162.924 813.688 163.184 814.355H161.814C161.634 813.988 161.384 813.715 161.064 813.535C160.744 813.355 160.374 813.265 159.954 813.265C159.494 813.265 159.084 813.368 158.724 813.575C158.364 813.781 158.081 814.078 157.874 814.465C157.674 814.851 157.574 815.301 157.574 815.815C157.574 816.328 157.674 816.778 157.874 817.165C158.081 817.551 158.364 817.851 158.724 818.065C159.084 818.271 159.494 818.375 159.954 818.375C160.374 818.375 160.744 818.285 161.064 818.105C161.384 817.925 161.634 817.651 161.814 817.285H163.184C162.924 817.951 162.504 818.465 161.924 818.825C161.351 819.185 160.694 819.365 159.954 819.365C159.301 819.365 158.704 819.215 158.164 818.915C157.624 818.608 157.194 818.185 156.874 817.645C156.561 817.105 156.404 816.495 156.404 815.815ZM166.909 819.395C166.389 819.395 165.919 819.278 165.499 819.045C165.079 818.805 164.749 818.471 164.509 818.045C164.269 817.611 164.149 817.111 164.149 816.545C164.149 815.985 164.272 815.488 164.519 815.055C164.765 814.621 165.102 814.288 165.529 814.055C165.955 813.821 166.432 813.705 166.959 813.705C167.485 813.705 167.962 813.821 168.389 814.055C168.815 814.288 169.152 814.621 169.399 815.055C169.645 815.488 169.769 815.985 169.769 816.545C169.769 817.105 169.642 817.601 169.389 818.035C169.135 818.468 168.789 818.805 168.349 819.045C167.915 819.278 167.435 819.395 166.909 819.395ZM166.909 818.405C167.202 818.405 167.475 818.335 167.729 818.195C167.989 818.055 168.199 817.845 168.359 817.565C168.519 817.285 168.599 816.945 168.599 816.545C168.599 816.145 168.522 815.808 168.369 815.535C168.215 815.255 168.012 815.045 167.759 814.905C167.505 814.765 167.232 814.695 166.939 814.695C166.645 814.695 166.372 814.765 166.119 814.905C165.872 815.045 165.675 815.255 165.529 815.535C165.382 815.808 165.309 816.145 165.309 816.545C165.309 817.138 165.459 817.598 165.759 817.925C166.065 818.245 166.449 818.405 166.909 818.405ZM177.566 813.705C177.999 813.705 178.386 813.795 178.726 813.975C179.072 814.155 179.342 814.421 179.536 814.775C179.736 815.128 179.836 815.555 179.836 816.055V819.305H178.706V816.225C178.706 815.731 178.582 815.355 178.336 815.095C178.089 814.828 177.752 814.695 177.326 814.695C176.899 814.695 176.559 814.828 176.306 815.095C176.059 815.355 175.936 815.731 175.936 816.225V819.305H174.806V816.225C174.806 815.731 174.682 815.355 174.436 815.095C174.189 814.828 173.852 814.695 173.426 814.695C172.999 814.695 172.659 814.828 172.406 815.095C172.159 815.355 172.036 815.731 172.036 816.225V819.305H170.896V813.795H172.036V814.425C172.222 814.198 172.459 814.021 172.746 813.895C173.032 813.768 173.339 813.705 173.666 813.705C174.106 813.705 174.499 813.798 174.846 813.985C175.192 814.171 175.459 814.441 175.646 814.795C175.812 814.461 176.072 814.198 176.426 814.005C176.779 813.805 177.159 813.705 177.566 813.705ZM182.426 814.605C182.62 814.351 182.883 814.138 183.216 813.965C183.55 813.791 183.926 813.705 184.346 813.705C184.826 813.705 185.263 813.825 185.656 814.065C186.056 814.298 186.37 814.628 186.596 815.055C186.823 815.481 186.936 815.971 186.936 816.525C186.936 817.078 186.823 817.575 186.596 818.015C186.37 818.448 186.056 818.788 185.656 819.035C185.263 819.275 184.826 819.395 184.346 819.395C183.926 819.395 183.553 819.311 183.226 819.145C182.9 818.971 182.633 818.758 182.426 818.505V821.925H181.286V813.795H182.426V814.605ZM185.776 816.525C185.776 816.145 185.696 815.818 185.536 815.545C185.383 815.265 185.176 815.055 184.916 814.915C184.663 814.768 184.39 814.695 184.096 814.695C183.81 814.695 183.536 814.768 183.276 814.915C183.023 815.061 182.816 815.275 182.656 815.555C182.503 815.835 182.426 816.165 182.426 816.545C182.426 816.925 182.503 817.258 182.656 817.545C182.816 817.825 183.023 818.038 183.276 818.185C183.536 818.331 183.81 818.405 184.096 818.405C184.39 818.405 184.663 818.331 184.916 818.185C185.176 818.031 185.383 817.811 185.536 817.525C185.696 817.238 185.776 816.905 185.776 816.525ZM187.684 816.525C187.684 815.971 187.797 815.481 188.024 815.055C188.257 814.628 188.57 814.298 188.964 814.065C189.364 813.825 189.804 813.705 190.284 813.705C190.717 813.705 191.094 813.791 191.414 813.965C191.74 814.131 192 814.341 192.194 814.595V813.795H193.344V819.305H192.194V818.485C192 818.745 191.737 818.961 191.404 819.135C191.07 819.308 190.69 819.395 190.264 819.395C189.79 819.395 189.357 819.275 188.964 819.035C188.57 818.788 188.257 818.448 188.024 818.015C187.797 817.575 187.684 817.078 187.684 816.525ZM192.194 816.545C192.194 816.165 192.114 815.835 191.954 815.555C191.8 815.275 191.597 815.061 191.344 814.915C191.09 814.768 190.817 814.695 190.524 814.695C190.23 814.695 189.957 814.768 189.704 814.915C189.45 815.055 189.244 815.265 189.084 815.545C188.93 815.818 188.854 816.145 188.854 816.525C188.854 816.905 188.93 817.238 189.084 817.525C189.244 817.811 189.45 818.031 189.704 818.185C189.964 818.331 190.237 818.405 190.524 818.405C190.817 818.405 191.09 818.331 191.344 818.185C191.597 818.038 191.8 817.825 191.954 817.545C192.114 817.258 192.194 816.925 192.194 816.545ZM196.171 814.725V817.775C196.171 817.981 196.218 818.131 196.311 818.225C196.411 818.311 196.578 818.355 196.811 818.355H197.511V819.305H196.611C196.098 819.305 195.704 819.185 195.431 818.945C195.158 818.705 195.021 818.315 195.021 817.775V814.725H194.371V813.795H195.021V812.425H196.171V813.795H197.511V814.725H196.171ZM199.702 813.795V819.305H198.562V813.795H199.702ZM200.162 812.315L197.952 813.405V812.565L200.162 811.345V812.315ZM203.328 818.285L204.888 813.795H206.098L203.998 819.305H202.638L200.548 813.795H201.768L203.328 818.285ZM212.01 816.415C212.01 816.621 211.997 816.808 211.97 816.975H207.76C207.793 817.415 207.957 817.768 208.25 818.035C208.543 818.301 208.903 818.435 209.33 818.435C209.943 818.435 210.377 818.178 210.63 817.665H211.86C211.693 818.171 211.39 818.588 210.95 818.915C210.517 819.235 209.977 819.395 209.33 819.395C208.803 819.395 208.33 819.278 207.91 819.045C207.497 818.805 207.17 818.471 206.93 818.045C206.697 817.611 206.58 817.111 206.58 816.545C206.58 815.978 206.693 815.481 206.92 815.055C207.153 814.621 207.477 814.288 207.89 814.055C208.31 813.821 208.79 813.705 209.33 813.705C209.85 813.705 210.313 813.818 210.72 814.045C211.127 814.271 211.443 814.591 211.67 815.005C211.897 815.411 212.01 815.881 212.01 816.415ZM210.82 816.055C210.813 815.635 210.663 815.298 210.37 815.045C210.077 814.791 209.713 814.665 209.28 814.665C208.887 814.665 208.55 814.791 208.27 815.045C207.99 815.291 207.823 815.628 207.77 816.055H210.82ZM214.272 811.905V819.305H213.132V811.905H214.272ZM150.233 828.545C150.233 827.978 150.346 827.481 150.573 827.055C150.806 826.621 151.126 826.288 151.533 826.055C151.939 825.821 152.406 825.705 152.933 825.705C153.599 825.705 154.149 825.865 154.583 826.185C155.023 826.498 155.319 826.948 155.473 827.535H154.243C154.143 827.261 153.983 827.048 153.763 826.895C153.543 826.741 153.266 826.665 152.933 826.665C152.466 826.665 152.093 826.831 151.813 827.165C151.539 827.491 151.403 827.951 151.403 828.545C151.403 829.138 151.539 829.601 151.813 829.935C152.093 830.268 152.466 830.435 152.933 830.435C153.593 830.435 154.029 830.145 154.243 829.565H155.473C155.313 830.125 155.013 830.571 154.573 830.905C154.133 831.231 153.586 831.395 152.933 831.395C152.406 831.395 151.939 831.278 151.533 831.045C151.126 830.805 150.806 830.471 150.573 830.045C150.346 829.611 150.233 829.111 150.233 828.545ZM158.999 831.395C158.479 831.395 158.009 831.278 157.589 831.045C157.169 830.805 156.839 830.471 156.599 830.045C156.359 829.611 156.239 829.111 156.239 828.545C156.239 827.985 156.362 827.488 156.609 827.055C156.855 826.621 157.192 826.288 157.619 826.055C158.045 825.821 158.522 825.705 159.049 825.705C159.575 825.705 160.052 825.821 160.479 826.055C160.905 826.288 161.242 826.621 161.489 827.055C161.735 827.488 161.859 827.985 161.859 828.545C161.859 829.105 161.732 829.601 161.479 830.035C161.225 830.468 160.879 830.805 160.439 831.045C160.005 831.278 159.525 831.395 158.999 831.395ZM158.999 830.405C159.292 830.405 159.565 830.335 159.819 830.195C160.079 830.055 160.289 829.845 160.449 829.565C160.609 829.285 160.689 828.945 160.689 828.545C160.689 828.145 160.612 827.808 160.459 827.535C160.305 827.255 160.102 827.045 159.849 826.905C159.595 826.765 159.322 826.695 159.029 826.695C158.735 826.695 158.462 826.765 158.209 826.905C157.962 827.045 157.765 827.255 157.619 827.535C157.472 827.808 157.399 828.145 157.399 828.545C157.399 829.138 157.549 829.598 157.849 829.925C158.155 830.245 158.539 830.405 158.999 830.405ZM169.656 825.705C170.089 825.705 170.476 825.795 170.816 825.975C171.162 826.155 171.432 826.421 171.626 826.775C171.826 827.128 171.926 827.555 171.926 828.055V831.305H170.796V828.225C170.796 827.731 170.672 827.355 170.426 827.095C170.179 826.828 169.842 826.695 169.416 826.695C168.989 826.695 168.649 826.828 168.396 827.095C168.149 827.355 168.026 827.731 168.026 828.225V831.305H166.896V828.225C166.896 827.731 166.772 827.355 166.526 827.095C166.279 826.828 165.942 826.695 165.516 826.695C165.089 826.695 164.749 826.828 164.496 827.095C164.249 827.355 164.126 827.731 164.126 828.225V831.305H162.986V825.795H164.126V826.425C164.312 826.198 164.549 826.021 164.836 825.895C165.122 825.768 165.429 825.705 165.756 825.705C166.196 825.705 166.589 825.798 166.936 825.985C167.282 826.171 167.549 826.441 167.736 826.795C167.902 826.461 168.162 826.198 168.516 826.005C168.869 825.805 169.249 825.705 169.656 825.705ZM175.594 828.525C175.594 827.971 175.707 827.481 175.934 827.055C176.167 826.628 176.481 826.298 176.874 826.065C177.274 825.825 177.717 825.705 178.204 825.705C178.631 825.705 179.007 825.791 179.334 825.965C179.667 826.138 179.924 826.348 180.104 826.595V825.795H181.254V833.925H180.104V830.505C179.924 830.751 179.664 830.961 179.324 831.135C178.984 831.308 178.597 831.395 178.164 831.395C177.691 831.395 177.257 831.275 176.864 831.035C176.477 830.788 176.167 830.448 175.934 830.015C175.707 829.575 175.594 829.078 175.594 828.525ZM180.104 828.545C180.104 828.165 180.024 827.835 179.864 827.555C179.711 827.275 179.507 827.061 179.254 826.915C179.001 826.768 178.727 826.695 178.434 826.695C178.141 826.695 177.867 826.768 177.614 826.915C177.361 827.055 177.154 827.265 176.994 827.545C176.841 827.818 176.764 828.145 176.764 828.525C176.764 828.905 176.841 829.238 176.994 829.525C177.154 829.811 177.361 830.031 177.614 830.185C177.874 830.331 178.147 830.405 178.434 830.405C178.727 830.405 179.001 830.331 179.254 830.185C179.507 830.038 179.711 829.825 179.864 829.545C180.024 829.258 180.104 828.925 180.104 828.545ZM187.741 825.795V831.305H186.601V830.655C186.421 830.881 186.185 831.061 185.891 831.195C185.605 831.321 185.298 831.385 184.971 831.385C184.538 831.385 184.148 831.295 183.801 831.115C183.461 830.935 183.191 830.668 182.991 830.315C182.798 829.961 182.701 829.535 182.701 829.035V825.795H183.831V828.865C183.831 829.358 183.955 829.738 184.201 830.005C184.448 830.265 184.785 830.395 185.211 830.395C185.638 830.395 185.975 830.265 186.221 830.005C186.475 829.738 186.601 829.358 186.601 828.865V825.795H187.741ZM188.865 828.525C188.865 827.971 188.979 827.481 189.205 827.055C189.439 826.628 189.752 826.298 190.145 826.065C190.545 825.825 190.985 825.705 191.465 825.705C191.899 825.705 192.275 825.791 192.595 825.965C192.922 826.131 193.182 826.341 193.375 826.595V825.795H194.525V831.305H193.375V830.485C193.182 830.745 192.919 830.961 192.585 831.135C192.252 831.308 191.872 831.395 191.445 831.395C190.972 831.395 190.539 831.275 190.145 831.035C189.752 830.788 189.439 830.448 189.205 830.015C188.979 829.575 188.865 829.078 188.865 828.525ZM193.375 828.545C193.375 828.165 193.295 827.835 193.135 827.555C192.982 827.275 192.779 827.061 192.525 826.915C192.272 826.768 191.999 826.695 191.705 826.695C191.412 826.695 191.139 826.768 190.885 826.915C190.632 827.055 190.425 827.265 190.265 827.545C190.112 827.818 190.035 828.145 190.035 828.525C190.035 828.905 190.112 829.238 190.265 829.525C190.425 829.811 190.632 830.031 190.885 830.185C191.145 830.331 191.419 830.405 191.705 830.405C191.999 830.405 192.272 830.331 192.525 830.185C192.779 830.038 192.982 829.825 193.135 829.545C193.295 829.258 193.375 828.925 193.375 828.545ZM197.163 823.905V831.305H196.023V823.905H197.163ZM198.279 828.525C198.279 827.971 198.393 827.481 198.619 827.055C198.853 826.628 199.166 826.298 199.559 826.065C199.959 825.825 200.403 825.705 200.889 825.705C201.316 825.705 201.693 825.791 202.019 825.965C202.353 826.138 202.609 826.348 202.789 826.595V825.795H203.939V833.925H202.789V830.505C202.609 830.751 202.349 830.961 202.009 831.135C201.669 831.308 201.283 831.395 200.849 831.395C200.376 831.395 199.943 831.275 199.549 831.035C199.163 830.788 198.853 830.448 198.619 830.015C198.393 829.575 198.279 829.078 198.279 828.525ZM202.789 828.545C202.789 828.165 202.709 827.835 202.549 827.555C202.396 827.275 202.193 827.061 201.939 826.915C201.686 826.768 201.413 826.695 201.119 826.695C200.826 826.695 200.553 826.768 200.299 826.915C200.046 827.055 199.839 827.265 199.679 827.545C199.526 827.818 199.449 828.145 199.449 828.525C199.449 828.905 199.526 829.238 199.679 829.525C199.839 829.811 200.046 830.031 200.299 830.185C200.559 830.331 200.833 830.405 201.119 830.405C201.413 830.405 201.686 830.331 201.939 830.185C202.193 830.038 202.396 829.825 202.549 829.545C202.709 829.258 202.789 828.925 202.789 828.545ZM210.427 825.795V831.305H209.287V830.655C209.107 830.881 208.87 831.061 208.577 831.195C208.29 831.321 207.983 831.385 207.657 831.385C207.223 831.385 206.833 831.295 206.487 831.115C206.147 830.935 205.877 830.668 205.677 830.315C205.483 829.961 205.387 829.535 205.387 829.035V825.795H206.517V828.865C206.517 829.358 206.64 829.738 206.887 830.005C207.133 830.265 207.47 830.395 207.897 830.395C208.323 830.395 208.66 830.265 208.907 830.005C209.16 829.738 209.287 829.358 209.287 828.865V825.795H210.427ZM216.981 828.415C216.981 828.621 216.968 828.808 216.941 828.975H212.731C212.764 829.415 212.928 829.768 213.221 830.035C213.514 830.301 213.874 830.435 214.301 830.435C214.914 830.435 215.348 830.178 215.601 829.665H216.831C216.664 830.171 216.361 830.588 215.921 830.915C215.488 831.235 214.948 831.395 214.301 831.395C213.774 831.395 213.301 831.278 212.881 831.045C212.468 830.805 212.141 830.471 211.901 830.045C211.668 829.611 211.551 829.111 211.551 828.545C211.551 827.978 211.664 827.481 211.891 827.055C212.124 826.621 212.448 826.288 212.861 826.055C213.281 825.821 213.761 825.705 214.301 825.705C214.821 825.705 215.284 825.818 215.691 826.045C216.098 826.271 216.414 826.591 216.641 827.005C216.868 827.411 216.981 827.881 216.981 828.415ZM215.791 828.055C215.784 827.635 215.634 827.298 215.341 827.045C215.048 826.791 214.684 826.665 214.251 826.665C213.858 826.665 213.521 826.791 213.241 827.045C212.961 827.291 212.794 827.628 212.741 828.055H215.791ZM219.243 826.595C219.409 826.315 219.629 826.098 219.903 825.945C220.183 825.785 220.513 825.705 220.893 825.705V826.885H220.603C220.156 826.885 219.816 826.998 219.583 827.225C219.356 827.451 219.243 827.845 219.243 828.405V831.305H218.103V825.795H219.243V826.595ZM160.003 840.525C160.003 839.971 160.116 839.481 160.343 839.055C160.576 838.628 160.89 838.298 161.283 838.065C161.683 837.825 162.126 837.705 162.613 837.705C162.973 837.705 163.326 837.785 163.673 837.945C164.026 838.098 164.306 838.305 164.513 838.565V835.905H165.663V843.305H164.513V842.475C164.326 842.741 164.066 842.961 163.733 843.135C163.406 843.308 163.03 843.395 162.603 843.395C162.123 843.395 161.683 843.275 161.283 843.035C160.89 842.788 160.576 842.448 160.343 842.015C160.116 841.575 160.003 841.078 160.003 840.525ZM164.513 840.545C164.513 840.165 164.433 839.835 164.273 839.555C164.12 839.275 163.916 839.061 163.663 838.915C163.41 838.768 163.136 838.695 162.843 838.695C162.55 838.695 162.276 838.768 162.023 838.915C161.77 839.055 161.563 839.265 161.403 839.545C161.25 839.818 161.173 840.145 161.173 840.525C161.173 840.905 161.25 841.238 161.403 841.525C161.563 841.811 161.77 842.031 162.023 842.185C162.283 842.331 162.556 842.405 162.843 842.405C163.136 842.405 163.41 842.331 163.663 842.185C163.916 842.038 164.12 841.825 164.273 841.545C164.433 841.258 164.513 840.925 164.513 840.545ZM167.74 837.065C167.534 837.065 167.36 836.995 167.22 836.855C167.08 836.715 167.01 836.541 167.01 836.335C167.01 836.128 167.08 835.955 167.22 835.815C167.36 835.675 167.534 835.605 167.74 835.605C167.94 835.605 168.11 835.675 168.25 835.815C168.39 835.955 168.46 836.128 168.46 836.335C168.46 836.541 168.39 836.715 168.25 836.855C168.11 836.995 167.94 837.065 167.74 837.065ZM168.3 837.795V843.305H167.16V837.795H168.3ZM171.797 843.395C171.364 843.395 170.974 843.318 170.627 843.165C170.287 843.005 170.017 842.791 169.817 842.525C169.617 842.251 169.51 841.948 169.497 841.615H170.677C170.697 841.848 170.807 842.045 171.007 842.205C171.214 842.358 171.47 842.435 171.777 842.435C172.097 842.435 172.344 842.375 172.517 842.255C172.697 842.128 172.787 841.968 172.787 841.775C172.787 841.568 172.687 841.415 172.487 841.315C172.294 841.215 171.984 841.105 171.557 840.985C171.144 840.871 170.807 840.761 170.547 840.655C170.287 840.548 170.06 840.385 169.867 840.165C169.68 839.945 169.587 839.655 169.587 839.295C169.587 839.001 169.674 838.735 169.847 838.495C170.02 838.248 170.267 838.055 170.587 837.915C170.914 837.775 171.287 837.705 171.707 837.705C172.334 837.705 172.837 837.865 173.217 838.185C173.604 838.498 173.81 838.928 173.837 839.475H172.697C172.677 839.228 172.577 839.031 172.397 838.885C172.217 838.738 171.974 838.665 171.667 838.665C171.367 838.665 171.137 838.721 170.977 838.835C170.817 838.948 170.737 839.098 170.737 839.285C170.737 839.431 170.79 839.555 170.897 839.655C171.004 839.755 171.134 839.835 171.287 839.895C171.44 839.948 171.667 840.018 171.967 840.105C172.367 840.211 172.694 840.321 172.947 840.435C173.207 840.541 173.43 840.701 173.617 840.915C173.804 841.128 173.9 841.411 173.907 841.765C173.907 842.078 173.82 842.358 173.647 842.605C173.474 842.851 173.227 843.045 172.907 843.185C172.594 843.325 172.224 843.395 171.797 843.395ZM176.279 838.605C176.472 838.351 176.736 838.138 177.069 837.965C177.402 837.791 177.779 837.705 178.199 837.705C178.679 837.705 179.116 837.825 179.509 838.065C179.909 838.298 180.222 838.628 180.449 839.055C180.676 839.481 180.789 839.971 180.789 840.525C180.789 841.078 180.676 841.575 180.449 842.015C180.222 842.448 179.909 842.788 179.509 843.035C179.116 843.275 178.679 843.395 178.199 843.395C177.779 843.395 177.406 843.311 177.079 843.145C176.752 842.971 176.486 842.758 176.279 842.505V845.925H175.139V837.795H176.279V838.605ZM179.629 840.525C179.629 840.145 179.549 839.818 179.389 839.545C179.236 839.265 179.029 839.055 178.769 838.915C178.516 838.768 178.242 838.695 177.949 838.695C177.662 838.695 177.389 838.768 177.129 838.915C176.876 839.061 176.669 839.275 176.509 839.555C176.356 839.835 176.279 840.165 176.279 840.545C176.279 840.925 176.356 841.258 176.509 841.545C176.669 841.825 176.876 842.038 177.129 842.185C177.389 842.331 177.662 842.405 177.949 842.405C178.242 842.405 178.516 842.331 178.769 842.185C179.029 842.031 179.236 841.811 179.389 841.525C179.549 841.238 179.629 840.905 179.629 840.525ZM184.306 843.395C183.786 843.395 183.316 843.278 182.896 843.045C182.476 842.805 182.146 842.471 181.906 842.045C181.666 841.611 181.546 841.111 181.546 840.545C181.546 839.985 181.67 839.488 181.916 839.055C182.163 838.621 182.5 838.288 182.926 838.055C183.353 837.821 183.83 837.705 184.356 837.705C184.883 837.705 185.36 837.821 185.786 838.055C186.213 838.288 186.55 838.621 186.796 839.055C187.043 839.488 187.166 839.985 187.166 840.545C187.166 841.105 187.04 841.601 186.786 842.035C186.533 842.468 186.186 842.805 185.746 843.045C185.313 843.278 184.833 843.395 184.306 843.395ZM184.306 842.405C184.6 842.405 184.873 842.335 185.126 842.195C185.386 842.055 185.596 841.845 185.756 841.565C185.916 841.285 185.996 840.945 185.996 840.545C185.996 840.145 185.92 839.808 185.766 839.535C185.613 839.255 185.41 839.045 185.156 838.905C184.903 838.765 184.63 838.695 184.336 838.695C184.043 838.695 183.77 838.765 183.516 838.905C183.27 839.045 183.073 839.255 182.926 839.535C182.78 839.808 182.706 840.145 182.706 840.545C182.706 841.138 182.856 841.598 183.156 841.925C183.463 842.245 183.846 842.405 184.306 842.405ZM190.293 843.395C189.86 843.395 189.47 843.318 189.123 843.165C188.783 843.005 188.513 842.791 188.313 842.525C188.113 842.251 188.007 841.948 187.993 841.615H189.173C189.193 841.848 189.303 842.045 189.503 842.205C189.71 842.358 189.967 842.435 190.273 842.435C190.593 842.435 190.84 842.375 191.013 842.255C191.193 842.128 191.283 841.968 191.283 841.775C191.283 841.568 191.183 841.415 190.983 841.315C190.79 841.215 190.48 841.105 190.053 840.985C189.64 840.871 189.303 840.761 189.043 840.655C188.783 840.548 188.557 840.385 188.363 840.165C188.177 839.945 188.083 839.655 188.083 839.295C188.083 839.001 188.17 838.735 188.343 838.495C188.517 838.248 188.763 838.055 189.083 837.915C189.41 837.775 189.783 837.705 190.203 837.705C190.83 837.705 191.333 837.865 191.713 838.185C192.1 838.498 192.307 838.928 192.333 839.475H191.193C191.173 839.228 191.073 839.031 190.893 838.885C190.713 838.738 190.47 838.665 190.163 838.665C189.863 838.665 189.633 838.721 189.473 838.835C189.313 838.948 189.233 839.098 189.233 839.285C189.233 839.431 189.287 839.555 189.393 839.655C189.5 839.755 189.63 839.835 189.783 839.895C189.937 839.948 190.163 840.018 190.463 840.105C190.863 840.211 191.19 840.321 191.443 840.435C191.703 840.541 191.927 840.701 192.113 840.915C192.3 841.128 192.397 841.411 192.403 841.765C192.403 842.078 192.317 842.358 192.143 842.605C191.97 842.851 191.723 843.045 191.403 843.185C191.09 843.325 190.72 843.395 190.293 843.395ZM194.215 837.065C194.008 837.065 193.835 836.995 193.695 836.855C193.555 836.715 193.485 836.541 193.485 836.335C193.485 836.128 193.555 835.955 193.695 835.815C193.835 835.675 194.008 835.605 194.215 835.605C194.415 835.605 194.585 835.675 194.725 835.815C194.865 835.955 194.935 836.128 194.935 836.335C194.935 836.541 194.865 836.715 194.725 836.855C194.585 836.995 194.415 837.065 194.215 837.065ZM194.775 837.795V843.305H193.635V837.795H194.775ZM197.602 838.725V841.775C197.602 841.981 197.648 842.131 197.742 842.225C197.842 842.311 198.008 842.355 198.242 842.355H198.942V843.305H198.042C197.528 843.305 197.135 843.185 196.862 842.945C196.588 842.705 196.452 842.315 196.452 841.775V838.725H195.802V837.795H196.452V836.425H197.602V837.795H198.942V838.725H197.602ZM200.572 837.065C200.366 837.065 200.192 836.995 200.052 836.855C199.912 836.715 199.842 836.541 199.842 836.335C199.842 836.128 199.912 835.955 200.052 835.815C200.192 835.675 200.366 835.605 200.572 835.605C200.772 835.605 200.942 835.675 201.082 835.815C201.222 835.955 201.292 836.128 201.292 836.335C201.292 836.541 201.222 836.715 201.082 836.855C200.942 836.995 200.772 837.065 200.572 837.065ZM201.132 837.795V843.305H199.992V837.795H201.132ZM204.759 842.285L206.319 837.795H207.529L205.429 843.305H204.069L201.979 837.795H203.199L204.759 842.285ZM210.781 843.395C210.261 843.395 209.791 843.278 209.371 843.045C208.951 842.805 208.621 842.471 208.381 842.045C208.141 841.611 208.021 841.111 208.021 840.545C208.021 839.985 208.144 839.488 208.391 839.055C208.637 838.621 208.974 838.288 209.401 838.055C209.827 837.821 210.304 837.705 210.831 837.705C211.357 837.705 211.834 837.821 212.261 838.055C212.687 838.288 213.024 838.621 213.271 839.055C213.517 839.488 213.641 839.985 213.641 840.545C213.641 841.105 213.514 841.601 213.261 842.035C213.007 842.468 212.661 842.805 212.221 843.045C211.787 843.278 211.307 843.395 210.781 843.395ZM210.781 842.405C211.074 842.405 211.347 842.335 211.601 842.195C211.861 842.055 212.071 841.845 212.231 841.565C212.391 841.285 212.471 840.945 212.471 840.545C212.471 840.145 212.394 839.808 212.241 839.535C212.087 839.255 211.884 839.045 211.631 838.905C211.377 838.765 211.104 838.695 210.811 838.695C210.517 838.695 210.244 838.765 209.991 838.905C209.744 839.045 209.547 839.255 209.401 839.535C209.254 839.808 209.181 840.145 209.181 840.545C209.181 841.138 209.331 841.598 209.631 841.925C209.937 842.245 210.321 842.405 210.781 842.405Z" fill="white"/>
<path d="M269.066 744.724V746.764H271.466V747.694H269.066V749.824H271.766V750.754H267.926V743.794H271.766V744.724H269.066ZM275.95 745.154C276.383 745.154 276.77 745.244 277.11 745.424C277.457 745.604 277.727 745.871 277.92 746.224C278.113 746.577 278.21 747.004 278.21 747.504V750.754H277.08V747.674C277.08 747.181 276.957 746.804 276.71 746.544C276.463 746.277 276.127 746.144 275.7 746.144C275.273 746.144 274.933 746.277 274.68 746.544C274.433 746.804 274.31 747.181 274.31 747.674V750.754H273.17V745.244H274.31V745.874C274.497 745.647 274.733 745.471 275.02 745.344C275.313 745.217 275.623 745.154 275.95 745.154ZM279.284 747.994C279.284 747.427 279.398 746.931 279.624 746.504C279.858 746.071 280.178 745.737 280.584 745.504C280.991 745.271 281.458 745.154 281.984 745.154C282.651 745.154 283.201 745.314 283.634 745.634C284.074 745.947 284.371 746.397 284.524 746.984H283.294C283.194 746.711 283.034 746.497 282.814 746.344C282.594 746.191 282.318 746.114 281.984 746.114C281.518 746.114 281.144 746.281 280.864 746.614C280.591 746.941 280.454 747.401 280.454 747.994C280.454 748.587 280.591 749.051 280.864 749.384C281.144 749.717 281.518 749.884 281.984 749.884C282.644 749.884 283.081 749.594 283.294 749.014H284.524C284.364 749.574 284.064 750.021 283.624 750.354C283.184 750.681 282.638 750.844 281.984 750.844C281.458 750.844 280.991 750.727 280.584 750.494C280.178 750.254 279.858 749.921 279.624 749.494C279.398 749.061 279.284 748.561 279.284 747.994ZM285.28 747.974C285.28 747.421 285.394 746.931 285.62 746.504C285.854 746.077 286.167 745.747 286.56 745.514C286.96 745.274 287.4 745.154 287.88 745.154C288.314 745.154 288.69 745.241 289.01 745.414C289.337 745.581 289.597 745.791 289.79 746.044V745.244H290.94V750.754H289.79V749.934C289.597 750.194 289.334 750.411 289 750.584C288.667 750.757 288.287 750.844 287.86 750.844C287.387 750.844 286.954 750.724 286.56 750.484C286.167 750.237 285.854 749.897 285.62 749.464C285.394 749.024 285.28 748.527 285.28 747.974ZM289.79 747.994C289.79 747.614 289.71 747.284 289.55 747.004C289.397 746.724 289.194 746.511 288.94 746.364C288.687 746.217 288.414 746.144 288.12 746.144C287.827 746.144 287.554 746.217 287.3 746.364C287.047 746.504 286.84 746.714 286.68 746.994C286.527 747.267 286.45 747.594 286.45 747.974C286.45 748.354 286.527 748.687 286.68 748.974C286.84 749.261 287.047 749.481 287.3 749.634C287.56 749.781 287.834 749.854 288.12 749.854C288.414 749.854 288.687 749.781 288.94 749.634C289.194 749.487 289.397 749.274 289.55 748.994C289.71 748.707 289.79 748.374 289.79 747.994ZM295.218 745.154C295.651 745.154 296.038 745.244 296.378 745.424C296.724 745.604 296.994 745.871 297.188 746.224C297.381 746.577 297.478 747.004 297.478 747.504V750.754H296.348V747.674C296.348 747.181 296.224 746.804 295.978 746.544C295.731 746.277 295.394 746.144 294.968 746.144C294.541 746.144 294.201 746.277 293.948 746.544C293.701 746.804 293.578 747.181 293.578 747.674V750.754H292.438V745.244H293.578V745.874C293.764 745.647 294.001 745.471 294.288 745.344C294.581 745.217 294.891 745.154 295.218 745.154ZM300.262 746.174V749.224C300.262 749.431 300.308 749.581 300.402 749.674C300.502 749.761 300.668 749.804 300.902 749.804H301.602V750.754H300.702C300.188 750.754 299.795 750.634 299.522 750.394C299.248 750.154 299.112 749.764 299.112 749.224V746.174H298.462V745.244H299.112V743.874H300.262V745.244H301.602V746.174H300.262ZM307.702 747.864C307.702 748.071 307.689 748.257 307.662 748.424H303.452C303.486 748.864 303.649 749.217 303.942 749.484C304.236 749.751 304.596 749.884 305.022 749.884C305.636 749.884 306.069 749.627 306.322 749.114H307.552C307.386 749.621 307.082 750.037 306.642 750.364C306.209 750.684 305.669 750.844 305.022 750.844C304.496 750.844 304.022 750.727 303.602 750.494C303.189 750.254 302.862 749.921 302.622 749.494C302.389 749.061 302.272 748.561 302.272 747.994C302.272 747.427 302.386 746.931 302.612 746.504C302.846 746.071 303.169 745.737 303.582 745.504C304.002 745.271 304.482 745.154 305.022 745.154C305.542 745.154 306.006 745.267 306.412 745.494C306.819 745.721 307.136 746.041 307.362 746.454C307.589 746.861 307.702 747.331 307.702 747.864ZM306.512 747.504C306.506 747.084 306.356 746.747 306.062 746.494C305.769 746.241 305.406 746.114 304.972 746.114C304.579 746.114 304.242 746.241 303.962 746.494C303.682 746.741 303.516 747.077 303.462 747.504H306.512ZM313.422 750.844C312.989 750.844 312.599 750.767 312.252 750.614C311.912 750.454 311.642 750.241 311.442 749.974C311.242 749.701 311.135 749.397 311.122 749.064H312.302C312.322 749.297 312.432 749.494 312.632 749.654C312.839 749.807 313.095 749.884 313.402 749.884C313.722 749.884 313.969 749.824 314.142 749.704C314.322 749.577 314.412 749.417 314.412 749.224C314.412 749.017 314.312 748.864 314.112 748.764C313.919 748.664 313.609 748.554 313.182 748.434C312.769 748.321 312.432 748.211 312.172 748.104C311.912 747.997 311.685 747.834 311.492 747.614C311.305 747.394 311.212 747.104 311.212 746.744C311.212 746.451 311.299 746.184 311.472 745.944C311.645 745.697 311.892 745.504 312.212 745.364C312.539 745.224 312.912 745.154 313.332 745.154C313.959 745.154 314.462 745.314 314.842 745.634C315.229 745.947 315.435 746.377 315.462 746.924H314.322C314.302 746.677 314.202 746.481 314.022 746.334C313.842 746.187 313.599 746.114 313.292 746.114C312.992 746.114 312.762 746.171 312.602 746.284C312.442 746.397 312.362 746.547 312.362 746.734C312.362 746.881 312.415 747.004 312.522 747.104C312.629 747.204 312.759 747.284 312.912 747.344C313.065 747.397 313.292 747.467 313.592 747.554C313.992 747.661 314.319 747.771 314.572 747.884C314.832 747.991 315.055 748.151 315.242 748.364C315.429 748.577 315.525 748.861 315.532 749.214C315.532 749.527 315.445 749.807 315.272 750.054C315.099 750.301 314.852 750.494 314.532 750.634C314.219 750.774 313.849 750.844 313.422 750.844ZM321.814 747.864C321.814 748.071 321.8 748.257 321.774 748.424H317.564C317.597 748.864 317.76 749.217 318.054 749.484C318.347 749.751 318.707 749.884 319.134 749.884C319.747 749.884 320.18 749.627 320.434 749.114H321.664C321.497 749.621 321.194 750.037 320.754 750.364C320.32 750.684 319.78 750.844 319.134 750.844C318.607 750.844 318.134 750.727 317.714 750.494C317.3 750.254 316.974 749.921 316.734 749.494C316.5 749.061 316.384 748.561 316.384 747.994C316.384 747.427 316.497 746.931 316.724 746.504C316.957 746.071 317.28 745.737 317.694 745.504C318.114 745.271 318.594 745.154 319.134 745.154C319.654 745.154 320.117 745.267 320.524 745.494C320.93 745.721 321.247 746.041 321.474 746.454C321.7 746.861 321.814 747.331 321.814 747.864ZM320.624 747.504C320.617 747.084 320.467 746.747 320.174 746.494C319.88 746.241 319.517 746.114 319.084 746.114C318.69 746.114 318.354 746.241 318.074 746.494C317.794 746.741 317.627 747.077 317.574 747.504H320.624ZM327.926 745.244V750.754H326.786V750.104C326.606 750.331 326.369 750.511 326.076 750.644C325.789 750.771 325.482 750.834 325.156 750.834C324.722 750.834 324.332 750.744 323.986 750.564C323.646 750.384 323.376 750.117 323.176 749.764C322.982 749.411 322.886 748.984 322.886 748.484V745.244H324.016V748.314C324.016 748.807 324.139 749.187 324.386 749.454C324.632 749.714 324.969 749.844 325.396 749.844C325.822 749.844 326.159 749.714 326.406 749.454C326.659 749.187 326.786 748.807 326.786 748.314V745.244H327.926ZM331.43 750.844C330.996 750.844 330.606 750.767 330.26 750.614C329.92 750.454 329.65 750.241 329.45 749.974C329.25 749.701 329.143 749.397 329.13 749.064H330.31C330.33 749.297 330.44 749.494 330.64 749.654C330.846 749.807 331.103 749.884 331.41 749.884C331.73 749.884 331.976 749.824 332.15 749.704C332.33 749.577 332.42 749.417 332.42 749.224C332.42 749.017 332.32 748.864 332.12 748.764C331.926 748.664 331.616 748.554 331.19 748.434C330.776 748.321 330.44 748.211 330.18 748.104C329.92 747.997 329.693 747.834 329.5 747.614C329.313 747.394 329.22 747.104 329.22 746.744C329.22 746.451 329.306 746.184 329.48 745.944C329.653 745.697 329.9 745.504 330.22 745.364C330.546 745.224 330.92 745.154 331.34 745.154C331.966 745.154 332.47 745.314 332.85 745.634C333.236 745.947 333.443 746.377 333.47 746.924H332.33C332.31 746.677 332.21 746.481 332.03 746.334C331.85 746.187 331.606 746.114 331.3 746.114C331 746.114 330.77 746.171 330.61 746.284C330.45 746.397 330.37 746.547 330.37 746.734C330.37 746.881 330.423 747.004 330.53 747.104C330.636 747.204 330.766 747.284 330.92 747.344C331.073 747.397 331.3 747.467 331.6 747.554C332 747.661 332.326 747.771 332.58 747.884C332.84 747.991 333.063 748.151 333.25 748.364C333.436 748.577 333.533 748.861 333.54 749.214C333.54 749.527 333.453 749.807 333.28 750.054C333.106 750.301 332.86 750.494 332.54 750.634C332.226 750.774 331.856 750.844 331.43 750.844ZM281.384 759.994C281.384 759.427 281.497 758.931 281.724 758.504C281.957 758.071 282.277 757.737 282.684 757.504C283.09 757.271 283.557 757.154 284.084 757.154C284.75 757.154 285.3 757.314 285.734 757.634C286.174 757.947 286.47 758.397 286.624 758.984H285.394C285.294 758.711 285.134 758.497 284.914 758.344C284.694 758.191 284.417 758.114 284.084 758.114C283.617 758.114 283.244 758.281 282.964 758.614C282.69 758.941 282.554 759.401 282.554 759.994C282.554 760.587 282.69 761.051 282.964 761.384C283.244 761.717 283.617 761.884 284.084 761.884C284.744 761.884 285.18 761.594 285.394 761.014H286.624C286.464 761.574 286.164 762.021 285.724 762.354C285.284 762.681 284.737 762.844 284.084 762.844C283.557 762.844 283.09 762.727 282.684 762.494C282.277 762.254 281.957 761.921 281.724 761.494C281.497 761.061 281.384 760.561 281.384 759.994ZM288.9 755.354V762.754H287.76V755.354H288.9ZM290.977 756.514C290.77 756.514 290.597 756.444 290.457 756.304C290.317 756.164 290.247 755.991 290.247 755.784C290.247 755.577 290.317 755.404 290.457 755.264C290.597 755.124 290.77 755.054 290.977 755.054C291.177 755.054 291.347 755.124 291.487 755.264C291.627 755.404 291.697 755.577 291.697 755.784C291.697 755.991 291.627 756.164 291.487 756.304C291.347 756.444 291.177 756.514 290.977 756.514ZM291.537 757.244V762.754H290.397V757.244H291.537ZM298.083 759.864C298.083 760.071 298.07 760.257 298.043 760.424H293.833C293.867 760.864 294.03 761.217 294.323 761.484C294.617 761.751 294.977 761.884 295.403 761.884C296.017 761.884 296.45 761.627 296.703 761.114H297.933C297.767 761.621 297.463 762.037 297.023 762.364C296.59 762.684 296.05 762.844 295.403 762.844C294.877 762.844 294.403 762.727 293.983 762.494C293.57 762.254 293.243 761.921 293.003 761.494C292.77 761.061 292.653 760.561 292.653 759.994C292.653 759.427 292.767 758.931 292.993 758.504C293.227 758.071 293.55 757.737 293.963 757.504C294.383 757.271 294.863 757.154 295.403 757.154C295.923 757.154 296.387 757.267 296.793 757.494C297.2 757.721 297.517 758.041 297.743 758.454C297.97 758.861 298.083 759.331 298.083 759.864ZM296.893 759.504C296.887 759.084 296.737 758.747 296.443 758.494C296.15 758.241 295.787 758.114 295.353 758.114C294.96 758.114 294.623 758.241 294.343 758.494C294.063 758.741 293.897 759.077 293.843 759.504H296.893ZM301.985 757.154C302.419 757.154 302.805 757.244 303.145 757.424C303.492 757.604 303.762 757.871 303.955 758.224C304.149 758.577 304.245 759.004 304.245 759.504V762.754H303.115V759.674C303.115 759.181 302.992 758.804 302.745 758.544C302.499 758.277 302.162 758.144 301.735 758.144C301.309 758.144 300.969 758.277 300.715 758.544C300.469 758.804 300.345 759.181 300.345 759.674V762.754H299.205V757.244H300.345V757.874C300.532 757.647 300.769 757.471 301.055 757.344C301.349 757.217 301.659 757.154 301.985 757.154ZM307.029 758.174V761.224C307.029 761.431 307.076 761.581 307.169 761.674C307.269 761.761 307.436 761.804 307.669 761.804H308.369V762.754H307.469C306.956 762.754 306.563 762.634 306.289 762.394C306.016 762.154 305.879 761.764 305.879 761.224V758.174H305.229V757.244H305.879V755.874H307.029V757.244H308.369V758.174H307.029ZM314.47 759.864C314.47 760.071 314.457 760.257 314.43 760.424H310.22C310.253 760.864 310.417 761.217 310.71 761.484C311.003 761.751 311.363 761.884 311.79 761.884C312.403 761.884 312.837 761.627 313.09 761.114H314.32C314.153 761.621 313.85 762.037 313.41 762.364C312.977 762.684 312.437 762.844 311.79 762.844C311.263 762.844 310.79 762.727 310.37 762.494C309.957 762.254 309.63 761.921 309.39 761.494C309.157 761.061 309.04 760.561 309.04 759.994C309.04 759.427 309.153 758.931 309.38 758.504C309.613 758.071 309.937 757.737 310.35 757.504C310.77 757.271 311.25 757.154 311.79 757.154C312.31 757.154 312.773 757.267 313.18 757.494C313.587 757.721 313.903 758.041 314.13 758.454C314.357 758.861 314.47 759.331 314.47 759.864ZM313.28 759.504C313.273 759.084 313.123 758.747 312.83 758.494C312.537 758.241 312.173 758.114 311.74 758.114C311.347 758.114 311.01 758.241 310.73 758.494C310.45 758.741 310.283 759.077 310.23 759.504H313.28ZM317.592 762.844C317.159 762.844 316.769 762.767 316.422 762.614C316.082 762.454 315.812 762.241 315.612 761.974C315.412 761.701 315.305 761.397 315.292 761.064H316.472C316.492 761.297 316.602 761.494 316.802 761.654C317.009 761.807 317.265 761.884 317.572 761.884C317.892 761.884 318.139 761.824 318.312 761.704C318.492 761.577 318.582 761.417 318.582 761.224C318.582 761.017 318.482 760.864 318.282 760.764C318.089 760.664 317.779 760.554 317.352 760.434C316.939 760.321 316.602 760.211 316.342 760.104C316.082 759.997 315.855 759.834 315.662 759.614C315.475 759.394 315.382 759.104 315.382 758.744C315.382 758.451 315.469 758.184 315.642 757.944C315.815 757.697 316.062 757.504 316.382 757.364C316.709 757.224 317.082 757.154 317.502 757.154C318.129 757.154 318.632 757.314 319.012 757.634C319.399 757.947 319.605 758.377 319.632 758.924H318.492C318.472 758.677 318.372 758.481 318.192 758.334C318.012 758.187 317.769 758.114 317.462 758.114C317.162 758.114 316.932 758.171 316.772 758.284C316.612 758.397 316.532 758.547 316.532 758.734C316.532 758.881 316.585 759.004 316.692 759.104C316.799 759.204 316.929 759.284 317.082 759.344C317.235 759.397 317.462 759.467 317.762 759.554C318.162 759.661 318.489 759.771 318.742 759.884C319.002 759.991 319.225 760.151 319.412 760.364C319.599 760.577 319.695 760.861 319.702 761.214C319.702 761.527 319.615 761.807 319.442 762.054C319.269 762.301 319.022 762.494 318.702 762.634C318.389 762.774 318.019 762.844 317.592 762.844Z" fill="white"/>
<path d="M73.1459 731.595L61.292 717.37L64.8482 710.258H81.4436L84.9998 717.37L73.1459 731.595ZM70.3306 716.185H75.9612L74.1831 712.629H72.1087L70.3306 716.185ZM71.9605 726.468V718.556H65.3816L71.9605 726.468ZM74.3313 726.468L80.9102 718.556H74.3313V726.468ZM78.5987 716.185H81.74L79.9619 712.629H76.8206L78.5987 716.185ZM64.5518 716.185H67.6931L69.4712 712.629H66.3299L64.5518 716.185Z" fill="#BCBCBC"/>
<path d="M341.312 694.453H334.936L341.312 699.358V694.453Z" fill="#515151"/>
<path d="M226.312 764.977H219.935L226.312 769.882V764.977Z" fill="#515151"/>
<path d="M116.801 693.445H110.424L116.801 698.35V693.445Z" fill="#515151"/>
<path d="M291.606 725.863C290.977 725.863 290.438 725.639 289.99 725.191C289.542 724.742 289.317 724.203 289.317 723.574V707.551C289.317 706.921 289.542 706.382 289.99 705.934C290.438 705.486 290.977 705.262 291.606 705.262H307.63C308.259 705.262 308.798 705.486 309.246 705.934C309.695 706.382 309.919 706.921 309.919 707.551V723.574C309.919 724.203 309.695 724.742 309.246 725.191C308.798 725.639 308.259 725.863 307.63 725.863H291.606ZM292.751 716.22L297.329 711.642L301.907 716.22L306.485 711.642L307.63 712.787V707.551H291.606V715.076L292.751 716.22ZM291.606 723.574H307.63V716.02L306.485 714.876L301.907 719.454L297.329 714.876L292.751 719.454L291.606 718.309V723.574ZM291.606 723.574V716.02V718.309V707.551V723.574Z" fill="#BCBCBC"/>
<path d="M177.587 798.694C176.992 798.694 176.482 798.482 176.057 798.057C175.633 797.633 175.421 797.123 175.421 796.527V792.195H177.587V793.278H188.419V780.279H177.587V781.362H175.421V777.03C175.421 776.434 175.633 775.924 176.057 775.5C176.482 775.075 176.992 774.863 177.587 774.863H188.419C189.015 774.863 189.525 775.075 189.949 775.5C190.374 775.924 190.586 776.434 190.586 777.03V796.527C190.586 797.123 190.374 797.633 189.949 798.057C189.525 798.482 189.015 798.694 188.419 798.694H177.587ZM177.587 795.444V796.527H188.419V795.444H177.587ZM173.688 792.195L172.171 790.678L178.237 784.612H174.338V782.446H181.92V790.028H179.754V786.129L173.688 792.195ZM177.587 778.113H188.419V777.03H177.587V778.113Z" fill="#BCBCBC"/>
</g>
<defs>
<filter id="filter0_d_60_1227" x="-62" y="674" width="386" height="266" filterUnits="userSpaceOnUse" color-interpolation-filters="sRGB">
<feFlood flood-opacity="0" result="BackgroundImageFix"/>
<feColorMatrix in="SourceAlpha" type="matrix" values="0 0 0 0 0 0 0 0 0 0 0 0 0 0 0 0 0 0 127 0" result="hardAlpha"/>
<feOffset dx="10" dy="4"/>
<feGaussianBlur stdDeviation="2"/>
<feComposite in2="hardAlpha" operator="out"/>
<feColorMatrix type="matrix" values="0 0 0 0 0 0 0 0 0 0 0 0 0 0 0 0 0 0 0.15 0"/>
<feBlend mode="normal" in2="BackgroundImageFix" result="effect1_dropShadow_60_1227"/>
<feBlend mode="normal" in="SourceGraphic" in2="effect1_dropShadow_60_1227" result="shape"/>
</filter>
<filter id="filter1_i_60_1227" x="-62" y="663" width="383" height="182" filterUnits="userSpaceOnUse" color-interpolation-filters="sRGB">
<feFlood flood-opacity="0" result="BackgroundImageFix"/>
<feBlend mode="normal" in="SourceGraphic" in2="BackgroundImageFix" result="shape"/>
<feColorMatrix in="SourceAlpha" type="matrix" values="0 0 0 0 0 0 0 0 0 0 0 0 0 0 0 0 0 0 127 0" result="hardAlpha"/>
<feOffset dx="11" dy="-11"/>
<feGaussianBlur stdDeviation="16"/>
<feComposite in2="hardAlpha" operator="arithmetic" k2="-1" k3="1"/>
<feColorMatrix type="matrix" values="0 0 0 0 0 0 0 0 0 0 0 0 0 0 0 0 0 0 0.25 0"/>
<feBlend mode="normal" in2="shape" result="effect1_innerShadow_60_1227"/>
</filter>
<filter id="filter2_d_60_1227" x="293" y="679" width="27" height="17" filterUnits="userSpaceOnUse" color-interpolation-filters="sRGB">
<feFlood flood-opacity="0" result="BackgroundImageFix"/>
<feColorMatrix in="SourceAlpha" type="matrix" values="0 0 0 0 0 0 0 0 0 0 0 0 0 0 0 0 0 0 127 0" result="hardAlpha"/>
<feOffset dx="10" dy="4"/>
<feGaussianBlur stdDeviation="2"/>
<feComposite in2="hardAlpha" operator="out"/>
<feColorMatrix type="matrix" values="0 0 0 0 0 0 0 0 0 0 0 0 0 0 0 0 0 0 0.15 0"/>
<feBlend mode="normal" in2="BackgroundImageFix" result="effect1_dropShadow_60_1227"/>
<feBlend mode="normal" in="SourceGraphic" in2="effect1_dropShadow_60_1227" result="shape"/>
</filter>
<linearGradient id="paint0_linear_60_1227" x1="353.5" y1="789" x2="353.5" y2="855.17" gradientUnits="userSpaceOnUse">
<stop stop-color="#5E2898"/>
<stop offset="1" stop-color="#DE32F4"/>
</linearGradient>
<linearGradient id="paint1_linear_60_1227" x1="-365.5" y1="-131" x2="29" y2="113" gradientUnits="userSpaceOnUse">
<stop stop-color="#D9D9D9" stop-opacity="0"/>
<stop offset="0.229296" stop-color="#5E2898" stop-opacity="0.23"/>
<stop offset="0.614583" stop-color="#5E2898"/>
<stop offset="1" stop-color="#DE32F4"/>
</linearGradient>
<linearGradient id="paint2_linear_60_1227" x1="-277.5" y1="-154" x2="117" y2="90" gradientUnits="userSpaceOnUse">
<stop stop-color="#D9D9D9" stop-opacity="0"/>
<stop offset="0.229296" stop-color="#5E2898" stop-opacity="0.23"/>
<stop offset="0.614583" stop-color="#5E2898"/>
<stop offset="1" stop-color="#DE32F4"/>
</linearGradient>
<linearGradient id="paint3_linear_60_1227" x1="-193.5" y1="-192" x2="201" y2="52" gradientUnits="userSpaceOnUse">
<stop stop-color="#D9D9D9" stop-opacity="0"/>
<stop offset="0.229296" stop-color="#5E2898" stop-opacity="0.23"/>
<stop offset="0.614583" stop-color="#5E2898"/>
<stop offset="1" stop-color="#DE32F4"/>
</linearGradient>
<clipPath id="clip0_60_1227">
<rect width="430" height="932" fill="white"/>
</clipPath>
</defs>
</svg>
