<svg width="1879" height="792" viewBox="0 0 1879 792" fill="none" xmlns="http://www.w3.org/2000/svg">
<path d="M230.5 218.5C197.5 198 -117 0 -117 0H-42.5C-42.5 0 230.5 168 256.5 183.5C282.5 199 263.5 239 230.5 218.5Z" fill="url(#paint0_linear_157_1638)" fill-opacity="0.3"/>
<path d="M177.5 258.5C144.5 238 -170 40 -170 40H-95.5C-95.5 40 177.5 208 203.5 223.5C229.5 239 210.5 279 177.5 258.5Z" fill="url(#paint1_linear_157_1638)" fill-opacity="0.3"/>
<path d="M109.5 294.5C76.5 274 -238 76 -238 76H-163.5C-163.5 76 109.5 244 135.5 259.5C161.5 275 142.5 315 109.5 294.5Z" fill="url(#paint2_linear_157_1638)" fill-opacity="0.3"/>
<path d="M37.5 322.5C4.5 302 -310 104 -310 104H-235.5C-235.5 104 37.5 272 63.5 287.5C89.5 303 70.5 343 37.5 322.5Z" fill="url(#paint3_linear_157_1638)" fill-opacity="0.3"/>
<rect x="-12.1479" y="142" width="20.6815" height="21.8231" fill="#303030" fill-opacity="0.5"/>
<rect x="-12.1479" y="190.01" width="20.6815" height="21.8231" fill="#303030" fill-opacity="0.5"/>
<rect x="-12.1479" y="238.021" width="20.6815" height="21.8231" fill="#303030" fill-opacity="0.5"/>
<rect x="-12.1479" y="286.031" width="20.6815" height="21.8231" fill="#303030" fill-opacity="0.5"/>
<rect x="-12.1479" y="334.043" width="20.6815" height="21.8231" fill="#303030" fill-opacity="0.5"/>
<rect x="-12.1479" y="382.053" width="20.6815" height="21.8231" fill="#303030" fill-opacity="0.5"/>
<rect x="-12.1479" y="430.064" width="20.6815" height="21.8231" fill="#303030" fill-opacity="0.5"/>
<rect x="-12.1479" y="478.074" width="20.6815" height="21.8231" fill="#303030" fill-opacity="0.5"/>
<rect x="-12.1479" y="526.086" width="20.6815" height="21.8231" fill="#303030" fill-opacity="0.5"/>
<rect x="24.0444" y="142" width="20.6815" height="21.8231" fill="#303030" fill-opacity="0.5"/>
<rect x="24.0444" y="190.01" width="20.6815" height="21.8231" fill="#303030" fill-opacity="0.5"/>
<rect x="24.0444" y="238.021" width="20.6815" height="21.8231" fill="#303030" fill-opacity="0.5"/>
<rect x="24.0444" y="286.031" width="20.6815" height="21.8231" fill="#303030" fill-opacity="0.5"/>
<rect x="24.0444" y="334.043" width="20.6815" height="21.8231" fill="#303030" fill-opacity="0.5"/>
<rect x="24.0444" y="382.053" width="20.6815" height="21.8231" fill="#303030" fill-opacity="0.5"/>
<rect x="24.0444" y="430.064" width="20.6815" height="21.8231" fill="#303030" fill-opacity="0.5"/>
<rect x="24.0444" y="478.074" width="20.6815" height="21.8231" fill="#303030" fill-opacity="0.5"/>
<rect x="24.0444" y="526.086" width="20.6815" height="21.8231" fill="#303030" fill-opacity="0.5"/>
<rect x="60.2373" y="142" width="20.6815" height="21.8231" fill="#303030" fill-opacity="0.5"/>
<rect x="60.2373" y="190.01" width="20.6815" height="21.8231" fill="#303030" fill-opacity="0.5"/>
<rect x="60.2373" y="238.021" width="20.6815" height="21.8231" fill="#303030" fill-opacity="0.5"/>
<rect x="60.2373" y="286.031" width="20.6815" height="21.8231" fill="#303030" fill-opacity="0.5"/>
<rect x="60.2373" y="334.043" width="20.6815" height="21.8231" fill="#303030" fill-opacity="0.5"/>
<rect x="60.2373" y="382.053" width="20.6815" height="21.8231" fill="#303030" fill-opacity="0.5"/>
<rect x="60.2373" y="430.064" width="20.6815" height="21.8231" fill="#303030" fill-opacity="0.5"/>
<rect x="60.2373" y="478.074" width="20.6815" height="21.8231" fill="#303030" fill-opacity="0.5"/>
<rect x="60.2373" y="526.086" width="20.6815" height="21.8231" fill="#303030" fill-opacity="0.5"/>
<rect x="96.4297" y="142" width="20.6815" height="21.8231" fill="#303030" fill-opacity="0.5"/>
<rect x="96.4297" y="190.01" width="20.6815" height="21.8231" fill="#303030" fill-opacity="0.5"/>
<rect x="96.4297" y="238.021" width="20.6815" height="21.8231" fill="#303030" fill-opacity="0.5"/>
<rect x="96.4297" y="286.031" width="20.6815" height="21.8231" fill="#303030" fill-opacity="0.5"/>
<rect x="96.4297" y="334.043" width="20.6815" height="21.8231" fill="#303030" fill-opacity="0.5"/>
<rect x="96.4297" y="382.053" width="20.6815" height="21.8231" fill="#303030" fill-opacity="0.5"/>
<rect x="96.4297" y="430.064" width="20.6815" height="21.8231" fill="#303030" fill-opacity="0.5"/>
<rect x="96.4297" y="478.074" width="20.6815" height="21.8231" fill="#303030" fill-opacity="0.5"/>
<rect x="96.4297" y="526.086" width="20.6815" height="21.8231" fill="#303030" fill-opacity="0.5"/>
<rect x="132.622" y="142" width="20.6815" height="21.8231" fill="#303030" fill-opacity="0.5"/>
<rect x="132.622" y="190.01" width="20.6815" height="21.8231" fill="#303030" fill-opacity="0.5"/>
<rect x="132.622" y="238.021" width="20.6815" height="21.8231" fill="#303030" fill-opacity="0.5"/>
<rect x="132.622" y="286.031" width="20.6815" height="21.8231" fill="#303030" fill-opacity="0.5"/>
<rect x="132.622" y="334.043" width="20.6815" height="21.8231" fill="#303030" fill-opacity="0.5"/>
<rect x="132.622" y="382.053" width="20.6815" height="21.8231" fill="#303030" fill-opacity="0.5"/>
<rect x="132.622" y="430.064" width="20.6815" height="21.8231" fill="#303030" fill-opacity="0.5"/>
<rect x="132.622" y="478.074" width="20.6815" height="21.8231" fill="#303030" fill-opacity="0.5"/>
<rect x="132.622" y="526.086" width="20.6815" height="21.8231" fill="#303030" fill-opacity="0.5"/>
<rect x="168.815" y="142" width="20.6815" height="21.8231" fill="#303030" fill-opacity="0.5"/>
<rect x="168.815" y="190.01" width="20.6815" height="21.8231" fill="#303030" fill-opacity="0.5"/>
<rect x="168.815" y="238.021" width="20.6815" height="21.8231" fill="#303030" fill-opacity="0.5"/>
<rect x="168.815" y="286.031" width="20.6815" height="21.8231" fill="#303030" fill-opacity="0.5"/>
<rect x="168.815" y="334.043" width="20.6815" height="21.8231" fill="#303030" fill-opacity="0.5"/>
<rect x="168.815" y="382.053" width="20.6815" height="21.8231" fill="#303030" fill-opacity="0.5"/>
<rect x="168.815" y="430.064" width="20.6815" height="21.8231" fill="#303030" fill-opacity="0.5"/>
<rect x="168.815" y="478.074" width="20.6815" height="21.8231" fill="#303030" fill-opacity="0.5"/>
<rect x="168.815" y="526.086" width="20.6815" height="21.8231" fill="#303030" fill-opacity="0.5"/>
<rect x="205.007" y="142" width="20.6815" height="21.8231" fill="#303030" fill-opacity="0.5"/>
<rect x="205.007" y="190.01" width="20.6815" height="21.8231" fill="#303030" fill-opacity="0.5"/>
<rect x="205.007" y="238.021" width="20.6815" height="21.8231" fill="#303030" fill-opacity="0.5"/>
<rect x="205.007" y="286.031" width="20.6815" height="21.8231" fill="#303030" fill-opacity="0.5"/>
<rect x="205.007" y="334.043" width="20.6815" height="21.8231" fill="#303030" fill-opacity="0.5"/>
<rect x="205.007" y="382.053" width="20.6815" height="21.8231" fill="#303030" fill-opacity="0.5"/>
<rect x="205.007" y="430.064" width="20.6815" height="21.8231" fill="#303030" fill-opacity="0.5"/>
<rect x="205.007" y="478.074" width="20.6815" height="21.8231" fill="#303030" fill-opacity="0.5"/>
<rect x="205.007" y="526.086" width="20.6815" height="21.8231" fill="#303030" fill-opacity="0.5"/>
<rect x="241.2" y="142" width="20.6815" height="21.8231" fill="#303030" fill-opacity="0.5"/>
<rect x="241.2" y="190.01" width="20.6815" height="21.8231" fill="#303030" fill-opacity="0.5"/>
<rect x="241.2" y="238.021" width="20.6815" height="21.8231" fill="#303030" fill-opacity="0.5"/>
<rect x="241.2" y="286.031" width="20.6815" height="21.8231" fill="#303030" fill-opacity="0.5"/>
<rect x="241.2" y="334.043" width="20.6815" height="21.8231" fill="#303030" fill-opacity="0.5"/>
<rect x="241.2" y="382.053" width="20.6815" height="21.8231" fill="#303030" fill-opacity="0.5"/>
<rect x="241.2" y="430.064" width="20.6815" height="21.8231" fill="#303030" fill-opacity="0.5"/>
<rect x="241.2" y="478.074" width="20.6815" height="21.8231" fill="#303030" fill-opacity="0.5"/>
<rect x="241.2" y="526.086" width="20.6815" height="21.8231" fill="#303030" fill-opacity="0.5"/>
<rect x="277.393" y="142" width="20.6815" height="21.8231" fill="#303030" fill-opacity="0.5"/>
<rect x="277.393" y="190.01" width="20.6815" height="21.8231" fill="#303030" fill-opacity="0.5"/>
<rect x="277.393" y="238.021" width="20.6815" height="21.8231" fill="#303030" fill-opacity="0.5"/>
<rect x="277.393" y="286.031" width="20.6815" height="21.8231" fill="#303030" fill-opacity="0.5"/>
<rect x="277.393" y="334.043" width="20.6815" height="21.8231" fill="#303030" fill-opacity="0.5"/>
<rect x="277.393" y="382.053" width="20.6815" height="21.8231" fill="#303030" fill-opacity="0.5"/>
<rect x="277.393" y="430.064" width="20.6815" height="21.8231" fill="#303030" fill-opacity="0.5"/>
<rect x="277.393" y="478.074" width="20.6815" height="21.8231" fill="#303030" fill-opacity="0.5"/>
<rect x="277.393" y="526.086" width="20.6815" height="21.8231" fill="#303030" fill-opacity="0.5"/>
<rect x="313.585" y="142" width="20.6815" height="21.8231" fill="#303030" fill-opacity="0.5"/>
<rect x="313.585" y="190.01" width="20.6815" height="21.8231" fill="#303030" fill-opacity="0.5"/>
<rect x="313.585" y="238.021" width="20.6815" height="21.8231" fill="#303030" fill-opacity="0.5"/>
<rect x="313.585" y="286.031" width="20.6815" height="21.8231" fill="#303030" fill-opacity="0.5"/>
<rect x="313.585" y="334.043" width="20.6815" height="21.8231" fill="#303030" fill-opacity="0.5"/>
<rect x="313.585" y="382.053" width="20.6815" height="21.8231" fill="#303030" fill-opacity="0.5"/>
<rect x="313.585" y="430.064" width="20.6815" height="21.8231" fill="#303030" fill-opacity="0.5"/>
<rect x="313.585" y="478.074" width="20.6815" height="21.8231" fill="#303030" fill-opacity="0.5"/>
<rect x="313.585" y="526.086" width="20.6815" height="21.8231" fill="#303030" fill-opacity="0.5"/>
<rect x="349.778" y="142" width="20.6815" height="21.8231" fill="#303030" fill-opacity="0.5"/>
<rect x="349.778" y="190.01" width="20.6815" height="21.8231" fill="#303030" fill-opacity="0.5"/>
<rect x="349.778" y="238.021" width="20.6815" height="21.8231" fill="#303030" fill-opacity="0.5"/>
<rect x="349.778" y="286.031" width="20.6815" height="21.8231" fill="#303030" fill-opacity="0.5"/>
<rect x="349.778" y="334.043" width="20.6815" height="21.8231" fill="#303030" fill-opacity="0.5"/>
<rect x="349.778" y="382.053" width="20.6815" height="21.8231" fill="#303030" fill-opacity="0.5"/>
<rect x="349.778" y="430.064" width="20.6815" height="21.8231" fill="#303030" fill-opacity="0.5"/>
<rect x="349.778" y="478.074" width="20.6815" height="21.8231" fill="#303030" fill-opacity="0.5"/>
<rect x="349.778" y="526.086" width="20.6815" height="21.8231" fill="#303030" fill-opacity="0.5"/>
<rect x="385.97" y="142" width="20.6815" height="21.8231" fill="#303030" fill-opacity="0.5"/>
<rect x="385.97" y="190.01" width="20.6815" height="21.8231" fill="#303030" fill-opacity="0.5"/>
<rect x="385.97" y="238.021" width="20.6815" height="21.8231" fill="#303030" fill-opacity="0.5"/>
<rect x="385.97" y="286.031" width="20.6815" height="21.8231" fill="#303030" fill-opacity="0.5"/>
<rect x="385.97" y="334.043" width="20.6815" height="21.8231" fill="#303030" fill-opacity="0.5"/>
<rect x="385.97" y="382.053" width="20.6815" height="21.8231" fill="#303030" fill-opacity="0.5"/>
<rect x="385.97" y="430.064" width="20.6815" height="21.8231" fill="#303030" fill-opacity="0.5"/>
<rect x="385.97" y="478.074" width="20.6815" height="21.8231" fill="#303030" fill-opacity="0.5"/>
<rect x="385.97" y="526.086" width="20.6815" height="21.8231" fill="#303030" fill-opacity="0.5"/>
<rect x="422.163" y="142" width="20.6815" height="21.8231" fill="#303030" fill-opacity="0.5"/>
<rect x="422.163" y="190.01" width="20.6815" height="21.8231" fill="#303030" fill-opacity="0.5"/>
<rect x="422.163" y="238.021" width="20.6815" height="21.8231" fill="#303030" fill-opacity="0.5"/>
<rect x="422.163" y="286.031" width="20.6815" height="21.8231" fill="#303030" fill-opacity="0.5"/>
<rect x="422.163" y="334.043" width="20.6815" height="21.8231" fill="#303030" fill-opacity="0.5"/>
<rect x="422.163" y="382.053" width="20.6815" height="21.8231" fill="#303030" fill-opacity="0.5"/>
<rect x="422.163" y="430.064" width="20.6815" height="21.8231" fill="#303030" fill-opacity="0.5"/>
<rect x="422.163" y="478.074" width="20.6815" height="21.8231" fill="#303030" fill-opacity="0.5"/>
<rect x="422.163" y="526.086" width="20.6815" height="21.8231" fill="#303030" fill-opacity="0.5"/>
<rect x="458.355" y="142" width="20.6815" height="21.8231" fill="#303030" fill-opacity="0.5"/>
<rect x="458.355" y="190.01" width="20.6815" height="21.8231" fill="#303030" fill-opacity="0.5"/>
<rect x="458.355" y="238.021" width="20.6815" height="21.8231" fill="#303030" fill-opacity="0.5"/>
<rect x="458.355" y="286.031" width="20.6815" height="21.8231" fill="#303030" fill-opacity="0.5"/>
<rect x="458.355" y="334.043" width="20.6815" height="21.8231" fill="#303030" fill-opacity="0.5"/>
<rect x="458.355" y="382.053" width="20.6815" height="21.8231" fill="#303030" fill-opacity="0.5"/>
<rect x="458.355" y="430.064" width="20.6815" height="21.8231" fill="#303030" fill-opacity="0.5"/>
<rect x="458.355" y="478.074" width="20.6815" height="21.8231" fill="#303030" fill-opacity="0.5"/>
<rect x="458.355" y="526.086" width="20.6815" height="21.8231" fill="#303030" fill-opacity="0.5"/>
<rect x="494.548" y="142" width="20.6815" height="21.8231" fill="#303030" fill-opacity="0.5"/>
<rect x="494.548" y="190.01" width="20.6815" height="21.8231" fill="#303030" fill-opacity="0.5"/>
<rect x="494.548" y="238.021" width="20.6815" height="21.8231" fill="#303030" fill-opacity="0.5"/>
<rect x="494.548" y="286.031" width="20.6815" height="21.8231" fill="#303030" fill-opacity="0.5"/>
<rect x="494.548" y="334.043" width="20.6815" height="21.8231" fill="#303030" fill-opacity="0.5"/>
<rect x="494.548" y="382.053" width="20.6815" height="21.8231" fill="#303030" fill-opacity="0.5"/>
<rect x="494.548" y="430.064" width="20.6815" height="21.8231" fill="#303030" fill-opacity="0.5"/>
<rect x="494.548" y="478.074" width="20.6815" height="21.8231" fill="#303030" fill-opacity="0.5"/>
<rect x="494.548" y="526.086" width="20.6815" height="21.8231" fill="#303030" fill-opacity="0.5"/>
<rect x="530.741" y="142" width="20.6815" height="21.8231" fill="#303030" fill-opacity="0.5"/>
<rect x="530.741" y="190.01" width="20.6815" height="21.8231" fill="#303030" fill-opacity="0.5"/>
<rect x="530.741" y="238.021" width="20.6815" height="21.8231" fill="#303030" fill-opacity="0.5"/>
<rect x="530.741" y="286.031" width="20.6815" height="21.8231" fill="#303030" fill-opacity="0.5"/>
<rect x="530.741" y="334.043" width="20.6815" height="21.8231" fill="#303030" fill-opacity="0.5"/>
<rect x="530.741" y="382.053" width="20.6815" height="21.8231" fill="#303030" fill-opacity="0.5"/>
<rect x="530.741" y="430.064" width="20.6815" height="21.8231" fill="#303030" fill-opacity="0.5"/>
<rect x="530.741" y="478.074" width="20.6815" height="21.8231" fill="#303030" fill-opacity="0.5"/>
<rect x="530.741" y="526.086" width="20.6815" height="21.8231" fill="#303030" fill-opacity="0.5"/>
<rect x="566.934" y="142" width="20.6815" height="21.8231" fill="#303030" fill-opacity="0.5"/>
<rect x="566.934" y="190.01" width="20.6815" height="21.8231" fill="#303030" fill-opacity="0.5"/>
<rect x="566.934" y="238.021" width="20.6815" height="21.8231" fill="#303030" fill-opacity="0.5"/>
<rect x="566.934" y="286.031" width="20.6815" height="21.8231" fill="#303030" fill-opacity="0.5"/>
<rect x="566.934" y="334.043" width="20.6815" height="21.8231" fill="#303030" fill-opacity="0.5"/>
<rect x="566.934" y="382.053" width="20.6815" height="21.8231" fill="#303030" fill-opacity="0.5"/>
<rect x="566.934" y="430.064" width="20.6815" height="21.8231" fill="#303030" fill-opacity="0.5"/>
<rect x="566.934" y="478.074" width="20.6815" height="21.8231" fill="#303030" fill-opacity="0.5"/>
<rect x="566.934" y="526.086" width="20.6815" height="21.8231" fill="#303030" fill-opacity="0.5"/>
<rect x="603.126" y="142" width="20.6815" height="21.8231" fill="#303030" fill-opacity="0.5"/>
<rect x="603.126" y="190.01" width="20.6815" height="21.8231" fill="#303030" fill-opacity="0.5"/>
<rect x="603.126" y="238.021" width="20.6815" height="21.8231" fill="#303030" fill-opacity="0.5"/>
<rect x="603.126" y="286.031" width="20.6815" height="21.8231" fill="#303030" fill-opacity="0.5"/>
<rect x="603.126" y="334.043" width="20.6815" height="21.8231" fill="#303030" fill-opacity="0.5"/>
<rect x="603.126" y="382.053" width="20.6815" height="21.8231" fill="#303030" fill-opacity="0.5"/>
<rect x="603.126" y="430.064" width="20.6815" height="21.8231" fill="#303030" fill-opacity="0.5"/>
<rect x="603.126" y="478.074" width="20.6815" height="21.8231" fill="#303030" fill-opacity="0.5"/>
<rect x="603.126" y="526.086" width="20.6815" height="21.8231" fill="#303030" fill-opacity="0.5"/>
<rect x="639.318" y="142" width="20.6815" height="21.8231" fill="#303030" fill-opacity="0.5"/>
<rect x="639.318" y="190.01" width="20.6815" height="21.8231" fill="#303030" fill-opacity="0.5"/>
<rect x="639.318" y="238.021" width="20.6815" height="21.8231" fill="#303030" fill-opacity="0.5"/>
<rect x="639.318" y="286.031" width="20.6815" height="21.8231" fill="#303030" fill-opacity="0.5"/>
<rect x="639.318" y="334.043" width="20.6815" height="21.8231" fill="#303030" fill-opacity="0.5"/>
<rect x="639.318" y="382.053" width="20.6815" height="21.8231" fill="#303030" fill-opacity="0.5"/>
<rect x="639.318" y="430.064" width="20.6815" height="21.8231" fill="#303030" fill-opacity="0.5"/>
<rect x="639.318" y="478.074" width="20.6815" height="21.8231" fill="#303030" fill-opacity="0.5"/>
<rect x="639.318" y="526.086" width="20.6815" height="21.8231" fill="#303030" fill-opacity="0.5"/>
<g filter="url(#filter0_d_157_1638)">
<rect x="1354" y="199" width="511" height="505" fill="url(#paint4_linear_157_1638)"/>
</g>
<path d="M1173.68 285.563L1160 271.628L1273.36 156.167H1208.86V136.26H1306.59V235.795H1287.04V170.102L1173.68 285.563Z" fill="url(#paint5_linear_157_1638)"/>
<rect x="1301" y="272" width="182" height="176" fill="#D9D9D9" fill-opacity="0.3"/>
<rect x="1556" y="616" width="182" height="176" fill="#D9D9D9" fill-opacity="0.3"/>
<rect x="1674" y="172" width="182" height="176" fill="#D9D9D9" fill-opacity="0.3"/>
<path d="M1329.14 394.154C1328.12 394.154 1327.19 393.978 1326.37 393.626C1325.55 393.259 1324.9 392.746 1324.43 392.086C1323.96 391.426 1323.73 390.656 1323.73 389.776H1326.41C1326.47 390.436 1326.73 390.979 1327.18 391.404C1327.65 391.829 1328.31 392.042 1329.14 392.042C1330.01 392.042 1330.68 391.837 1331.17 391.426C1331.65 391.001 1331.89 390.458 1331.89 389.798C1331.89 389.285 1331.74 388.867 1331.43 388.544C1331.14 388.221 1330.76 387.972 1330.31 387.796C1329.87 387.62 1329.25 387.429 1328.46 387.224C1327.46 386.96 1326.65 386.696 1326.02 386.432C1325.4 386.153 1324.87 385.728 1324.43 385.156C1323.99 384.584 1323.77 383.821 1323.77 382.868C1323.77 381.988 1323.99 381.218 1324.43 380.558C1324.87 379.898 1325.49 379.392 1326.28 379.04C1327.07 378.688 1327.99 378.512 1329.03 378.512C1330.51 378.512 1331.72 378.886 1332.66 379.634C1333.62 380.367 1334.14 381.379 1334.25 382.67H1331.47C1331.43 382.113 1331.17 381.636 1330.68 381.24C1330.2 380.844 1329.56 380.646 1328.77 380.646C1328.05 380.646 1327.46 380.829 1327.01 381.196C1326.55 381.563 1326.33 382.091 1326.33 382.78C1326.33 383.249 1326.47 383.638 1326.74 383.946C1327.04 384.239 1327.4 384.474 1327.84 384.65C1328.28 384.826 1328.89 385.017 1329.65 385.222C1330.66 385.501 1331.48 385.779 1332.11 386.058C1332.76 386.337 1333.3 386.769 1333.74 387.356C1334.19 387.928 1334.42 388.698 1334.42 389.666C1334.42 390.443 1334.21 391.177 1333.78 391.866C1333.37 392.555 1332.76 393.113 1331.96 393.538C1331.17 393.949 1330.23 394.154 1329.14 394.154ZM1338.66 380.272C1338.2 380.272 1337.82 380.118 1337.51 379.81C1337.21 379.502 1337.05 379.121 1337.05 378.666C1337.05 378.211 1337.21 377.83 1337.51 377.522C1337.82 377.214 1338.2 377.06 1338.66 377.06C1339.1 377.06 1339.47 377.214 1339.78 377.522C1340.09 377.83 1340.24 378.211 1340.24 378.666C1340.24 379.121 1340.09 379.502 1339.78 379.81C1339.47 380.118 1339.1 380.272 1338.66 380.272ZM1339.89 381.878V394H1337.38V381.878H1339.89ZM1346.11 383.924V390.634C1346.11 391.089 1346.21 391.419 1346.42 391.624C1346.64 391.815 1347 391.91 1347.52 391.91H1349.06V394H1347.08C1345.95 394 1345.08 393.736 1344.48 393.208C1343.88 392.68 1343.58 391.822 1343.58 390.634V383.924H1342.15V381.878H1343.58V378.864H1346.11V381.878H1349.06V383.924H1346.11ZM1362.48 387.642C1362.48 388.097 1362.45 388.507 1362.39 388.874H1353.13C1353.2 389.842 1353.56 390.619 1354.21 391.206C1354.85 391.793 1355.64 392.086 1356.58 392.086C1357.93 392.086 1358.88 391.521 1359.44 390.392H1362.15C1361.78 391.507 1361.11 392.423 1360.15 393.142C1359.19 393.846 1358 394.198 1356.58 394.198C1355.42 394.198 1354.38 393.941 1353.46 393.428C1352.55 392.9 1351.83 392.167 1351.3 391.228C1350.79 390.275 1350.53 389.175 1350.53 387.928C1350.53 386.681 1350.78 385.589 1351.28 384.65C1351.79 383.697 1352.5 382.963 1353.41 382.45C1354.34 381.937 1355.39 381.68 1356.58 381.68C1357.73 381.68 1358.75 381.929 1359.64 382.428C1360.53 382.927 1361.23 383.631 1361.73 384.54C1362.23 385.435 1362.48 386.469 1362.48 387.642ZM1359.86 386.85C1359.85 385.926 1359.52 385.185 1358.87 384.628C1358.22 384.071 1357.43 383.792 1356.47 383.792C1355.61 383.792 1354.87 384.071 1354.25 384.628C1353.63 385.171 1353.27 385.911 1353.15 386.85H1359.86ZM1373.17 383.682C1373.59 383.095 1374.17 382.619 1374.91 382.252C1375.65 381.871 1376.48 381.68 1377.39 381.68C1378.46 381.68 1379.43 381.937 1380.3 382.45C1381.16 382.963 1381.84 383.697 1382.34 384.65C1382.84 385.589 1383.09 386.667 1383.09 387.884C1383.09 389.101 1382.84 390.194 1382.34 391.162C1381.84 392.115 1381.15 392.863 1380.27 393.406C1379.41 393.934 1378.45 394.198 1377.39 394.198C1376.45 394.198 1375.62 394.015 1374.88 393.648C1374.17 393.281 1373.59 392.812 1373.17 392.24V394H1370.66V377.72H1373.17V383.682ZM1380.54 387.884C1380.54 387.048 1380.36 386.329 1380.01 385.728C1379.67 385.112 1379.22 384.65 1378.65 384.342C1378.09 384.019 1377.49 383.858 1376.84 383.858C1376.21 383.858 1375.61 384.019 1375.04 384.342C1374.48 384.665 1374.03 385.134 1373.67 385.75C1373.34 386.366 1373.17 387.092 1373.17 387.928C1373.17 388.764 1373.34 389.497 1373.67 390.128C1374.03 390.744 1374.48 391.213 1375.04 391.536C1375.61 391.859 1376.21 392.02 1376.84 392.02C1377.49 392.02 1378.09 391.859 1378.65 391.536C1379.22 391.199 1379.67 390.715 1380.01 390.084C1380.36 389.453 1380.54 388.72 1380.54 387.884ZM1390.83 394.198C1389.68 394.198 1388.65 393.941 1387.73 393.428C1386.8 392.9 1386.08 392.167 1385.55 391.228C1385.02 390.275 1384.76 389.175 1384.76 387.928C1384.76 386.696 1385.03 385.603 1385.57 384.65C1386.11 383.697 1386.85 382.963 1387.79 382.45C1388.73 381.937 1389.78 381.68 1390.94 381.68C1392.1 381.68 1393.15 381.937 1394.08 382.45C1395.02 382.963 1395.76 383.697 1396.31 384.65C1396.85 385.603 1397.12 386.696 1397.12 387.928C1397.12 389.16 1396.84 390.253 1396.28 391.206C1395.73 392.159 1394.96 392.9 1394 393.428C1393.04 393.941 1391.99 394.198 1390.83 394.198ZM1390.83 392.02C1391.47 392.02 1392.08 391.866 1392.63 391.558C1393.2 391.25 1393.67 390.788 1394.02 390.172C1394.37 389.556 1394.55 388.808 1394.55 387.928C1394.55 387.048 1394.38 386.307 1394.04 385.706C1393.7 385.09 1393.26 384.628 1392.7 384.32C1392.14 384.012 1391.54 383.858 1390.89 383.858C1390.25 383.858 1389.65 384.012 1389.09 384.32C1388.55 384.628 1388.12 385.09 1387.79 385.706C1387.47 386.307 1387.31 387.048 1387.31 387.928C1387.31 389.233 1387.64 390.245 1388.3 390.964C1388.97 391.668 1389.82 392.02 1390.83 392.02ZM1405.72 381.68C1406.67 381.68 1407.52 381.878 1408.27 382.274C1409.03 382.67 1409.62 383.257 1410.05 384.034C1410.48 384.811 1410.69 385.75 1410.69 386.85V394H1408.2V387.224C1408.2 386.139 1407.93 385.31 1407.39 384.738C1406.85 384.151 1406.1 383.858 1405.17 383.858C1404.23 383.858 1403.48 384.151 1402.92 384.738C1402.38 385.31 1402.11 386.139 1402.11 387.224V394H1399.6V381.878H1402.11V383.264C1402.52 382.765 1403.04 382.377 1403.67 382.098C1404.32 381.819 1405 381.68 1405.72 381.68ZM1415.16 380.272C1414.71 380.272 1414.33 380.118 1414.02 379.81C1413.71 379.502 1413.56 379.121 1413.56 378.666C1413.56 378.211 1413.71 377.83 1414.02 377.522C1414.33 377.214 1414.71 377.06 1415.16 377.06C1415.6 377.06 1415.98 377.214 1416.29 377.522C1416.59 377.83 1416.75 378.211 1416.75 378.666C1416.75 379.121 1416.59 379.502 1416.29 379.81C1415.98 380.118 1415.6 380.272 1415.16 380.272ZM1416.4 381.878V394H1413.89V381.878H1416.4ZM1422.61 383.924V390.634C1422.61 391.089 1422.72 391.419 1422.92 391.624C1423.14 391.815 1423.51 391.91 1424.02 391.91H1425.56V394H1423.58C1422.45 394 1421.59 393.736 1420.99 393.208C1420.38 392.68 1420.08 391.822 1420.08 390.634V383.924H1418.65V381.878H1420.08V378.864H1422.61V381.878H1425.56V383.924H1422.61ZM1433.13 394.198C1431.99 394.198 1430.95 393.941 1430.03 393.428C1429.11 392.9 1428.38 392.167 1427.85 391.228C1427.32 390.275 1427.06 389.175 1427.06 387.928C1427.06 386.696 1427.33 385.603 1427.87 384.65C1428.42 383.697 1429.16 382.963 1430.1 382.45C1431.03 381.937 1432.08 381.68 1433.24 381.68C1434.4 381.68 1435.45 381.937 1436.39 382.45C1437.33 382.963 1438.07 383.697 1438.61 384.65C1439.15 385.603 1439.42 386.696 1439.42 387.928C1439.42 389.16 1439.14 390.253 1438.59 391.206C1438.03 392.159 1437.27 392.9 1436.3 393.428C1435.35 393.941 1434.29 394.198 1433.13 394.198ZM1433.13 392.02C1433.78 392.02 1434.38 391.866 1434.94 391.558C1435.51 391.25 1435.97 390.788 1436.32 390.172C1436.67 389.556 1436.85 388.808 1436.85 387.928C1436.85 387.048 1436.68 386.307 1436.34 385.706C1436.01 385.09 1435.56 384.628 1435 384.32C1434.44 384.012 1433.84 383.858 1433.2 383.858C1432.55 383.858 1431.95 384.012 1431.39 384.32C1430.85 384.628 1430.42 385.09 1430.1 385.706C1429.77 386.307 1429.61 387.048 1429.61 387.928C1429.61 389.233 1429.94 390.245 1430.6 390.964C1431.28 391.668 1432.12 392.02 1433.13 392.02ZM1458.73 387.642C1458.73 388.097 1458.7 388.507 1458.64 388.874H1449.38C1449.45 389.842 1449.81 390.619 1450.46 391.206C1451.1 391.793 1451.89 392.086 1452.83 392.086C1454.18 392.086 1455.13 391.521 1455.69 390.392H1458.4C1458.03 391.507 1457.36 392.423 1456.4 393.142C1455.44 393.846 1454.25 394.198 1452.83 394.198C1451.67 394.198 1450.63 393.941 1449.71 393.428C1448.8 392.9 1448.08 392.167 1447.55 391.228C1447.04 390.275 1446.78 389.175 1446.78 387.928C1446.78 386.681 1447.03 385.589 1447.53 384.65C1448.04 383.697 1448.75 382.963 1449.66 382.45C1450.59 381.937 1451.64 381.68 1452.83 381.68C1453.98 381.68 1455 381.929 1455.89 382.428C1456.78 382.927 1457.48 383.631 1457.98 384.54C1458.48 385.435 1458.73 386.469 1458.73 387.642ZM1456.11 386.85C1456.1 385.926 1455.77 385.185 1455.12 384.628C1454.47 384.071 1453.68 383.792 1452.72 383.792C1451.86 383.792 1451.12 384.071 1450.5 384.628C1449.88 385.171 1449.52 385.911 1449.4 386.85H1456.11ZM1356.26 407.68C1357.21 407.68 1358.06 407.878 1358.81 408.274C1359.57 408.67 1360.16 409.257 1360.59 410.034C1361.03 410.811 1361.25 411.75 1361.25 412.85V420H1358.76V413.224C1358.76 412.139 1358.49 411.31 1357.95 410.738C1357.41 410.151 1356.67 409.858 1355.73 409.858C1354.79 409.858 1354.04 410.151 1353.48 410.738C1352.94 411.31 1352.67 412.139 1352.67 413.224V420H1350.18V413.224C1350.18 412.139 1349.91 411.31 1349.37 410.738C1348.83 410.151 1348.09 409.858 1347.15 409.858C1346.21 409.858 1345.46 410.151 1344.9 410.738C1344.36 411.31 1344.09 412.139 1344.09 413.224V420H1341.58V407.878H1344.09V409.264C1344.5 408.765 1345.02 408.377 1345.65 408.098C1346.28 407.819 1346.96 407.68 1347.68 407.68C1348.64 407.68 1349.51 407.885 1350.27 408.296C1351.03 408.707 1351.62 409.301 1352.03 410.078C1352.4 409.345 1352.97 408.765 1353.75 408.34C1354.52 407.9 1355.36 407.68 1356.26 407.68ZM1369.7 420.198C1368.56 420.198 1367.52 419.941 1366.6 419.428C1365.67 418.9 1364.95 418.167 1364.42 417.228C1363.89 416.275 1363.63 415.175 1363.63 413.928C1363.63 412.696 1363.9 411.603 1364.44 410.65C1364.98 409.697 1365.72 408.963 1366.66 408.45C1367.6 407.937 1368.65 407.68 1369.81 407.68C1370.97 407.68 1372.02 407.937 1372.96 408.45C1373.89 408.963 1374.63 409.697 1375.18 410.65C1375.72 411.603 1375.99 412.696 1375.99 413.928C1375.99 415.16 1375.71 416.253 1375.16 417.206C1374.6 418.159 1373.84 418.9 1372.87 419.428C1371.91 419.941 1370.86 420.198 1369.7 420.198ZM1369.7 418.02C1370.34 418.02 1370.95 417.866 1371.5 417.558C1372.08 417.25 1372.54 416.788 1372.89 416.172C1373.24 415.556 1373.42 414.808 1373.42 413.928C1373.42 413.048 1373.25 412.307 1372.91 411.706C1372.57 411.09 1372.13 410.628 1371.57 410.32C1371.01 410.012 1370.41 409.858 1369.77 409.858C1369.12 409.858 1368.52 410.012 1367.96 410.32C1367.42 410.628 1366.99 411.09 1366.66 411.706C1366.34 412.307 1366.18 413.048 1366.18 413.928C1366.18 415.233 1366.51 416.245 1367.17 416.964C1367.84 417.668 1368.69 418.02 1369.7 418.02ZM1377.63 413.884C1377.63 412.667 1377.88 411.589 1378.38 410.65C1378.9 409.711 1379.58 408.985 1380.45 408.472C1381.33 407.944 1382.31 407.68 1383.38 407.68C1384.17 407.68 1384.95 407.856 1385.71 408.208C1386.49 408.545 1387.1 409 1387.56 409.572V403.72H1390.09V420H1387.56V418.174C1387.15 418.761 1386.57 419.245 1385.84 419.626C1385.12 420.007 1384.29 420.198 1383.35 420.198C1382.3 420.198 1381.33 419.934 1380.45 419.406C1379.58 418.863 1378.9 418.115 1378.38 417.162C1377.88 416.194 1377.63 415.101 1377.63 413.884ZM1387.56 413.928C1387.56 413.092 1387.38 412.366 1387.03 411.75C1386.69 411.134 1386.24 410.665 1385.69 410.342C1385.13 410.019 1384.53 409.858 1383.88 409.858C1383.24 409.858 1382.64 410.019 1382.08 410.342C1381.52 410.65 1381.07 411.112 1380.71 411.728C1380.38 412.329 1380.21 413.048 1380.21 413.884C1380.21 414.72 1380.38 415.453 1380.71 416.084C1381.07 416.715 1381.52 417.199 1382.08 417.536C1382.65 417.859 1383.25 418.02 1383.88 418.02C1384.53 418.02 1385.13 417.859 1385.69 417.536C1386.24 417.213 1386.69 416.744 1387.03 416.128C1387.38 415.497 1387.56 414.764 1387.56 413.928ZM1404.49 413.642C1404.49 414.097 1404.46 414.507 1404.4 414.874H1395.14C1395.21 415.842 1395.57 416.619 1396.22 417.206C1396.86 417.793 1397.66 418.086 1398.59 418.086C1399.94 418.086 1400.9 417.521 1401.45 416.392H1404.16C1403.79 417.507 1403.13 418.423 1402.16 419.142C1401.21 419.846 1400.02 420.198 1398.59 420.198C1397.44 420.198 1396.39 419.941 1395.47 419.428C1394.56 418.9 1393.84 418.167 1393.31 417.228C1392.8 416.275 1392.54 415.175 1392.54 413.928C1392.54 412.681 1392.79 411.589 1393.29 410.65C1393.81 409.697 1394.52 408.963 1395.43 408.45C1396.35 407.937 1397.41 407.68 1398.59 407.68C1399.74 407.68 1400.76 407.929 1401.65 408.428C1402.55 408.927 1403.24 409.631 1403.74 410.54C1404.24 411.435 1404.49 412.469 1404.49 413.642ZM1401.87 412.85C1401.86 411.926 1401.53 411.185 1400.88 410.628C1400.24 410.071 1399.44 409.792 1398.48 409.792C1397.62 409.792 1396.88 410.071 1396.26 410.628C1395.65 411.171 1395.28 411.911 1395.16 412.85H1401.87ZM1409.47 409.638C1409.83 409.022 1410.32 408.545 1410.92 408.208C1411.53 407.856 1412.26 407.68 1413.1 407.68V410.276H1412.46C1411.48 410.276 1410.73 410.525 1410.21 411.024C1409.72 411.523 1409.47 412.388 1409.47 413.62V420H1406.96V407.878H1409.47V409.638ZM1421.52 407.68C1422.47 407.68 1423.32 407.878 1424.07 408.274C1424.83 408.67 1425.43 409.257 1425.85 410.034C1426.28 410.811 1426.49 411.75 1426.49 412.85V420H1424V413.224C1424 412.139 1423.73 411.31 1423.19 410.738C1422.65 410.151 1421.91 409.858 1420.97 409.858C1420.03 409.858 1419.28 410.151 1418.72 410.738C1418.18 411.31 1417.91 412.139 1417.91 413.224V420H1415.4V407.878H1417.91V409.264C1418.32 408.765 1418.84 408.377 1419.47 408.098C1420.12 407.819 1420.8 407.68 1421.52 407.68ZM1434.95 420.198C1433.8 420.198 1432.77 419.941 1431.85 419.428C1430.92 418.9 1430.2 418.167 1429.67 417.228C1429.14 416.275 1428.88 415.175 1428.88 413.928C1428.88 412.696 1429.15 411.603 1429.69 410.65C1430.23 409.697 1430.97 408.963 1431.91 408.45C1432.85 407.937 1433.9 407.68 1435.06 407.68C1436.22 407.68 1437.26 407.937 1438.2 408.45C1439.14 408.963 1439.88 409.697 1440.43 410.65C1440.97 411.603 1441.24 412.696 1441.24 413.928C1441.24 415.16 1440.96 416.253 1440.4 417.206C1439.85 418.159 1439.08 418.9 1438.12 419.428C1437.16 419.941 1436.11 420.198 1434.95 420.198ZM1434.95 418.02C1435.59 418.02 1436.19 417.866 1436.75 417.558C1437.32 417.25 1437.79 416.788 1438.14 416.172C1438.49 415.556 1438.67 414.808 1438.67 413.928C1438.67 413.048 1438.5 412.307 1438.16 411.706C1437.82 411.09 1437.37 410.628 1436.82 410.32C1436.26 410.012 1435.66 409.858 1435.01 409.858C1434.37 409.858 1433.77 410.012 1433.21 410.32C1432.67 410.628 1432.23 411.09 1431.91 411.706C1431.59 412.307 1431.43 413.048 1431.43 413.928C1431.43 415.233 1431.76 416.245 1432.42 416.964C1433.09 417.668 1433.94 418.02 1434.95 418.02Z" fill="white"/>
<path d="M1586.57 712.322C1586.57 710.826 1586.92 709.484 1587.61 708.296C1588.31 707.108 1589.26 706.184 1590.45 705.524C1591.65 704.849 1592.96 704.512 1594.38 704.512C1596.01 704.512 1597.46 704.915 1598.72 705.722C1599.99 706.514 1600.92 707.643 1601.49 709.11H1598.48C1598.08 708.303 1597.53 707.702 1596.83 707.306C1596.12 706.91 1595.31 706.712 1594.38 706.712C1593.37 706.712 1592.47 706.939 1591.68 707.394C1590.89 707.849 1590.26 708.501 1589.81 709.352C1589.37 710.203 1589.15 711.193 1589.15 712.322C1589.15 713.451 1589.37 714.441 1589.81 715.292C1590.26 716.143 1590.89 716.803 1591.68 717.272C1592.47 717.727 1593.37 717.954 1594.38 717.954C1595.31 717.954 1596.12 717.756 1596.83 717.36C1597.53 716.964 1598.08 716.363 1598.48 715.556H1601.49C1600.92 717.023 1599.99 718.152 1598.72 718.944C1597.46 719.736 1596.01 720.132 1594.38 720.132C1592.95 720.132 1591.63 719.802 1590.45 719.142C1589.26 718.467 1588.31 717.536 1587.61 716.348C1586.92 715.16 1586.57 713.818 1586.57 712.322ZM1609.68 720.198C1608.54 720.198 1607.51 719.941 1606.58 719.428C1605.66 718.9 1604.93 718.167 1604.4 717.228C1603.88 716.275 1603.61 715.175 1603.61 713.928C1603.61 712.696 1603.88 711.603 1604.43 710.65C1604.97 709.697 1605.71 708.963 1606.65 708.45C1607.59 707.937 1608.63 707.68 1609.79 707.68C1610.95 707.68 1612 707.937 1612.94 708.45C1613.88 708.963 1614.62 709.697 1615.16 710.65C1615.7 711.603 1615.98 712.696 1615.98 713.928C1615.98 715.16 1615.7 716.253 1615.14 717.206C1614.58 718.159 1613.82 718.9 1612.85 719.428C1611.9 719.941 1610.84 720.198 1609.68 720.198ZM1609.68 718.02C1610.33 718.02 1610.93 717.866 1611.49 717.558C1612.06 717.25 1612.52 716.788 1612.87 716.172C1613.23 715.556 1613.4 714.808 1613.4 713.928C1613.4 713.048 1613.23 712.307 1612.9 711.706C1612.56 711.09 1612.11 710.628 1611.55 710.32C1611 710.012 1610.39 709.858 1609.75 709.858C1609.1 709.858 1608.5 710.012 1607.95 710.32C1607.4 710.628 1606.97 711.09 1606.65 711.706C1606.32 712.307 1606.16 713.048 1606.16 713.928C1606.16 715.233 1606.49 716.245 1607.15 716.964C1607.83 717.668 1608.67 718.02 1609.68 718.02ZM1633.13 707.68C1634.08 707.68 1634.93 707.878 1635.68 708.274C1636.44 708.67 1637.04 709.257 1637.46 710.034C1637.9 710.811 1638.12 711.75 1638.12 712.85V720H1635.64V713.224C1635.64 712.139 1635.37 711.31 1634.82 710.738C1634.28 710.151 1633.54 709.858 1632.6 709.858C1631.66 709.858 1630.91 710.151 1630.36 710.738C1629.81 711.31 1629.54 712.139 1629.54 713.224V720H1627.06V713.224C1627.06 712.139 1626.79 711.31 1626.24 710.738C1625.7 710.151 1624.96 709.858 1624.02 709.858C1623.08 709.858 1622.33 710.151 1621.78 710.738C1621.23 711.31 1620.96 712.139 1620.96 713.224V720H1618.45V707.878H1620.96V709.264C1621.37 708.765 1621.89 708.377 1622.52 708.098C1623.16 707.819 1623.83 707.68 1624.55 707.68C1625.52 707.68 1626.38 707.885 1627.14 708.296C1627.91 708.707 1628.49 709.301 1628.9 710.078C1629.27 709.345 1629.84 708.765 1630.62 708.34C1631.4 707.9 1632.23 707.68 1633.13 707.68ZM1643.82 709.66C1644.25 709.103 1644.83 708.633 1645.56 708.252C1646.29 707.871 1647.12 707.68 1648.05 707.68C1649.1 707.68 1650.06 707.944 1650.93 708.472C1651.81 708.985 1652.5 709.711 1653 710.65C1653.49 711.589 1653.74 712.667 1653.74 713.884C1653.74 715.101 1653.49 716.194 1653 717.162C1652.5 718.115 1651.81 718.863 1650.93 719.406C1650.06 719.934 1649.1 720.198 1648.05 720.198C1647.12 720.198 1646.3 720.015 1645.58 719.648C1644.86 719.267 1644.28 718.797 1643.82 718.24V725.764H1641.31V707.878H1643.82V709.66ZM1651.19 713.884C1651.19 713.048 1651.02 712.329 1650.66 711.728C1650.33 711.112 1649.87 710.65 1649.3 710.342C1648.74 710.019 1648.14 709.858 1647.5 709.858C1646.87 709.858 1646.26 710.019 1645.69 710.342C1645.13 710.665 1644.68 711.134 1644.33 711.75C1643.99 712.366 1643.82 713.092 1643.82 713.928C1643.82 714.764 1643.99 715.497 1644.33 716.128C1644.68 716.744 1645.13 717.213 1645.69 717.536C1646.26 717.859 1646.87 718.02 1647.5 718.02C1648.14 718.02 1648.74 717.859 1649.3 717.536C1649.87 717.199 1650.33 716.715 1650.66 716.084C1651.02 715.453 1651.19 714.72 1651.19 713.884ZM1655.39 713.884C1655.39 712.667 1655.64 711.589 1656.14 710.65C1656.65 709.711 1657.34 708.985 1658.2 708.472C1659.08 707.944 1660.05 707.68 1661.11 707.68C1662.06 707.68 1662.89 707.871 1663.59 708.252C1664.31 708.619 1664.88 709.081 1665.31 709.638V707.878H1667.84V720H1665.31V718.196C1664.88 718.768 1664.31 719.245 1663.57 719.626C1662.84 720.007 1662 720.198 1661.06 720.198C1660.02 720.198 1659.07 719.934 1658.2 719.406C1657.34 718.863 1656.65 718.115 1656.14 717.162C1655.64 716.194 1655.39 715.101 1655.39 713.884ZM1665.31 713.928C1665.31 713.092 1665.13 712.366 1664.78 711.75C1664.44 711.134 1664 710.665 1663.44 710.342C1662.88 710.019 1662.28 709.858 1661.64 709.858C1660.99 709.858 1660.39 710.019 1659.83 710.342C1659.27 710.65 1658.82 711.112 1658.47 711.728C1658.13 712.329 1657.96 713.048 1657.96 713.884C1657.96 714.72 1658.13 715.453 1658.47 716.084C1658.82 716.715 1659.27 717.199 1659.83 717.536C1660.4 717.859 1661.01 718.02 1661.64 718.02C1662.28 718.02 1662.88 717.859 1663.44 717.536C1664 717.213 1664.44 716.744 1664.78 716.128C1665.13 715.497 1665.31 714.764 1665.31 713.928ZM1674.06 709.924V716.634C1674.06 717.089 1674.16 717.419 1674.37 717.624C1674.59 717.815 1674.96 717.91 1675.47 717.91H1677.01V720H1675.03C1673.9 720 1673.03 719.736 1672.43 719.208C1671.83 718.68 1671.53 717.822 1671.53 716.634V709.924H1670.1V707.878H1671.53V704.864H1674.06V707.878H1677.01V709.924H1674.06ZM1681.83 707.878V720H1679.32V707.878H1681.83ZM1682.84 704.622L1677.98 707.02V705.172L1682.84 702.488V704.622ZM1689.81 717.756L1693.24 707.878H1695.9L1691.28 720H1688.29L1683.69 707.878H1686.37L1689.81 717.756ZM1708.91 713.642C1708.91 714.097 1708.88 714.507 1708.82 714.874H1699.56C1699.63 715.842 1699.99 716.619 1700.63 717.206C1701.28 717.793 1702.07 718.086 1703.01 718.086C1704.36 718.086 1705.31 717.521 1705.87 716.392H1708.58C1708.21 717.507 1707.54 718.423 1706.57 719.142C1705.62 719.846 1704.43 720.198 1703.01 720.198C1701.85 720.198 1700.81 719.941 1699.89 719.428C1698.98 718.9 1698.26 718.167 1697.73 717.228C1697.22 716.275 1696.96 715.175 1696.96 713.928C1696.96 712.681 1697.21 711.589 1697.71 710.65C1698.22 709.697 1698.93 708.963 1699.84 708.45C1700.77 707.937 1701.82 707.68 1703.01 707.68C1704.15 707.68 1705.17 707.929 1706.07 708.428C1706.96 708.927 1707.66 709.631 1708.16 710.54C1708.66 711.435 1708.91 712.469 1708.91 713.642ZM1706.29 712.85C1706.27 711.926 1705.94 711.185 1705.3 710.628C1704.65 710.071 1703.85 709.792 1702.9 709.792C1702.04 709.792 1701.29 710.071 1700.68 710.628C1700.06 711.171 1699.7 711.911 1699.58 712.85H1706.29ZM1713.88 703.72V720H1711.37V703.72H1713.88ZM1573 739.928C1573 738.681 1573.24 737.589 1573.74 736.65C1574.26 735.697 1574.96 734.963 1575.86 734.45C1576.75 733.937 1577.78 733.68 1578.94 733.68C1580.4 733.68 1581.61 734.032 1582.57 734.736C1583.53 735.425 1584.19 736.415 1584.52 737.706H1581.82C1581.6 737.105 1581.25 736.635 1580.76 736.298C1580.28 735.961 1579.67 735.792 1578.94 735.792C1577.91 735.792 1577.09 736.159 1576.47 736.892C1575.87 737.611 1575.57 738.623 1575.57 739.928C1575.57 741.233 1575.87 742.253 1576.47 742.986C1577.09 743.719 1577.91 744.086 1578.94 744.086C1580.39 744.086 1581.35 743.448 1581.82 742.172H1584.52C1584.17 743.404 1583.51 744.387 1582.54 745.12C1581.58 745.839 1580.37 746.198 1578.94 746.198C1577.78 746.198 1576.75 745.941 1575.86 745.428C1574.96 744.9 1574.26 744.167 1573.74 743.228C1573.24 742.275 1573 741.175 1573 739.928ZM1592.28 746.198C1591.14 746.198 1590.1 745.941 1589.18 745.428C1588.26 744.9 1587.53 744.167 1587 743.228C1586.47 742.275 1586.21 741.175 1586.21 739.928C1586.21 738.696 1586.48 737.603 1587.02 736.65C1587.57 735.697 1588.31 734.963 1589.25 734.45C1590.18 733.937 1591.23 733.68 1592.39 733.68C1593.55 733.68 1594.6 733.937 1595.54 734.45C1596.48 734.963 1597.22 735.697 1597.76 736.65C1598.3 737.603 1598.57 738.696 1598.57 739.928C1598.57 741.16 1598.29 742.253 1597.74 743.206C1597.18 744.159 1596.42 744.9 1595.45 745.428C1594.5 745.941 1593.44 746.198 1592.28 746.198ZM1592.28 744.02C1592.93 744.02 1593.53 743.866 1594.09 743.558C1594.66 743.25 1595.12 742.788 1595.47 742.172C1595.82 741.556 1596 740.808 1596 739.928C1596 739.048 1595.83 738.307 1595.49 737.706C1595.16 737.09 1594.71 736.628 1594.15 736.32C1593.59 736.012 1592.99 735.858 1592.35 735.858C1591.7 735.858 1591.1 736.012 1590.54 736.32C1590 736.628 1589.57 737.09 1589.25 737.706C1588.92 738.307 1588.76 739.048 1588.76 739.928C1588.76 741.233 1589.09 742.245 1589.75 742.964C1590.43 743.668 1591.27 744.02 1592.28 744.02ZM1615.73 733.68C1616.68 733.68 1617.53 733.878 1618.28 734.274C1619.04 734.67 1619.64 735.257 1620.06 736.034C1620.5 736.811 1620.72 737.75 1620.72 738.85V746H1618.23V739.224C1618.23 738.139 1617.96 737.31 1617.42 736.738C1616.88 736.151 1616.14 735.858 1615.2 735.858C1614.26 735.858 1613.51 736.151 1612.95 736.738C1612.41 737.31 1612.14 738.139 1612.14 739.224V746H1609.65V739.224C1609.65 738.139 1609.38 737.31 1608.84 736.738C1608.3 736.151 1607.56 735.858 1606.62 735.858C1605.68 735.858 1604.93 736.151 1604.37 736.738C1603.83 737.31 1603.56 738.139 1603.56 739.224V746H1601.05V733.878H1603.56V735.264C1603.97 734.765 1604.49 734.377 1605.12 734.098C1605.75 733.819 1606.43 733.68 1607.15 733.68C1608.11 733.68 1608.98 733.885 1609.74 734.296C1610.51 734.707 1611.09 735.301 1611.5 736.078C1611.87 735.345 1612.44 734.765 1613.22 734.34C1614 733.9 1614.83 733.68 1615.73 733.68ZM1628.79 739.884C1628.79 738.667 1629.04 737.589 1629.54 736.65C1630.05 735.711 1630.74 734.985 1631.61 734.472C1632.49 733.944 1633.46 733.68 1634.53 733.68C1635.47 733.68 1636.3 733.871 1637.02 734.252C1637.75 734.633 1638.32 735.095 1638.71 735.638V733.878H1641.24V751.764H1638.71V744.24C1638.32 744.783 1637.74 745.245 1637 745.626C1636.25 746.007 1635.4 746.198 1634.44 746.198C1633.4 746.198 1632.45 745.934 1631.58 745.406C1630.73 744.863 1630.05 744.115 1629.54 743.162C1629.04 742.194 1628.79 741.101 1628.79 739.884ZM1638.71 739.928C1638.71 739.092 1638.54 738.366 1638.18 737.75C1637.85 737.134 1637.4 736.665 1636.84 736.342C1636.29 736.019 1635.68 735.858 1635.04 735.858C1634.39 735.858 1633.79 736.019 1633.23 736.342C1632.68 736.65 1632.22 737.112 1631.87 737.728C1631.53 738.329 1631.36 739.048 1631.36 739.884C1631.36 740.72 1631.53 741.453 1631.87 742.084C1632.22 742.715 1632.68 743.199 1633.23 743.536C1633.81 743.859 1634.41 744.02 1635.04 744.02C1635.68 744.02 1636.29 743.859 1636.84 743.536C1637.4 743.213 1637.85 742.744 1638.18 742.128C1638.54 741.497 1638.71 740.764 1638.71 739.928ZM1655.51 733.878V746H1653.01V744.57C1652.61 745.069 1652.09 745.465 1651.44 745.758C1650.81 746.037 1650.14 746.176 1649.42 746.176C1648.47 746.176 1647.61 745.978 1646.85 745.582C1646.1 745.186 1645.5 744.599 1645.06 743.822C1644.64 743.045 1644.43 742.106 1644.43 741.006V733.878H1646.91V740.632C1646.91 741.717 1647.18 742.553 1647.73 743.14C1648.27 743.712 1649.01 743.998 1649.95 743.998C1650.89 743.998 1651.63 743.712 1652.17 743.14C1652.73 742.553 1653.01 741.717 1653.01 740.632V733.878H1655.51ZM1657.99 739.884C1657.99 738.667 1658.24 737.589 1658.74 736.65C1659.25 735.711 1659.94 734.985 1660.8 734.472C1661.68 733.944 1662.65 733.68 1663.71 733.68C1664.66 733.68 1665.49 733.871 1666.19 734.252C1666.91 734.619 1667.48 735.081 1667.91 735.638V733.878H1670.44V746H1667.91V744.196C1667.48 744.768 1666.91 745.245 1666.17 745.626C1665.44 746.007 1664.6 746.198 1663.66 746.198C1662.62 746.198 1661.67 745.934 1660.8 745.406C1659.94 744.863 1659.25 744.115 1658.74 743.162C1658.24 742.194 1657.99 741.101 1657.99 739.884ZM1667.91 739.928C1667.91 739.092 1667.73 738.366 1667.38 737.75C1667.04 737.134 1666.6 736.665 1666.04 736.342C1665.48 736.019 1664.88 735.858 1664.24 735.858C1663.59 735.858 1662.99 736.019 1662.43 736.342C1661.87 736.65 1661.42 737.112 1661.07 737.728C1660.73 738.329 1660.56 739.048 1660.56 739.884C1660.56 740.72 1660.73 741.453 1661.07 742.084C1661.42 742.715 1661.87 743.199 1662.43 743.536C1663 743.859 1663.61 744.02 1664.24 744.02C1664.88 744.02 1665.48 743.859 1666.04 743.536C1666.6 743.213 1667.04 742.744 1667.38 742.128C1667.73 741.497 1667.91 740.764 1667.91 739.928ZM1676.24 729.72V746H1673.73V729.72H1676.24ZM1678.7 739.884C1678.7 738.667 1678.95 737.589 1679.45 736.65C1679.96 735.711 1680.65 734.985 1681.51 734.472C1682.39 733.944 1683.37 733.68 1684.44 733.68C1685.38 733.68 1686.21 733.871 1686.93 734.252C1687.66 734.633 1688.22 735.095 1688.62 735.638V733.878H1691.15V751.764H1688.62V744.24C1688.22 744.783 1687.65 745.245 1686.9 745.626C1686.16 746.007 1685.31 746.198 1684.35 746.198C1683.31 746.198 1682.36 745.934 1681.49 745.406C1680.64 744.863 1679.96 744.115 1679.45 743.162C1678.95 742.194 1678.7 741.101 1678.7 739.884ZM1688.62 739.928C1688.62 739.092 1688.44 738.366 1688.09 737.75C1687.76 737.134 1687.31 736.665 1686.75 736.342C1686.19 736.019 1685.59 735.858 1684.95 735.858C1684.3 735.858 1683.7 736.019 1683.14 736.342C1682.59 736.65 1682.13 737.112 1681.78 737.728C1681.44 738.329 1681.27 739.048 1681.27 739.884C1681.27 740.72 1681.44 741.453 1681.78 742.084C1682.13 742.715 1682.59 743.199 1683.14 743.536C1683.71 743.859 1684.32 744.02 1684.95 744.02C1685.59 744.02 1686.19 743.859 1686.75 743.536C1687.31 743.213 1687.76 742.744 1688.09 742.128C1688.44 741.497 1688.62 740.764 1688.62 739.928ZM1705.42 733.878V746H1702.91V744.57C1702.52 745.069 1702 745.465 1701.35 745.758C1700.72 746.037 1700.05 746.176 1699.33 746.176C1698.38 746.176 1697.52 745.978 1696.75 745.582C1696.01 745.186 1695.41 744.599 1694.97 743.822C1694.55 743.045 1694.33 742.106 1694.33 741.006V733.878H1696.82V740.632C1696.82 741.717 1697.09 742.553 1697.63 743.14C1698.18 743.712 1698.92 743.998 1699.86 743.998C1700.8 743.998 1701.54 743.712 1702.08 743.14C1702.64 742.553 1702.91 741.717 1702.91 740.632V733.878H1705.42ZM1719.84 739.642C1719.84 740.097 1719.81 740.507 1719.75 740.874H1710.49C1710.57 741.842 1710.92 742.619 1711.57 743.206C1712.22 743.793 1713.01 744.086 1713.95 744.086C1715.3 744.086 1716.25 743.521 1716.81 742.392H1719.51C1719.15 743.507 1718.48 744.423 1717.51 745.142C1716.56 745.846 1715.37 746.198 1713.95 746.198C1712.79 746.198 1711.75 745.941 1710.82 745.428C1709.91 744.9 1709.19 744.167 1708.67 743.228C1708.15 742.275 1707.9 741.175 1707.9 739.928C1707.9 738.681 1708.15 737.589 1708.64 736.65C1709.16 735.697 1709.87 734.963 1710.78 734.45C1711.7 733.937 1712.76 733.68 1713.95 733.68C1715.09 733.68 1716.11 733.929 1717 734.428C1717.9 734.927 1718.6 735.631 1719.09 736.54C1719.59 737.435 1719.84 738.469 1719.84 739.642ZM1717.22 738.85C1717.21 737.926 1716.88 737.185 1716.23 736.628C1715.59 736.071 1714.79 735.792 1713.84 735.792C1712.97 735.792 1712.23 736.071 1711.61 736.628C1711 737.171 1710.63 737.911 1710.51 738.85H1717.22ZM1724.82 735.638C1725.18 735.022 1725.67 734.545 1726.27 734.208C1726.89 733.856 1727.61 733.68 1728.45 733.68V736.276H1727.81C1726.83 736.276 1726.08 736.525 1725.57 737.024C1725.07 737.523 1724.82 738.388 1724.82 739.62V746H1722.31V733.878H1724.82V735.638ZM1594.49 765.884C1594.49 764.667 1594.74 763.589 1595.24 762.65C1595.75 761.711 1596.44 760.985 1597.31 760.472C1598.19 759.944 1599.16 759.68 1600.23 759.68C1601.02 759.68 1601.8 759.856 1602.56 760.208C1603.34 760.545 1603.96 761 1604.41 761.572V755.72H1606.94V772H1604.41V770.174C1604 770.761 1603.43 771.245 1602.7 771.626C1601.98 772.007 1601.15 772.198 1600.21 772.198C1599.15 772.198 1598.19 771.934 1597.31 771.406C1596.44 770.863 1595.75 770.115 1595.24 769.162C1594.74 768.194 1594.49 767.101 1594.49 765.884ZM1604.41 765.928C1604.41 765.092 1604.24 764.366 1603.88 763.75C1603.55 763.134 1603.1 762.665 1602.54 762.342C1601.99 762.019 1601.38 761.858 1600.74 761.858C1600.09 761.858 1599.49 762.019 1598.93 762.342C1598.38 762.65 1597.92 763.112 1597.57 763.728C1597.23 764.329 1597.06 765.048 1597.06 765.884C1597.06 766.72 1597.23 767.453 1597.57 768.084C1597.92 768.715 1598.38 769.199 1598.93 769.536C1599.51 769.859 1600.11 770.02 1600.74 770.02C1601.38 770.02 1601.99 769.859 1602.54 769.536C1603.1 769.213 1603.55 768.744 1603.88 768.128C1604.24 767.497 1604.41 766.764 1604.41 765.928ZM1611.51 758.272C1611.06 758.272 1610.68 758.118 1610.37 757.81C1610.06 757.502 1609.91 757.121 1609.91 756.666C1609.91 756.211 1610.06 755.83 1610.37 755.522C1610.68 755.214 1611.06 755.06 1611.51 755.06C1611.95 755.06 1612.33 755.214 1612.63 755.522C1612.94 755.83 1613.1 756.211 1613.1 756.666C1613.1 757.121 1612.94 757.502 1612.63 757.81C1612.33 758.118 1611.95 758.272 1611.51 758.272ZM1612.74 759.878V772H1610.24V759.878H1612.74ZM1620.44 772.198C1619.48 772.198 1618.63 772.029 1617.86 771.692C1617.12 771.34 1616.52 770.871 1616.08 770.284C1615.64 769.683 1615.41 769.015 1615.38 768.282H1617.97C1618.02 768.795 1618.26 769.228 1618.7 769.58C1619.15 769.917 1619.72 770.086 1620.39 770.086C1621.1 770.086 1621.64 769.954 1622.02 769.69C1622.42 769.411 1622.62 769.059 1622.62 768.634C1622.62 768.179 1622.4 767.842 1621.96 767.622C1621.53 767.402 1620.85 767.16 1619.91 766.896C1619 766.647 1618.26 766.405 1617.69 766.17C1617.12 765.935 1616.62 765.576 1616.19 765.092C1615.78 764.608 1615.58 763.97 1615.58 763.178C1615.58 762.533 1615.77 761.946 1616.15 761.418C1616.53 760.875 1617.07 760.45 1617.78 760.142C1618.49 759.834 1619.32 759.68 1620.24 759.68C1621.62 759.68 1622.73 760.032 1623.56 760.736C1624.41 761.425 1624.87 762.371 1624.93 763.574H1622.42C1622.37 763.031 1622.15 762.599 1621.76 762.276C1621.36 761.953 1620.83 761.792 1620.15 761.792C1619.49 761.792 1618.99 761.917 1618.63 762.166C1618.28 762.415 1618.11 762.745 1618.11 763.156C1618.11 763.479 1618.22 763.75 1618.46 763.97C1618.69 764.19 1618.98 764.366 1619.32 764.498C1619.65 764.615 1620.15 764.769 1620.81 764.96C1621.69 765.195 1622.41 765.437 1622.97 765.686C1623.54 765.921 1624.03 766.273 1624.44 766.742C1624.85 767.211 1625.07 767.835 1625.08 768.612C1625.08 769.301 1624.89 769.917 1624.51 770.46C1624.13 771.003 1623.58 771.428 1622.88 771.736C1622.19 772.044 1621.38 772.198 1620.44 772.198ZM1630.3 761.66C1630.72 761.103 1631.3 760.633 1632.04 760.252C1632.77 759.871 1633.6 759.68 1634.52 759.68C1635.58 759.68 1636.54 759.944 1637.4 760.472C1638.28 760.985 1638.97 761.711 1639.47 762.65C1639.97 763.589 1640.22 764.667 1640.22 765.884C1640.22 767.101 1639.97 768.194 1639.47 769.162C1638.97 770.115 1638.28 770.863 1637.4 771.406C1636.54 771.934 1635.58 772.198 1634.52 772.198C1633.6 772.198 1632.78 772.015 1632.06 771.648C1631.34 771.267 1630.75 770.797 1630.3 770.24V777.764H1627.79V759.878H1630.3V761.66ZM1637.67 765.884C1637.67 765.048 1637.49 764.329 1637.14 763.728C1636.8 763.112 1636.35 762.65 1635.78 762.342C1635.22 762.019 1634.62 761.858 1633.97 761.858C1633.34 761.858 1632.74 762.019 1632.17 762.342C1631.61 762.665 1631.16 763.134 1630.8 763.75C1630.47 764.366 1630.3 765.092 1630.3 765.928C1630.3 766.764 1630.47 767.497 1630.8 768.128C1631.16 768.744 1631.61 769.213 1632.17 769.536C1632.74 769.859 1633.34 770.02 1633.97 770.02C1634.62 770.02 1635.22 769.859 1635.78 769.536C1636.35 769.199 1636.8 768.715 1637.14 768.084C1637.49 767.453 1637.67 766.72 1637.67 765.884ZM1647.96 772.198C1646.81 772.198 1645.78 771.941 1644.86 771.428C1643.93 770.9 1643.21 770.167 1642.68 769.228C1642.15 768.275 1641.89 767.175 1641.89 765.928C1641.89 764.696 1642.16 763.603 1642.7 762.65C1643.24 761.697 1643.98 760.963 1644.92 760.45C1645.86 759.937 1646.91 759.68 1648.07 759.68C1649.23 759.68 1650.28 759.937 1651.21 760.45C1652.15 760.963 1652.89 761.697 1653.44 762.65C1653.98 763.603 1654.25 764.696 1654.25 765.928C1654.25 767.16 1653.97 768.253 1653.41 769.206C1652.86 770.159 1652.09 770.9 1651.13 771.428C1650.17 771.941 1649.12 772.198 1647.96 772.198ZM1647.96 770.02C1648.6 770.02 1649.2 769.866 1649.76 769.558C1650.33 769.25 1650.8 768.788 1651.15 768.172C1651.5 767.556 1651.68 766.808 1651.68 765.928C1651.68 765.048 1651.51 764.307 1651.17 763.706C1650.83 763.09 1650.39 762.628 1649.83 762.32C1649.27 762.012 1648.67 761.858 1648.02 761.858C1647.38 761.858 1646.78 762.012 1646.22 762.32C1645.68 762.628 1645.24 763.09 1644.92 763.706C1644.6 764.307 1644.44 765.048 1644.44 765.928C1644.44 767.233 1644.77 768.245 1645.43 768.964C1646.1 769.668 1646.95 770.02 1647.96 770.02ZM1661.13 772.198C1660.18 772.198 1659.32 772.029 1658.56 771.692C1657.81 771.34 1657.21 770.871 1656.77 770.284C1656.33 769.683 1656.1 769.015 1656.07 768.282H1658.67C1658.71 768.795 1658.95 769.228 1659.39 769.58C1659.85 769.917 1660.41 770.086 1661.09 770.086C1661.79 770.086 1662.33 769.954 1662.71 769.69C1663.11 769.411 1663.31 769.059 1663.31 768.634C1663.31 768.179 1663.09 767.842 1662.65 767.622C1662.22 767.402 1661.54 767.16 1660.6 766.896C1659.69 766.647 1658.95 766.405 1658.38 766.17C1657.81 765.935 1657.31 765.576 1656.88 765.092C1656.47 764.608 1656.27 763.97 1656.27 763.178C1656.27 762.533 1656.46 761.946 1656.84 761.418C1657.22 760.875 1657.76 760.45 1658.47 760.142C1659.19 759.834 1660.01 759.68 1660.93 759.68C1662.31 759.68 1663.42 760.032 1664.25 760.736C1665.1 761.425 1665.56 762.371 1665.62 763.574H1663.11C1663.07 763.031 1662.85 762.599 1662.45 762.276C1662.05 761.953 1661.52 761.792 1660.84 761.792C1660.18 761.792 1659.68 761.917 1659.33 762.166C1658.97 762.415 1658.8 762.745 1658.8 763.156C1658.8 763.479 1658.91 763.75 1659.15 763.97C1659.38 764.19 1659.67 764.366 1660.01 764.498C1660.34 764.615 1660.84 764.769 1661.5 764.96C1662.38 765.195 1663.1 765.437 1663.66 765.686C1664.23 765.921 1664.72 766.273 1665.13 766.742C1665.54 767.211 1665.76 767.835 1665.77 768.612C1665.77 769.301 1665.58 769.917 1665.2 770.46C1664.82 771.003 1664.28 771.428 1663.57 771.736C1662.88 772.044 1662.07 772.198 1661.13 772.198ZM1669.76 758.272C1669.3 758.272 1668.92 758.118 1668.61 757.81C1668.31 757.502 1668.15 757.121 1668.15 756.666C1668.15 756.211 1668.31 755.83 1668.61 755.522C1668.92 755.214 1669.3 755.06 1669.76 755.06C1670.2 755.06 1670.57 755.214 1670.88 755.522C1671.19 755.83 1671.34 756.211 1671.34 756.666C1671.34 757.121 1671.19 757.502 1670.88 757.81C1670.57 758.118 1670.2 758.272 1669.76 758.272ZM1670.99 759.878V772H1668.48V759.878H1670.99ZM1677.21 761.924V768.634C1677.21 769.089 1677.31 769.419 1677.52 769.624C1677.74 769.815 1678.1 769.91 1678.62 769.91H1680.16V772H1678.18C1677.05 772 1676.18 771.736 1675.58 771.208C1674.98 770.68 1674.68 769.822 1674.68 768.634V761.924H1673.25V759.878H1674.68V756.864H1677.21V759.878H1680.16V761.924H1677.21ZM1683.74 758.272C1683.29 758.272 1682.91 758.118 1682.6 757.81C1682.29 757.502 1682.14 757.121 1682.14 756.666C1682.14 756.211 1682.29 755.83 1682.6 755.522C1682.91 755.214 1683.29 755.06 1683.74 755.06C1684.18 755.06 1684.56 755.214 1684.87 755.522C1685.17 755.83 1685.33 756.211 1685.33 756.666C1685.33 757.121 1685.17 757.502 1684.87 757.81C1684.56 758.118 1684.18 758.272 1683.74 758.272ZM1684.98 759.878V772H1682.47V759.878H1684.98ZM1692.95 769.756L1696.39 759.878H1699.05L1694.43 772H1691.44L1686.84 759.878H1689.52L1692.95 769.756ZM1706.2 772.198C1705.06 772.198 1704.02 771.941 1703.1 771.428C1702.18 770.9 1701.45 770.167 1700.92 769.228C1700.39 768.275 1700.13 767.175 1700.13 765.928C1700.13 764.696 1700.4 763.603 1700.94 762.65C1701.49 761.697 1702.23 760.963 1703.17 760.45C1704.1 759.937 1705.15 759.68 1706.31 759.68C1707.47 759.68 1708.52 759.937 1709.46 760.45C1710.4 760.963 1711.14 761.697 1711.68 762.65C1712.22 763.603 1712.49 764.696 1712.49 765.928C1712.49 767.16 1712.22 768.253 1711.66 769.206C1711.1 770.159 1710.34 770.9 1709.37 771.428C1708.42 771.941 1707.36 772.198 1706.2 772.198ZM1706.2 770.02C1706.85 770.02 1707.45 769.866 1708.01 769.558C1708.58 769.25 1709.04 768.788 1709.39 768.172C1709.74 767.556 1709.92 766.808 1709.92 765.928C1709.92 765.048 1709.75 764.307 1709.41 763.706C1709.08 763.09 1708.63 762.628 1708.07 762.32C1707.51 762.012 1706.91 761.858 1706.27 761.858C1705.62 761.858 1705.02 762.012 1704.46 762.32C1703.92 762.628 1703.49 763.09 1703.17 763.706C1702.84 764.307 1702.68 765.048 1702.68 765.928C1702.68 767.233 1703.01 768.245 1703.67 768.964C1704.35 769.668 1705.19 770.02 1706.2 770.02Z" fill="white"/>
<path d="M1699.63 267.734V272.222H1704.91V274.268H1699.63V278.954H1705.57V281H1697.12V265.688H1705.57V267.734H1699.63ZM1714.77 268.68C1715.73 268.68 1716.58 268.878 1717.32 269.274C1718.09 269.67 1718.68 270.257 1719.11 271.034C1719.53 271.811 1719.74 272.75 1719.74 273.85V281H1717.26V274.224C1717.26 273.139 1716.99 272.31 1716.44 271.738C1715.9 271.151 1715.16 270.858 1714.22 270.858C1713.28 270.858 1712.54 271.151 1711.98 271.738C1711.44 272.31 1711.16 273.139 1711.16 274.224V281H1708.66V268.878H1711.16V270.264C1711.58 269.765 1712.1 269.377 1712.73 269.098C1713.37 268.819 1714.05 268.68 1714.77 268.68ZM1722.11 274.928C1722.11 273.681 1722.36 272.589 1722.86 271.65C1723.37 270.697 1724.07 269.963 1724.97 269.45C1725.86 268.937 1726.89 268.68 1728.05 268.68C1729.51 268.68 1730.72 269.032 1731.68 269.736C1732.65 270.425 1733.3 271.415 1733.64 272.706H1730.93C1730.71 272.105 1730.36 271.635 1729.87 271.298C1729.39 270.961 1728.78 270.792 1728.05 270.792C1727.02 270.792 1726.2 271.159 1725.58 271.892C1724.98 272.611 1724.68 273.623 1724.68 274.928C1724.68 276.233 1724.98 277.253 1725.58 277.986C1726.2 278.719 1727.02 279.086 1728.05 279.086C1729.5 279.086 1730.46 278.448 1730.93 277.172H1733.64C1733.28 278.404 1732.62 279.387 1731.66 280.12C1730.69 280.839 1729.49 281.198 1728.05 281.198C1726.89 281.198 1725.86 280.941 1724.97 280.428C1724.07 279.9 1723.37 279.167 1722.86 278.228C1722.36 277.275 1722.11 276.175 1722.11 274.928ZM1735.3 274.884C1735.3 273.667 1735.55 272.589 1736.05 271.65C1736.56 270.711 1737.25 269.985 1738.12 269.472C1739 268.944 1739.96 268.68 1741.02 268.68C1741.97 268.68 1742.8 268.871 1743.51 269.252C1744.22 269.619 1744.8 270.081 1745.22 270.638V268.878H1747.75V281H1745.22V279.196C1744.8 279.768 1744.22 280.245 1743.48 280.626C1742.75 281.007 1741.91 281.198 1740.98 281.198C1739.93 281.198 1738.98 280.934 1738.12 280.406C1737.25 279.863 1736.56 279.115 1736.05 278.162C1735.55 277.194 1735.3 276.101 1735.3 274.884ZM1745.22 274.928C1745.22 274.092 1745.05 273.366 1744.69 272.75C1744.36 272.134 1743.91 271.665 1743.35 271.342C1742.79 271.019 1742.19 270.858 1741.55 270.858C1740.9 270.858 1740.3 271.019 1739.74 271.342C1739.19 271.65 1738.73 272.112 1738.38 272.728C1738.04 273.329 1737.87 274.048 1737.87 274.884C1737.87 275.72 1738.04 276.453 1738.38 277.084C1738.73 277.715 1739.19 278.199 1739.74 278.536C1740.32 278.859 1740.92 279.02 1741.55 279.02C1742.19 279.02 1742.79 278.859 1743.35 278.536C1743.91 278.213 1744.36 277.744 1744.69 277.128C1745.05 276.497 1745.22 275.764 1745.22 274.928ZM1757.16 268.68C1758.11 268.68 1758.97 268.878 1759.71 269.274C1760.48 269.67 1761.07 270.257 1761.5 271.034C1761.92 271.811 1762.13 272.75 1762.13 273.85V281H1759.65V274.224C1759.65 273.139 1759.38 272.31 1758.83 271.738C1758.29 271.151 1757.55 270.858 1756.61 270.858C1755.67 270.858 1754.92 271.151 1754.37 271.738C1753.82 272.31 1753.55 273.139 1753.55 274.224V281H1751.05V268.878H1753.55V270.264C1753.96 269.765 1754.48 269.377 1755.12 269.098C1755.76 268.819 1756.44 268.68 1757.16 268.68ZM1768.26 270.924V277.634C1768.26 278.089 1768.36 278.419 1768.57 278.624C1768.79 278.815 1769.15 278.91 1769.67 278.91H1771.21V281H1769.23C1768.1 281 1767.23 280.736 1766.63 280.208C1766.03 279.68 1765.73 278.822 1765.73 277.634V270.924H1764.3V268.878H1765.73V265.864H1768.26V268.878H1771.21V270.924H1768.26ZM1784.63 274.642C1784.63 275.097 1784.6 275.507 1784.54 275.874H1775.28C1775.35 276.842 1775.71 277.619 1776.36 278.206C1777 278.793 1777.79 279.086 1778.73 279.086C1780.08 279.086 1781.03 278.521 1781.59 277.392H1784.3C1783.93 278.507 1783.26 279.423 1782.3 280.142C1781.34 280.846 1780.15 281.198 1778.73 281.198C1777.57 281.198 1776.53 280.941 1775.61 280.428C1774.7 279.9 1773.98 279.167 1773.45 278.228C1772.94 277.275 1772.68 276.175 1772.68 274.928C1772.68 273.681 1772.93 272.589 1773.43 271.65C1773.94 270.697 1774.65 269.963 1775.56 269.45C1776.49 268.937 1777.54 268.68 1778.73 268.68C1779.88 268.68 1780.9 268.929 1781.79 269.428C1782.68 269.927 1783.38 270.631 1783.88 271.54C1784.38 272.435 1784.63 273.469 1784.63 274.642ZM1782.01 273.85C1782 272.926 1781.67 272.185 1781.02 271.628C1780.37 271.071 1779.58 270.792 1778.62 270.792C1777.76 270.792 1777.02 271.071 1776.4 271.628C1775.78 272.171 1775.42 272.911 1775.3 273.85H1782.01ZM1797.21 281.198C1796.26 281.198 1795.4 281.029 1794.64 280.692C1793.89 280.34 1793.3 279.871 1792.86 279.284C1792.42 278.683 1792.18 278.015 1792.15 277.282H1794.75C1794.79 277.795 1795.03 278.228 1795.47 278.58C1795.93 278.917 1796.49 279.086 1797.17 279.086C1797.87 279.086 1798.41 278.954 1798.8 278.69C1799.19 278.411 1799.39 278.059 1799.39 277.634C1799.39 277.179 1799.17 276.842 1798.73 276.622C1798.3 276.402 1797.62 276.16 1796.68 275.896C1795.77 275.647 1795.03 275.405 1794.46 275.17C1793.89 274.935 1793.39 274.576 1792.97 274.092C1792.55 273.608 1792.35 272.97 1792.35 272.178C1792.35 271.533 1792.54 270.946 1792.92 270.418C1793.3 269.875 1793.85 269.45 1794.55 269.142C1795.27 268.834 1796.09 268.68 1797.01 268.68C1798.39 268.68 1799.5 269.032 1800.34 269.736C1801.19 270.425 1801.64 271.371 1801.7 272.574H1799.19C1799.15 272.031 1798.93 271.599 1798.53 271.276C1798.14 270.953 1797.6 270.792 1796.93 270.792C1796.27 270.792 1795.76 270.917 1795.41 271.166C1795.06 271.415 1794.88 271.745 1794.88 272.156C1794.88 272.479 1795 272.75 1795.23 272.97C1795.47 273.19 1795.75 273.366 1796.09 273.498C1796.43 273.615 1796.93 273.769 1797.59 273.96C1798.47 274.195 1799.18 274.437 1799.74 274.686C1800.31 274.921 1800.8 275.273 1801.22 275.742C1801.63 276.211 1801.84 276.835 1801.85 277.612C1801.85 278.301 1801.66 278.917 1801.28 279.46C1800.9 280.003 1800.36 280.428 1799.65 280.736C1798.96 281.044 1798.15 281.198 1797.21 281.198ZM1815.67 274.642C1815.67 275.097 1815.64 275.507 1815.59 275.874H1806.32C1806.4 276.842 1806.76 277.619 1807.4 278.206C1808.05 278.793 1808.84 279.086 1809.78 279.086C1811.13 279.086 1812.08 278.521 1812.64 277.392H1815.34C1814.98 278.507 1814.31 279.423 1813.34 280.142C1812.39 280.846 1811.2 281.198 1809.78 281.198C1808.62 281.198 1807.58 280.941 1806.65 280.428C1805.74 279.9 1805.03 279.167 1804.5 278.228C1803.98 277.275 1803.73 276.175 1803.73 274.928C1803.73 273.681 1803.98 272.589 1804.48 271.65C1804.99 270.697 1805.7 269.963 1806.61 269.45C1807.53 268.937 1808.59 268.68 1809.78 268.68C1810.92 268.68 1811.94 268.929 1812.84 269.428C1813.73 269.927 1814.43 270.631 1814.93 271.54C1815.42 272.435 1815.67 273.469 1815.67 274.642ZM1813.06 273.85C1813.04 272.926 1812.71 272.185 1812.07 271.628C1811.42 271.071 1810.62 270.792 1809.67 270.792C1808.8 270.792 1808.06 271.071 1807.45 271.628C1806.83 272.171 1806.46 272.911 1806.35 273.85H1813.06ZM1829.12 268.878V281H1826.61V279.57C1826.22 280.069 1825.69 280.465 1825.05 280.758C1824.42 281.037 1823.74 281.176 1823.03 281.176C1822.07 281.176 1821.21 280.978 1820.45 280.582C1819.7 280.186 1819.11 279.599 1818.67 278.822C1818.24 278.045 1818.03 277.106 1818.03 276.006V268.878H1820.52V275.632C1820.52 276.717 1820.79 277.553 1821.33 278.14C1821.87 278.712 1822.61 278.998 1823.55 278.998C1824.49 278.998 1825.23 278.712 1825.78 278.14C1826.33 277.553 1826.61 276.717 1826.61 275.632V268.878H1829.12ZM1836.83 281.198C1835.87 281.198 1835.02 281.029 1834.25 280.692C1833.51 280.34 1832.91 279.871 1832.47 279.284C1832.03 278.683 1831.8 278.015 1831.77 277.282H1834.36C1834.41 277.795 1834.65 278.228 1835.09 278.58C1835.54 278.917 1836.11 279.086 1836.78 279.086C1837.49 279.086 1838.03 278.954 1838.41 278.69C1838.81 278.411 1839.01 278.059 1839.01 277.634C1839.01 277.179 1838.79 276.842 1838.35 276.622C1837.92 276.402 1837.24 276.16 1836.3 275.896C1835.39 275.647 1834.65 275.405 1834.08 275.17C1833.51 274.935 1833.01 274.576 1832.58 274.092C1832.17 273.608 1831.97 272.97 1831.97 272.178C1831.97 271.533 1832.16 270.946 1832.54 270.418C1832.92 269.875 1833.46 269.45 1834.17 269.142C1834.88 268.834 1835.71 268.68 1836.63 268.68C1838.01 268.68 1839.12 269.032 1839.95 269.736C1840.8 270.425 1841.26 271.371 1841.32 272.574H1838.81C1838.76 272.031 1838.54 271.599 1838.15 271.276C1837.75 270.953 1837.22 270.792 1836.54 270.792C1835.88 270.792 1835.38 270.917 1835.02 271.166C1834.67 271.415 1834.5 271.745 1834.5 272.156C1834.5 272.479 1834.61 272.75 1834.85 272.97C1835.08 273.19 1835.37 273.366 1835.71 273.498C1836.04 273.615 1836.54 273.769 1837.2 273.96C1838.08 274.195 1838.8 274.437 1839.36 274.686C1839.93 274.921 1840.42 275.273 1840.83 275.742C1841.24 276.211 1841.46 276.835 1841.47 277.612C1841.47 278.301 1841.28 278.917 1840.9 279.46C1840.52 280.003 1839.97 280.428 1839.27 280.736C1838.58 281.044 1837.77 281.198 1836.83 281.198ZM1726.73 300.928C1726.73 299.681 1726.98 298.589 1727.48 297.65C1727.99 296.697 1728.69 295.963 1729.59 295.45C1730.48 294.937 1731.51 294.68 1732.67 294.68C1734.13 294.68 1735.34 295.032 1736.3 295.736C1737.27 296.425 1737.92 297.415 1738.26 298.706H1735.55C1735.33 298.105 1734.98 297.635 1734.49 297.298C1734.01 296.961 1733.4 296.792 1732.67 296.792C1731.64 296.792 1730.82 297.159 1730.2 297.892C1729.6 298.611 1729.3 299.623 1729.3 300.928C1729.3 302.233 1729.6 303.253 1730.2 303.986C1730.82 304.719 1731.64 305.086 1732.67 305.086C1734.12 305.086 1735.08 304.448 1735.55 303.172H1738.26C1737.9 304.404 1737.24 305.387 1736.28 306.12C1735.31 306.839 1734.1 307.198 1732.67 307.198C1731.51 307.198 1730.48 306.941 1729.59 306.428C1728.69 305.9 1727.99 305.167 1727.48 304.228C1726.98 303.275 1726.73 302.175 1726.73 300.928ZM1743.26 290.72V307H1740.75V290.72H1743.26ZM1747.83 293.272C1747.38 293.272 1747 293.118 1746.69 292.81C1746.38 292.502 1746.23 292.121 1746.23 291.666C1746.23 291.211 1746.38 290.83 1746.69 290.522C1747 290.214 1747.38 290.06 1747.83 290.06C1748.27 290.06 1748.65 290.214 1748.95 290.522C1749.26 290.83 1749.42 291.211 1749.42 291.666C1749.42 292.121 1749.26 292.502 1748.95 292.81C1748.65 293.118 1748.27 293.272 1747.83 293.272ZM1749.06 294.878V307H1746.56V294.878H1749.06ZM1763.47 300.642C1763.47 301.097 1763.44 301.507 1763.38 301.874H1754.12C1754.19 302.842 1754.55 303.619 1755.19 304.206C1755.84 304.793 1756.63 305.086 1757.57 305.086C1758.92 305.086 1759.87 304.521 1760.43 303.392H1763.14C1762.77 304.507 1762.1 305.423 1761.13 306.142C1760.18 306.846 1758.99 307.198 1757.57 307.198C1756.41 307.198 1755.37 306.941 1754.45 306.428C1753.54 305.9 1752.82 305.167 1752.29 304.228C1751.78 303.275 1751.52 302.175 1751.52 300.928C1751.52 299.681 1751.77 298.589 1752.27 297.65C1752.78 296.697 1753.49 295.963 1754.4 295.45C1755.33 294.937 1756.38 294.68 1757.57 294.68C1758.71 294.68 1759.73 294.929 1760.63 295.428C1761.52 295.927 1762.22 296.631 1762.72 297.54C1763.22 298.435 1763.47 299.469 1763.47 300.642ZM1760.85 299.85C1760.83 298.926 1760.5 298.185 1759.86 297.628C1759.21 297.071 1758.41 296.792 1757.46 296.792C1756.59 296.792 1755.85 297.071 1755.24 297.628C1754.62 298.171 1754.26 298.911 1754.14 299.85H1760.85ZM1772.05 294.68C1773 294.68 1773.85 294.878 1774.6 295.274C1775.36 295.67 1775.96 296.257 1776.38 297.034C1776.81 297.811 1777.02 298.75 1777.02 299.85V307H1774.54V300.224C1774.54 299.139 1774.26 298.31 1773.72 297.738C1773.18 297.151 1772.44 296.858 1771.5 296.858C1770.56 296.858 1769.81 297.151 1769.26 297.738C1768.71 298.31 1768.44 299.139 1768.44 300.224V307H1765.93V294.878H1768.44V296.264C1768.85 295.765 1769.37 295.377 1770 295.098C1770.65 294.819 1771.33 294.68 1772.05 294.68ZM1783.15 296.924V303.634C1783.15 304.089 1783.25 304.419 1783.46 304.624C1783.68 304.815 1784.04 304.91 1784.56 304.91H1786.1V307H1784.12C1782.99 307 1782.12 306.736 1781.52 306.208C1780.92 305.68 1780.62 304.822 1780.62 303.634V296.924H1779.19V294.878H1780.62V291.864H1783.15V294.878H1786.1V296.924H1783.15ZM1799.52 300.642C1799.52 301.097 1799.49 301.507 1799.43 301.874H1790.17C1790.24 302.842 1790.6 303.619 1791.24 304.206C1791.89 304.793 1792.68 305.086 1793.62 305.086C1794.97 305.086 1795.92 304.521 1796.48 303.392H1799.19C1798.82 304.507 1798.15 305.423 1797.18 306.142C1796.23 306.846 1795.04 307.198 1793.62 307.198C1792.46 307.198 1791.42 306.941 1790.5 306.428C1789.59 305.9 1788.87 305.167 1788.34 304.228C1787.83 303.275 1787.57 302.175 1787.57 300.928C1787.57 299.681 1787.82 298.589 1788.32 297.65C1788.83 296.697 1789.54 295.963 1790.45 295.45C1791.38 294.937 1792.43 294.68 1793.62 294.68C1794.76 294.68 1795.78 294.929 1796.68 295.428C1797.57 295.927 1798.27 296.631 1798.77 297.54C1799.27 298.435 1799.52 299.469 1799.52 300.642ZM1796.9 299.85C1796.88 298.926 1796.55 298.185 1795.91 297.628C1795.26 297.071 1794.46 296.792 1793.51 296.792C1792.65 296.792 1791.9 297.071 1791.29 297.628C1790.67 298.171 1790.31 298.911 1790.19 299.85H1796.9ZM1806.38 307.198C1805.43 307.198 1804.57 307.029 1803.81 306.692C1803.06 306.34 1802.47 305.871 1802.03 305.284C1801.59 304.683 1801.35 304.015 1801.32 303.282H1803.92C1803.96 303.795 1804.21 304.228 1804.65 304.58C1805.1 304.917 1805.67 305.086 1806.34 305.086C1807.04 305.086 1807.59 304.954 1807.97 304.69C1808.36 304.411 1808.56 304.059 1808.56 303.634C1808.56 303.179 1808.34 302.842 1807.9 302.622C1807.48 302.402 1806.8 302.16 1805.86 301.896C1804.95 301.647 1804.21 301.405 1803.63 301.17C1803.06 300.935 1802.56 300.576 1802.14 300.092C1801.73 299.608 1801.52 298.97 1801.52 298.178C1801.52 297.533 1801.71 296.946 1802.09 296.418C1802.48 295.875 1803.02 295.45 1803.72 295.142C1804.44 294.834 1805.26 294.68 1806.19 294.68C1807.57 294.68 1808.67 295.032 1809.51 295.736C1810.36 296.425 1810.81 297.371 1810.87 298.574H1808.36C1808.32 298.031 1808.1 297.599 1807.7 297.276C1807.31 296.953 1806.77 296.792 1806.1 296.792C1805.44 296.792 1804.93 296.917 1804.58 297.166C1804.23 297.415 1804.05 297.745 1804.05 298.156C1804.05 298.479 1804.17 298.75 1804.4 298.97C1804.64 299.19 1804.93 299.366 1805.26 299.498C1805.6 299.615 1806.1 299.769 1806.76 299.96C1807.64 300.195 1808.36 300.437 1808.91 300.686C1809.49 300.921 1809.98 301.273 1810.39 301.742C1810.8 302.211 1811.01 302.835 1811.03 303.612C1811.03 304.301 1810.84 304.917 1810.45 305.46C1810.07 306.003 1809.53 306.428 1808.83 306.736C1808.14 307.044 1807.32 307.198 1806.38 307.198Z" fill="white"/>
<path d="M1391 352.75L1366.83 323.75L1374.08 309.25H1407.92L1415.17 323.75L1391 352.75ZM1385.26 321.333H1396.74L1393.12 314.083H1388.89L1385.26 321.333ZM1388.58 342.298V326.167H1375.17L1388.58 342.298ZM1393.42 342.298L1406.83 326.167H1393.42V342.298ZM1402.12 321.333H1408.52L1404.9 314.083H1398.49L1402.12 321.333ZM1373.48 321.333H1379.88L1383.51 314.083H1377.1L1373.48 321.333Z" fill="#BCBCBC"/>
<path d="M1852 177H1839L1852 187V177Z" fill="#515151"/>
<path d="M1734 620H1721L1734 630V620Z" fill="#515151"/>
<path d="M1480 275H1467L1480 285V275Z" fill="#515151"/>
<path d="M1750.67 241C1749.38 241 1748.28 240.543 1747.37 239.629C1746.46 238.715 1746 237.617 1746 236.333V203.667C1746 202.383 1746.46 201.285 1747.37 200.371C1748.28 199.457 1749.38 199 1750.67 199H1783.33C1784.62 199 1785.72 199.457 1786.63 200.371C1787.54 201.285 1788 202.383 1788 203.667V236.333C1788 237.617 1787.54 238.715 1786.63 239.629C1785.72 240.543 1784.62 241 1783.33 241H1750.67ZM1753 221.342L1762.33 212.008L1771.67 221.342L1781 212.008L1783.33 214.342V203.667H1750.67V219.008L1753 221.342ZM1750.67 236.333H1783.33V220.933L1781 218.6L1771.67 227.933L1762.33 218.6L1753 227.933L1750.67 225.6V236.333ZM1750.67 236.333V220.933V225.6V203.667V236.333Z" fill="#BCBCBC"/>
<path d="M1634.67 688.794C1633.45 688.794 1632.41 688.362 1631.55 687.497C1630.68 686.632 1630.25 685.592 1630.25 684.378V675.544H1634.67V677.753H1656.75V651.253H1634.67V653.461H1630.25V644.628C1630.25 643.413 1630.68 642.373 1631.55 641.508C1632.41 640.643 1633.45 640.211 1634.67 640.211H1656.75C1657.96 640.211 1659 640.643 1659.87 641.508C1660.73 642.373 1661.17 643.413 1661.17 644.628V684.378C1661.17 685.592 1660.73 686.632 1659.87 687.497C1659 688.362 1657.96 688.794 1656.75 688.794H1634.67ZM1634.67 682.169V684.378H1656.75V682.169H1634.67ZM1626.72 675.544L1623.62 672.453L1635.99 660.086H1628.04V655.669H1643.5V671.128H1639.08V663.178L1626.72 675.544ZM1634.67 646.836H1656.75V644.628H1634.67V646.836Z" fill="#BCBCBC"/>
<defs>
<filter id="filter0_d_157_1638" x="1354" y="199" width="525" height="513" filterUnits="userSpaceOnUse" color-interpolation-filters="sRGB">
<feFlood flood-opacity="0" result="BackgroundImageFix"/>
<feColorMatrix in="SourceAlpha" type="matrix" values="0 0 0 0 0 0 0 0 0 0 0 0 0 0 0 0 0 0 127 0" result="hardAlpha"/>
<feOffset dx="10" dy="4"/>
<feGaussianBlur stdDeviation="2"/>
<feComposite in2="hardAlpha" operator="out"/>
<feColorMatrix type="matrix" values="0 0 0 0 0 0 0 0 0 0 0 0 0 0 0 0 0 0 0.15 0"/>
<feBlend mode="normal" in2="BackgroundImageFix" result="effect1_dropShadow_157_1638"/>
<feBlend mode="normal" in="SourceGraphic" in2="effect1_dropShadow_157_1638" result="shape"/>
</filter>
<linearGradient id="paint0_linear_157_1638" x1="-139.5" y1="-33" x2="255" y2="211" gradientUnits="userSpaceOnUse">
<stop stop-color="#D9D9D9" stop-opacity="0"/>
<stop offset="0.229296" stop-color="#5E2898" stop-opacity="0.23"/>
<stop offset="0.614583" stop-color="#5E2898"/>
<stop offset="1" stop-color="#DE32F4"/>
</linearGradient>
<linearGradient id="paint1_linear_157_1638" x1="-192.5" y1="7.00001" x2="202" y2="251" gradientUnits="userSpaceOnUse">
<stop stop-color="#D9D9D9" stop-opacity="0"/>
<stop offset="0.229296" stop-color="#5E2898" stop-opacity="0.23"/>
<stop offset="0.614583" stop-color="#5E2898"/>
<stop offset="1" stop-color="#DE32F4"/>
</linearGradient>
<linearGradient id="paint2_linear_157_1638" x1="-260.5" y1="43" x2="134" y2="287" gradientUnits="userSpaceOnUse">
<stop stop-color="#D9D9D9" stop-opacity="0"/>
<stop offset="0.229296" stop-color="#5E2898" stop-opacity="0.23"/>
<stop offset="0.614583" stop-color="#5E2898"/>
<stop offset="1" stop-color="#DE32F4"/>
</linearGradient>
<linearGradient id="paint3_linear_157_1638" x1="-332.5" y1="71" x2="62" y2="315" gradientUnits="userSpaceOnUse">
<stop stop-color="#D9D9D9" stop-opacity="0"/>
<stop offset="0.229296" stop-color="#5E2898" stop-opacity="0.23"/>
<stop offset="0.614583" stop-color="#5E2898"/>
<stop offset="1" stop-color="#DE32F4"/>
</linearGradient>
<linearGradient id="paint4_linear_157_1638" x1="1365.5" y1="199" x2="1784.58" y2="763.684" gradientUnits="userSpaceOnUse">
<stop offset="0.0183798" stop-color="#5E2898"/>
<stop offset="1" stop-color="#C71BDD"/>
</linearGradient>
<linearGradient id="paint5_linear_157_1638" x1="1233.29" y1="136.26" x2="1233.29" y2="285.563" gradientUnits="userSpaceOnUse">
<stop stop-color="#5E2898"/>
<stop offset="1" stop-color="#DE32F4"/>
</linearGradient>
</defs>
</svg>
