<svg width="611" height="502" viewBox="0 0 611 502" fill="none" xmlns="http://www.w3.org/2000/svg">
<path d="M68.9669 100.135C45.3541 131.879 30.1711 178.52 41.6856 217.586C61.3605 284.352 144.852 289.383 202.035 297.109C241.444 302.439 280.629 333.419 314.334 352.645C359.254 378.279 431.515 418.722 483.323 392.459C526.266 370.703 549.355 318.071 562.532 274.409C583.18 206.041 585.171 123.568 540.221 64.0046C479.04 -16.8511 372.011 -3.37518 283.085 10.4601C223.566 19.7286 165.709 28.7575 112.794 60.3062C95.7093 70.5733 80.8164 84.1077 68.9669 100.135Z" fill="#66359B"/>
<path opacity="0.4" d="M68.9669 100.135C45.3541 131.879 30.1711 178.52 41.6856 217.586C61.3605 284.352 144.852 289.383 202.035 297.109C241.444 302.439 280.629 333.419 314.334 352.645C359.254 378.279 431.515 418.722 483.323 392.459C526.266 370.703 549.355 318.071 562.532 274.409C583.18 206.041 585.171 123.568 540.221 64.0046C479.04 -16.8511 372.011 -3.37518 283.085 10.4601C223.566 19.7286 165.709 28.7575 112.794 60.3062C95.7093 70.5733 80.8164 84.1077 68.9669 100.135Z" fill="white"/>
<path d="M0 481.597C0 486.928 136.721 491.255 305.455 491.255C474.189 491.255 610.91 486.928 610.91 481.597C610.91 476.267 474.189 471.939 305.53 471.939C136.871 471.939 0 476.267 0 481.597Z" fill="#92E3A9"/>
<path opacity="0.6" d="M0 481.597C0 486.928 136.721 491.255 305.455 491.255C474.189 491.255 610.91 486.928 610.91 481.597C610.91 476.267 474.189 471.939 305.53 471.939C136.871 471.939 0 476.267 0 481.597Z" fill="white"/>
<path d="M339.924 3.2168H68.6824V347.273H339.924V3.2168Z" fill="white" stroke="#263238" stroke-width="0.75" stroke-linecap="round" stroke-linejoin="round"/>
<path d="M339.924 3.2168H68.6824V23.7452H339.924V3.2168Z" fill="#263238" stroke="#263238" stroke-width="0.75" stroke-linecap="round" stroke-linejoin="round"/>
<path d="M122.257 243.18H76.4087V340.491H122.257V243.18Z" fill="#92E3A9"/>
<path opacity="0.6" d="M122.257 243.18H76.4087V340.491H122.257V243.18Z" fill="white"/>
<path d="M172.253 243.18H126.404V340.491H172.253V243.18Z" fill="#92E3A9"/>
<path opacity="0.6" d="M172.253 243.18H126.404V340.491H172.253V243.18Z" fill="white"/>
<path d="M225.378 243.18H179.53V340.491H225.378V243.18Z" fill="#92E3A9"/>
<path opacity="0.6" d="M225.378 243.18H179.53V340.491H225.378V243.18Z" fill="white"/>
<path d="M278.488 243.18H232.64V340.491H278.488V243.18Z" fill="#92E3A9"/>
<path opacity="0.6" d="M278.488 243.18H232.64V340.491H278.488V243.18Z" fill="white"/>
<path d="M332.901 243.18H287.053V340.491H332.901V243.18Z" fill="white" stroke="#263238" stroke-width="0.75" stroke-linecap="round" stroke-linejoin="round"/>
<path d="M332.167 11.332H76.4236V34.915H332.167V11.332Z" fill="#92E3A9"/>
<path opacity="0.6" d="M332.167 11.332H76.4236V34.915H332.167V11.332Z" fill="white"/>
<path d="M328.574 15.9141H81.0205V26.3504H328.574V15.9141Z" fill="white"/>
<path d="M328.559 15.9141H300.529V26.3504H328.559V15.9141Z" fill="#263238" stroke="#263238" stroke-width="0.75" stroke-linecap="round" stroke-linejoin="round"/>
<path d="M190.25 56.0584H137.844C137.308 56.0584 136.794 55.8455 136.415 55.4664C136.035 55.0873 135.823 54.5731 135.823 54.037C135.823 53.5009 136.035 52.9868 136.415 52.6077C136.794 52.2286 137.308 52.0156 137.844 52.0156H190.25C190.787 52.0156 191.301 52.2286 191.68 52.6077C192.059 52.9868 192.272 53.5009 192.272 54.037C192.272 54.5731 192.059 55.0873 191.68 55.4664C191.301 55.8455 190.787 56.0584 190.25 56.0584Z" fill="#263238"/>
<path d="M190.251 70.1466H137.844C137.565 70.1707 137.284 70.1365 137.019 70.0463C136.754 69.956 136.51 69.8116 136.304 69.6222C136.097 69.4329 135.933 69.2027 135.82 68.9463C135.707 68.6899 135.649 68.4128 135.649 68.1327C135.649 67.8526 135.707 67.5756 135.82 67.3192C135.933 67.0627 136.097 66.8325 136.304 66.6432C136.51 66.4538 136.754 66.3094 137.019 66.2192C137.284 66.1289 137.565 66.0947 137.844 66.1188H190.251C190.755 66.1623 191.224 66.3933 191.566 66.7662C191.908 67.1391 192.098 67.6267 192.098 68.1327C192.098 68.6387 191.908 69.1264 191.566 69.4992C191.224 69.8721 190.755 70.1031 190.251 70.1466Z" fill="#263238"/>
<path d="M190.25 84.2518H137.844C137.308 84.2518 136.794 84.0388 136.415 83.6597C136.035 83.2806 135.823 82.7665 135.823 82.2304C135.823 81.6943 136.035 81.1801 136.415 80.801C136.794 80.4219 137.308 80.209 137.844 80.209H190.25C190.787 80.209 191.301 80.4219 191.68 80.801C192.059 81.1801 192.272 81.6943 192.272 82.2304C192.272 82.7665 192.059 83.2806 191.68 83.6597C191.301 84.0388 190.787 84.2518 190.25 84.2518Z" fill="#263238"/>
<path d="M190.251 98.3422H81.4845C80.9804 98.2987 80.5109 98.0677 80.1688 97.6949C79.8267 97.322 79.637 96.8344 79.637 96.3284C79.637 95.8223 79.8267 95.3347 80.1688 94.9618C80.5109 94.589 80.9804 94.358 81.4845 94.3145H190.251C190.755 94.358 191.224 94.589 191.566 94.9618C191.908 95.3347 192.098 95.8223 192.098 96.3284C192.098 96.8344 191.908 97.322 191.566 97.6949C191.224 98.0677 190.755 98.2987 190.251 98.3422Z" fill="#263238"/>
<path d="M190.251 112.447H81.4845C80.9484 112.447 80.4343 112.234 80.0552 111.855C79.6761 111.476 79.4631 110.962 79.4631 110.426C79.4631 109.89 79.6761 109.375 80.0552 108.996C80.4343 108.617 80.9484 108.404 81.4845 108.404H190.251C190.787 108.404 191.301 108.617 191.68 108.996C192.059 109.375 192.272 109.89 192.272 110.426C192.272 110.962 192.059 111.476 191.68 111.855C191.301 112.234 190.787 112.447 190.251 112.447Z" fill="#263238"/>
<path d="M190.251 126.551H81.4845C80.9484 126.551 80.4343 126.338 80.0552 125.959C79.6761 125.579 79.4631 125.065 79.4631 124.529C79.4631 123.993 79.6761 123.479 80.0552 123.1C80.4343 122.721 80.9484 122.508 81.4845 122.508H190.251C190.787 122.508 191.301 122.721 191.68 123.1C192.059 123.479 192.272 123.993 192.272 124.529C192.272 125.065 192.059 125.579 191.68 125.959C191.301 126.338 190.787 126.551 190.251 126.551Z" fill="#263238"/>
<path d="M190.251 140.641H81.4845C80.9804 140.598 80.5109 140.367 80.1688 139.994C79.8267 139.621 79.637 139.133 79.637 138.627C79.637 138.121 79.8267 137.634 80.1688 137.261C80.5109 136.888 80.9804 136.657 81.4845 136.613H190.251C190.755 136.657 191.224 136.888 191.566 137.261C191.908 137.634 192.098 138.121 192.098 138.627C192.098 139.133 191.908 139.621 191.566 139.994C191.224 140.367 190.755 140.598 190.251 140.641Z" fill="#263238"/>
<path d="M190.251 153.174H81.4845C80.9804 153.131 80.5109 152.9 80.1688 152.527C79.8267 152.154 79.637 151.666 79.637 151.16C79.637 150.654 79.8267 150.167 80.1688 149.794C80.5109 149.421 80.9804 149.19 81.4845 149.146H190.251C190.755 149.19 191.224 149.421 191.566 149.794C191.908 150.167 192.098 150.654 192.098 151.16C192.098 151.666 191.908 152.154 191.566 152.527C191.224 152.9 190.755 153.131 190.251 153.174Z" fill="#263238"/>
<path d="M190.251 167.324H81.4845C80.9484 167.324 80.4343 167.111 80.0552 166.732C79.6761 166.353 79.4631 165.839 79.4631 165.303C79.4631 164.767 79.6761 164.252 80.0552 163.873C80.4343 163.494 80.9484 163.281 81.4845 163.281H190.251C190.787 163.281 191.301 163.494 191.68 163.873C192.059 164.252 192.272 164.767 192.272 165.303C192.272 165.839 192.059 166.353 191.68 166.732C191.301 167.111 190.787 167.324 190.251 167.324Z" fill="#263238"/>
<path d="M190.251 181.368H81.4845C80.9804 181.324 80.5109 181.093 80.1688 180.72C79.8267 180.347 79.637 179.86 79.637 179.354C79.637 178.848 79.8267 178.36 80.1688 177.987C80.5109 177.614 80.9804 177.383 81.4845 177.34H190.251C190.755 177.383 191.224 177.614 191.566 177.987C191.908 178.36 192.098 178.848 192.098 179.354C192.098 179.86 191.908 180.347 191.566 180.72C191.224 181.093 190.755 181.324 190.251 181.368Z" fill="#263238"/>
<path d="M190.251 195.472H81.4845C80.9484 195.472 80.4343 195.259 80.0552 194.88C79.6761 194.501 79.4631 193.987 79.4631 193.451C79.4631 192.915 79.6761 192.401 80.0552 192.022C80.4343 191.643 80.9484 191.43 81.4845 191.43H190.251C190.787 191.43 191.301 191.643 191.68 192.022C192.059 192.401 192.272 192.915 192.272 193.451C192.272 193.987 192.059 194.501 191.68 194.88C191.301 195.259 190.787 195.472 190.251 195.472Z" fill="#263238"/>
<path d="M190.251 209.563H81.4845C80.9804 209.519 80.5109 209.288 80.1688 208.916C79.8267 208.543 79.637 208.055 79.637 207.549C79.637 207.043 79.8267 206.555 80.1688 206.183C80.5109 205.81 80.9804 205.579 81.4845 205.535H190.251C190.755 205.579 191.224 205.81 191.566 206.183C191.908 206.555 192.098 207.043 192.098 207.549C192.098 208.055 191.908 208.543 191.566 208.916C191.224 209.288 190.755 209.519 190.251 209.563Z" fill="#263238"/>
<path d="M190.251 223.666H81.4845C80.9804 223.623 80.5109 223.392 80.1688 223.019C79.8267 222.646 79.637 222.159 79.637 221.653C79.637 221.147 79.8267 220.659 80.1688 220.286C80.5109 219.913 80.9804 219.682 81.4845 219.639H190.251C190.755 219.682 191.224 219.913 191.566 220.286C191.908 220.659 192.098 221.147 192.098 221.653C192.098 222.159 191.908 222.646 191.566 223.019C191.224 223.392 190.755 223.623 190.251 223.666Z" fill="#263238"/>
<path d="M330.251 56.0584H221.53C220.994 56.0584 220.479 55.8455 220.1 55.4664C219.721 55.0873 219.508 54.5731 219.508 54.037C219.508 53.5009 219.721 52.9868 220.1 52.6077C220.479 52.2286 220.994 52.0156 221.53 52.0156H330.251C330.787 52.0156 331.301 52.2286 331.68 52.6077C332.059 52.9868 332.272 53.5009 332.272 54.037C332.272 54.5731 332.059 55.0873 331.68 55.4664C331.301 55.8455 330.787 56.0584 330.251 56.0584Z" fill="#263238"/>
<path d="M330.251 70.1466H221.529C221.25 70.1707 220.969 70.1365 220.704 70.0463C220.439 69.956 220.196 69.8116 219.989 69.6222C219.783 69.4329 219.618 69.2027 219.505 68.9463C219.392 68.6899 219.334 68.4128 219.334 68.1327C219.334 67.8526 219.392 67.5756 219.505 67.3192C219.618 67.0627 219.783 66.8325 219.989 66.6432C220.196 66.4538 220.439 66.3094 220.704 66.2192C220.969 66.1289 221.25 66.0947 221.529 66.1188H330.251C330.53 66.0947 330.811 66.1289 331.076 66.2192C331.341 66.3094 331.584 66.4538 331.791 66.6432C331.997 66.8325 332.162 67.0627 332.275 67.3192C332.387 67.5756 332.446 67.8526 332.446 68.1327C332.446 68.4128 332.387 68.6899 332.275 68.9463C332.162 69.2027 331.997 69.4329 331.791 69.6222C331.584 69.8116 331.341 69.956 331.076 70.0463C330.811 70.1365 330.53 70.1707 330.251 70.1466Z" fill="#263238"/>
<path d="M330.251 84.2518H221.53C220.994 84.2518 220.479 84.0388 220.1 83.6597C219.721 83.2806 219.508 82.7665 219.508 82.2304C219.508 81.6943 219.721 81.1801 220.1 80.801C220.479 80.4219 220.994 80.209 221.53 80.209H330.251C330.787 80.209 331.301 80.4219 331.68 80.801C332.059 81.1801 332.272 81.6943 332.272 82.2304C332.272 82.7665 332.059 83.2806 331.68 83.6597C331.301 84.0388 330.787 84.2518 330.251 84.2518Z" fill="#263238"/>
<path d="M330.251 98.34H221.529C221.25 98.3641 220.969 98.3299 220.704 98.2396C220.439 98.1494 220.196 98.005 219.989 97.8156C219.783 97.6262 219.618 97.3961 219.505 97.1396C219.392 96.8832 219.334 96.6062 219.334 96.3261C219.334 96.046 219.392 95.7689 219.505 95.5125C219.618 95.2561 219.783 95.0259 219.989 94.8365C220.196 94.6472 220.439 94.5028 220.704 94.4125C220.969 94.3223 221.25 94.2881 221.529 94.3122H330.251C330.53 94.2881 330.811 94.3223 331.076 94.4125C331.341 94.5028 331.584 94.6472 331.791 94.8365C331.997 95.0259 332.162 95.2561 332.275 95.5125C332.387 95.7689 332.446 96.046 332.446 96.3261C332.446 96.6062 332.387 96.8832 332.275 97.1396C332.162 97.3961 331.997 97.6262 331.791 97.8156C331.584 98.005 331.341 98.1494 331.076 98.2396C330.811 98.3299 330.53 98.3641 330.251 98.34Z" fill="#263238"/>
<path d="M330.251 112.447H221.53C220.994 112.447 220.479 112.234 220.1 111.855C219.721 111.476 219.508 110.962 219.508 110.426C219.508 109.89 219.721 109.375 220.1 108.996C220.479 108.617 220.994 108.404 221.53 108.404H330.251C330.787 108.404 331.301 108.617 331.68 108.996C332.059 109.375 332.272 109.89 332.272 110.426C332.272 110.962 332.059 111.476 331.68 111.855C331.301 112.234 330.787 112.447 330.251 112.447Z" fill="#263238"/>
<path d="M330.251 126.551H221.53C221.264 126.551 221.001 126.498 220.756 126.397C220.511 126.295 220.288 126.146 220.1 125.959C219.913 125.771 219.764 125.548 219.662 125.303C219.561 125.058 219.508 124.795 219.508 124.529C219.508 124.264 219.561 124.001 219.662 123.756C219.764 123.51 219.913 123.288 220.1 123.1C220.288 122.912 220.511 122.763 220.756 122.662C221.001 122.56 221.264 122.508 221.53 122.508H330.251C330.516 122.508 330.779 122.56 331.024 122.662C331.27 122.763 331.492 122.912 331.68 123.1C331.868 123.288 332.017 123.51 332.118 123.756C332.22 124.001 332.272 124.264 332.272 124.529C332.272 124.795 332.22 125.058 332.118 125.303C332.017 125.548 331.868 125.771 331.68 125.959C331.492 126.146 331.27 126.295 331.024 126.397C330.779 126.498 330.516 126.551 330.251 126.551Z" fill="#263238"/>
<path d="M330.251 140.643H221.529C221.25 140.667 220.969 140.633 220.704 140.542C220.439 140.452 220.196 140.308 219.989 140.118C219.783 139.929 219.618 139.699 219.505 139.442C219.392 139.186 219.334 138.909 219.334 138.629C219.334 138.349 219.392 138.072 219.505 137.815C219.618 137.559 219.783 137.329 219.989 137.139C220.196 136.95 220.439 136.806 220.704 136.715C220.969 136.625 221.25 136.591 221.529 136.615H330.251C330.53 136.591 330.811 136.625 331.076 136.715C331.341 136.806 331.584 136.95 331.791 137.139C331.997 137.329 332.162 137.559 332.275 137.815C332.387 138.072 332.446 138.349 332.446 138.629C332.446 138.909 332.387 139.186 332.275 139.442C332.162 139.699 331.997 139.929 331.791 140.118C331.584 140.308 331.341 140.452 331.076 140.542C330.811 140.633 330.53 140.667 330.251 140.643Z" fill="#263238"/>
<path d="M332.212 150.121H221.41V227.398H332.212V150.121Z" fill="#92E3A9"/>
<path opacity="0.6" d="M332.212 150.121H221.41V227.398H332.212V150.121Z" fill="white"/>
<path d="M370.933 43.6426H258.005V346.567H370.933V43.6426Z" fill="#92E3A9"/>
<path opacity="0.4" d="M370.933 43.6426H258.005V346.567H370.933V43.6426Z" fill="white"/>
<path d="M537.691 32.3105H266.449V376.367H537.691V32.3105Z" fill="white" stroke="#263238" stroke-width="0.75" stroke-linecap="round" stroke-linejoin="round"/>
<path d="M537.691 32.3105H266.449V52.8389H537.691V32.3105Z" fill="#263238" stroke="#263238" stroke-width="0.75" stroke-linecap="round" stroke-linejoin="round"/>
<path d="M453.061 81.0332H357.816V259.081H453.061V81.0332Z" fill="#92E3A9"/>
<path opacity="0.6" d="M453.061 81.0332H357.816V259.081H453.061V81.0332Z" fill="white"/>
<path d="M529.95 272.258H274.206V369.569H529.95V272.258Z" fill="#92E3A9"/>
<path opacity="0.6" d="M529.95 272.258H274.206V369.569H529.95V272.258Z" fill="white"/>
<path d="M529.95 40.4238H274.206V64.0068H529.95V40.4238Z" fill="#92E3A9"/>
<path opacity="0.6" d="M529.95 40.4238H274.206V64.0068H529.95V40.4238Z" fill="white"/>
<path d="M526.356 45.0078H278.802V55.4442H526.356V45.0078Z" fill="white"/>
<path d="M526.341 45.0078H498.311V55.4442H526.341V45.0078Z" fill="#263238" stroke="#263238" stroke-width="0.75" stroke-linecap="round" stroke-linejoin="round"/>
<path d="M341.81 85.1369H276.542C276.263 85.161 275.982 85.1268 275.716 85.0365C275.451 84.9462 275.208 84.8019 275.001 84.6125C274.795 84.4231 274.63 84.1929 274.517 83.9365C274.405 83.6801 274.346 83.4031 274.346 83.123C274.346 82.8429 274.405 82.5658 274.517 82.3094C274.63 82.053 274.795 81.8228 275.001 81.6334C275.208 81.4441 275.451 81.2997 275.716 81.2094C275.982 81.1191 276.263 81.085 276.542 81.109H341.81C342.089 81.085 342.37 81.1191 342.635 81.2094C342.901 81.2997 343.144 81.4441 343.351 81.6334C343.557 81.8228 343.722 82.053 343.834 82.3094C343.947 82.5658 344.005 82.8429 344.005 83.123C344.005 83.4031 343.947 83.6801 343.834 83.9365C343.722 84.1929 343.557 84.4231 343.351 84.6125C343.144 84.8019 342.901 84.9462 342.635 85.0365C342.37 85.1268 342.089 85.161 341.81 85.1369Z" fill="#263238"/>
<path d="M341.81 99.24H276.542C276.006 99.24 275.491 99.0271 275.112 98.648C274.733 98.2689 274.52 97.7548 274.52 97.2186C274.52 96.6825 274.733 96.1684 275.112 95.7893C275.491 95.4102 276.006 95.1973 276.542 95.1973H341.81C342.346 95.1973 342.86 95.4102 343.24 95.7893C343.619 96.1684 343.832 96.6825 343.832 97.2186C343.832 97.7548 343.619 98.2689 343.24 98.648C342.86 99.0271 342.346 99.24 341.81 99.24Z" fill="#263238"/>
<path d="M341.81 113.33H276.542C276.263 113.354 275.982 113.32 275.716 113.23C275.451 113.14 275.208 112.995 275.001 112.806C274.795 112.616 274.63 112.386 274.517 112.13C274.405 111.873 274.346 111.596 274.346 111.316C274.346 111.036 274.405 110.759 274.517 110.503C274.63 110.246 274.795 110.016 275.001 109.827C275.208 109.637 275.451 109.493 275.716 109.403C275.982 109.313 276.263 109.278 276.542 109.302H341.81C342.089 109.278 342.37 109.313 342.635 109.403C342.901 109.493 343.144 109.637 343.351 109.827C343.557 110.016 343.722 110.246 343.834 110.503C343.947 110.759 344.005 111.036 344.005 111.316C344.005 111.596 343.947 111.873 343.834 112.13C343.722 112.386 343.557 112.616 343.351 112.806C343.144 112.995 342.901 113.14 342.635 113.23C342.37 113.32 342.089 113.354 341.81 113.33Z" fill="#263238"/>
<path d="M341.81 127.435H276.542C276.276 127.435 276.013 127.383 275.768 127.281C275.523 127.18 275.3 127.031 275.112 126.843C274.925 126.656 274.776 126.433 274.674 126.188C274.573 125.942 274.52 125.679 274.52 125.414C274.52 125.149 274.573 124.886 274.674 124.64C274.776 124.395 274.925 124.172 275.112 123.985C275.3 123.797 275.523 123.648 275.768 123.546C276.013 123.445 276.276 123.393 276.542 123.393H341.81C342.346 123.393 342.86 123.606 343.24 123.985C343.619 124.364 343.832 124.878 343.832 125.414C343.832 125.95 343.619 126.464 343.24 126.843C342.86 127.222 342.346 127.435 341.81 127.435Z" fill="#263238"/>
<path d="M341.81 141.524H276.542C276.263 141.548 275.982 141.513 275.716 141.423C275.451 141.333 275.208 141.189 275.001 140.999C274.795 140.81 274.63 140.58 274.517 140.323C274.405 140.067 274.346 139.79 274.346 139.51C274.346 139.23 274.405 138.953 274.517 138.696C274.63 138.44 274.795 138.209 275.001 138.02C275.208 137.831 275.451 137.686 275.716 137.596C275.982 137.506 276.263 137.472 276.542 137.496H341.81C342.089 137.472 342.37 137.506 342.635 137.596C342.901 137.686 343.144 137.831 343.351 138.02C343.557 138.209 343.722 138.44 343.834 138.696C343.947 138.953 344.005 139.23 344.005 139.51C344.005 139.79 343.947 140.067 343.834 140.323C343.722 140.58 343.557 140.81 343.351 140.999C343.144 141.189 342.901 141.333 342.635 141.423C342.37 141.513 342.089 141.548 341.81 141.524Z" fill="#263238"/>
<path d="M341.81 155.629H276.542C276.263 155.653 275.982 155.619 275.716 155.529C275.451 155.438 275.208 155.294 275.001 155.105C274.795 154.915 274.63 154.685 274.517 154.429C274.405 154.172 274.346 153.895 274.346 153.615C274.346 153.335 274.405 153.058 274.517 152.802C274.63 152.545 274.795 152.315 275.001 152.126C275.208 151.936 275.451 151.792 275.716 151.702C275.982 151.611 276.263 151.577 276.542 151.601H341.81C342.089 151.577 342.37 151.611 342.635 151.702C342.901 151.792 343.144 151.936 343.351 152.126C343.557 152.315 343.722 152.545 343.834 152.802C343.947 153.058 344.005 153.335 344.005 153.615C344.005 153.895 343.947 154.172 343.834 154.429C343.722 154.685 343.557 154.915 343.351 155.105C343.144 155.294 342.901 155.438 342.635 155.529C342.37 155.619 342.089 155.653 341.81 155.629Z" fill="#263238"/>
<path d="M341.81 169.736H276.542C276.276 169.736 276.013 169.684 275.768 169.582C275.523 169.481 275.3 169.332 275.112 169.144C274.925 168.956 274.776 168.734 274.674 168.488C274.573 168.243 274.52 167.98 274.52 167.715C274.52 167.449 274.573 167.186 274.674 166.941C274.776 166.696 274.925 166.473 275.112 166.285C275.3 166.098 275.523 165.949 275.768 165.847C276.013 165.746 276.276 165.693 276.542 165.693H341.81C342.346 165.693 342.86 165.906 343.24 166.285C343.619 166.664 343.832 167.179 343.832 167.715C343.832 168.251 343.619 168.765 343.24 169.144C342.86 169.523 342.346 169.736 341.81 169.736Z" fill="#263238"/>
<path d="M341.81 182.299H276.542C276.006 182.299 275.491 182.086 275.112 181.707C274.733 181.328 274.52 180.813 274.52 180.277C274.52 179.741 274.733 179.227 275.112 178.848C275.491 178.469 276.006 178.256 276.542 178.256H341.81C342.346 178.256 342.86 178.469 343.24 178.848C343.619 179.227 343.832 179.741 343.832 180.277C343.832 180.813 343.619 181.328 343.24 181.707C342.86 182.086 342.346 182.299 341.81 182.299Z" fill="#263238"/>
<path d="M341.81 196.358H276.542C276.263 196.382 275.982 196.347 275.716 196.257C275.451 196.167 275.208 196.023 275.001 195.833C274.795 195.644 274.63 195.414 274.517 195.157C274.405 194.901 274.346 194.624 274.346 194.344C274.346 194.064 274.405 193.787 274.517 193.53C274.63 193.274 274.795 193.044 275.001 192.854C275.208 192.665 275.451 192.52 275.716 192.43C275.982 192.34 276.263 192.306 276.542 192.33H341.81C342.089 192.306 342.37 192.34 342.635 192.43C342.901 192.52 343.144 192.665 343.351 192.854C343.557 193.044 343.722 193.274 343.834 193.53C343.947 193.787 344.005 194.064 344.005 194.344C344.005 194.624 343.947 194.901 343.834 195.157C343.722 195.414 343.557 195.644 343.351 195.833C343.144 196.023 342.901 196.167 342.635 196.257C342.37 196.347 342.089 196.382 341.81 196.358Z" fill="#263238"/>
<path d="M341.81 210.463H276.542C276.006 210.463 275.491 210.25 275.112 209.871C274.733 209.492 274.52 208.977 274.52 208.441C274.52 207.905 274.733 207.391 275.112 207.012C275.491 206.633 276.006 206.42 276.542 206.42H341.81C342.346 206.42 342.86 206.633 343.24 207.012C343.619 207.391 343.832 207.905 343.832 208.441C343.832 208.977 343.619 209.492 343.24 209.871C342.86 210.25 342.346 210.463 341.81 210.463Z" fill="#263238"/>
<path d="M341.81 224.551H276.542C276.263 224.575 275.982 224.541 275.716 224.451C275.451 224.36 275.208 224.216 275.001 224.027C274.795 223.837 274.63 223.607 274.517 223.351C274.405 223.094 274.346 222.817 274.346 222.537C274.346 222.257 274.405 221.98 274.517 221.723C274.63 221.467 274.795 221.237 275.001 221.048C275.208 220.858 275.451 220.714 275.716 220.623C275.982 220.533 276.263 220.499 276.542 220.523H341.81C342.089 220.499 342.37 220.533 342.635 220.623C342.901 220.714 343.144 220.858 343.351 221.048C343.557 221.237 343.722 221.467 343.834 221.723C343.947 221.98 344.005 222.257 344.005 222.537C344.005 222.817 343.947 223.094 343.834 223.351C343.722 223.607 343.557 223.837 343.351 224.027C343.144 224.216 342.901 224.36 342.635 224.451C342.37 224.541 342.089 224.575 341.81 224.551Z" fill="#263238"/>
<path d="M341.81 238.658H276.542C276.006 238.658 275.491 238.445 275.112 238.066C274.733 237.687 274.52 237.173 274.52 236.637C274.52 236.101 274.733 235.586 275.112 235.207C275.491 234.828 276.006 234.615 276.542 234.615H341.81C342.346 234.615 342.86 234.828 343.24 235.207C343.619 235.586 343.832 236.101 343.832 236.637C343.832 237.173 343.619 237.687 343.24 238.066C342.86 238.445 342.346 238.658 341.81 238.658Z" fill="#263238"/>
<path d="M341.81 252.744H276.542C276.263 252.768 275.982 252.734 275.716 252.644C275.451 252.554 275.208 252.409 275.001 252.22C274.795 252.031 274.63 251.8 274.517 251.544C274.405 251.288 274.346 251.01 274.346 250.73C274.346 250.45 274.405 250.173 274.517 249.917C274.63 249.66 274.795 249.43 275.001 249.241C275.208 249.052 275.451 248.907 275.716 248.817C275.982 248.727 276.263 248.692 276.542 248.716H341.81C342.089 248.692 342.37 248.727 342.635 248.817C342.901 248.907 343.144 249.052 343.351 249.241C343.557 249.43 343.722 249.66 343.834 249.917C343.947 250.173 344.005 250.45 344.005 250.73C344.005 251.01 343.947 251.288 343.834 251.544C343.722 251.8 343.557 252.031 343.351 252.22C343.144 252.409 342.901 252.554 342.635 252.644C342.37 252.734 342.089 252.768 341.81 252.744Z" fill="#263238"/>
<path d="M341.81 266.852H276.542C276.263 266.876 275.982 266.842 275.716 266.751C275.451 266.661 275.208 266.517 275.001 266.327C274.795 266.138 274.63 265.908 274.517 265.651C274.405 265.395 274.346 265.118 274.346 264.838C274.346 264.558 274.405 264.281 274.517 264.024C274.63 263.768 274.795 263.538 275.001 263.348C275.208 263.159 275.451 263.015 275.716 262.924C275.982 262.834 276.263 262.8 276.542 262.824H341.81C342.089 262.8 342.37 262.834 342.635 262.924C342.901 263.015 343.144 263.159 343.351 263.348C343.557 263.538 343.722 263.768 343.834 264.024C343.947 264.281 344.005 264.558 344.005 264.838C344.005 265.118 343.947 265.395 343.834 265.651C343.722 265.908 343.557 266.138 343.351 266.327C343.144 266.517 342.901 266.661 342.635 266.751C342.37 266.842 342.089 266.876 341.81 266.852Z" fill="#263238"/>
<path d="M529.455 85.1369H464.262C463.983 85.161 463.702 85.1268 463.436 85.0365C463.171 84.9462 462.928 84.8019 462.721 84.6125C462.515 84.4231 462.35 84.1929 462.237 83.9365C462.125 83.6801 462.066 83.4031 462.066 83.123C462.066 82.8429 462.125 82.5658 462.237 82.3094C462.35 82.053 462.515 81.8228 462.721 81.6334C462.928 81.4441 463.171 81.2997 463.436 81.2094C463.702 81.1191 463.983 81.085 464.262 81.109H529.53C529.809 81.085 530.09 81.1191 530.355 81.2094C530.621 81.2997 530.864 81.4441 531.071 81.6334C531.277 81.8228 531.442 82.053 531.554 82.3094C531.667 82.5658 531.725 82.8429 531.725 83.123C531.725 83.4031 531.667 83.6801 531.554 83.9365C531.442 84.1929 531.277 84.4231 531.071 84.6125C530.864 84.8019 530.621 84.9462 530.355 85.0365C530.09 85.1268 529.809 85.161 529.53 85.1369H529.455Z" fill="#263238"/>
<path d="M529.455 99.24H464.262C463.996 99.24 463.733 99.1878 463.488 99.0862C463.243 98.9846 463.02 98.8357 462.832 98.648C462.645 98.4603 462.496 98.2375 462.394 97.9922C462.293 97.747 462.24 97.4841 462.24 97.2186C462.24 96.9532 462.293 96.6903 462.394 96.4451C462.496 96.1999 462.645 95.977 462.832 95.7893C463.02 95.6016 463.243 95.4527 463.488 95.3511C463.733 95.2496 463.996 95.1973 464.262 95.1973H529.53C530.066 95.1973 530.58 95.4102 530.96 95.7893C531.339 96.1684 531.552 96.6825 531.552 97.2186C531.552 97.7548 531.339 98.2689 530.96 98.648C530.58 99.0271 530.066 99.24 529.53 99.24H529.455Z" fill="#263238"/>
<path d="M529.455 113.33H464.262C463.983 113.354 463.702 113.32 463.436 113.23C463.171 113.14 462.928 112.995 462.721 112.806C462.515 112.616 462.35 112.386 462.237 112.13C462.125 111.873 462.066 111.596 462.066 111.316C462.066 111.036 462.125 110.759 462.237 110.503C462.35 110.246 462.515 110.016 462.721 109.827C462.928 109.637 463.171 109.493 463.436 109.403C463.702 109.313 463.983 109.278 464.262 109.302H529.53C529.809 109.278 530.09 109.313 530.355 109.403C530.621 109.493 530.864 109.637 531.071 109.827C531.277 110.016 531.442 110.246 531.554 110.503C531.667 110.759 531.725 111.036 531.725 111.316C531.725 111.596 531.667 111.873 531.554 112.13C531.442 112.386 531.277 112.616 531.071 112.806C530.864 112.995 530.621 113.14 530.355 113.23C530.09 113.32 529.809 113.354 529.53 113.33H529.455Z" fill="#263238"/>
<path d="M529.455 127.435H464.262C463.996 127.435 463.733 127.383 463.488 127.281C463.243 127.18 463.02 127.031 462.832 126.843C462.645 126.656 462.496 126.433 462.394 126.188C462.293 125.942 462.24 125.679 462.24 125.414C462.24 125.149 462.293 124.886 462.394 124.64C462.496 124.395 462.645 124.172 462.832 123.985C463.02 123.797 463.243 123.648 463.488 123.546C463.733 123.445 463.996 123.393 464.262 123.393H529.53C530.066 123.393 530.58 123.606 530.96 123.985C531.339 124.364 531.552 124.878 531.552 125.414C531.552 125.95 531.339 126.464 530.96 126.843C530.58 127.222 530.066 127.435 529.53 127.435H529.455Z" fill="#263238"/>
<path d="M529.455 141.524H464.262C463.983 141.548 463.702 141.513 463.436 141.423C463.171 141.333 462.928 141.189 462.721 140.999C462.515 140.81 462.35 140.58 462.237 140.323C462.125 140.067 462.066 139.79 462.066 139.51C462.066 139.23 462.125 138.953 462.237 138.696C462.35 138.44 462.515 138.209 462.721 138.02C462.928 137.831 463.171 137.686 463.436 137.596C463.702 137.506 463.983 137.472 464.262 137.496H529.53C529.809 137.472 530.09 137.506 530.355 137.596C530.621 137.686 530.864 137.831 531.071 138.02C531.277 138.209 531.442 138.44 531.554 138.696C531.667 138.953 531.725 139.23 531.725 139.51C531.725 139.79 531.667 140.067 531.554 140.323C531.442 140.58 531.277 140.81 531.071 140.999C530.864 141.189 530.621 141.333 530.355 141.423C530.09 141.513 529.809 141.548 529.53 141.524H529.455Z" fill="#263238"/>
<path d="M529.455 155.629H464.262C463.983 155.653 463.702 155.619 463.436 155.529C463.171 155.438 462.928 155.294 462.721 155.105C462.515 154.915 462.35 154.685 462.237 154.429C462.125 154.172 462.066 153.895 462.066 153.615C462.066 153.335 462.125 153.058 462.237 152.802C462.35 152.545 462.515 152.315 462.721 152.126C462.928 151.936 463.171 151.792 463.436 151.702C463.702 151.611 463.983 151.577 464.262 151.601H529.53C529.809 151.577 530.09 151.611 530.355 151.702C530.621 151.792 530.864 151.936 531.071 152.126C531.277 152.315 531.442 152.545 531.554 152.802C531.667 153.058 531.725 153.335 531.725 153.615C531.725 153.895 531.667 154.172 531.554 154.429C531.442 154.685 531.277 154.915 531.071 155.105C530.864 155.294 530.621 155.438 530.355 155.529C530.09 155.619 529.809 155.653 529.53 155.629H529.455Z" fill="#263238"/>
<path d="M529.455 169.736H464.262C463.996 169.736 463.733 169.684 463.488 169.582C463.243 169.481 463.02 169.332 462.832 169.144C462.645 168.956 462.496 168.734 462.394 168.488C462.293 168.243 462.24 167.98 462.24 167.715C462.24 167.449 462.293 167.186 462.394 166.941C462.496 166.696 462.645 166.473 462.832 166.285C463.02 166.098 463.243 165.949 463.488 165.847C463.733 165.746 463.996 165.693 464.262 165.693H529.53C530.066 165.693 530.58 165.906 530.96 166.285C531.339 166.664 531.552 167.179 531.552 167.715C531.552 168.251 531.339 168.765 530.96 169.144C530.58 169.523 530.066 169.736 529.53 169.736H529.455Z" fill="#263238"/>
<path d="M529.994 179.197H462.629V256.474H529.994V179.197Z" fill="#92E3A9"/>
<path opacity="0.6" d="M529.994 179.197H462.629V256.474H529.994V179.197Z" fill="white"/>
<path d="M563.58 319.133C563.176 303.92 564.359 277.956 551.002 267.265C539.278 257.877 530.16 270.619 526.88 280.891C518.9 305.822 519.753 399.644 521.819 418.54C521.819 418.54 519.783 399.614 504.915 407.73C490.046 415.845 512.401 458.444 512.401 458.444C512.401 458.444 494.823 445.597 486.707 456.408C478.592 467.219 496.859 479.407 496.859 479.407C496.859 479.407 479.954 474.675 479.954 479.407C479.954 484.138 485.359 488.196 500.917 490.233H584.767C584.767 490.233 598.243 482.746 595.593 474.675C592.943 466.605 578.628 471.276 578.628 471.276C578.628 471.276 600.264 444.908 598.902 433.409C597.539 421.909 569.824 435.43 569.824 435.43C569.824 435.43 591.475 380.658 587.417 356.311C584.213 337.131 569.33 350.322 561.229 357.629C563.134 344.89 563.92 332.009 563.58 319.133Z" fill="#92E3A9"/>
<path opacity="0.1" d="M563.58 319.133C563.176 303.92 564.359 277.956 551.002 267.265C539.278 257.877 530.16 270.619 526.88 280.891C518.9 305.822 519.753 399.644 521.819 418.54C521.819 418.54 519.783 399.614 504.915 407.73C490.046 415.845 512.401 458.444 512.401 458.444C512.401 458.444 494.823 445.597 486.707 456.408C478.592 467.219 496.859 479.407 496.859 479.407C496.859 479.407 479.954 474.675 479.954 479.407C479.954 484.138 485.359 488.196 500.917 490.233H584.767C584.767 490.233 598.243 482.746 595.593 474.675C592.943 466.605 578.628 471.276 578.628 471.276C578.628 471.276 600.264 444.908 598.902 433.409C597.539 421.909 569.824 435.43 569.824 435.43C569.824 435.43 591.475 380.658 587.417 356.311C584.213 337.131 569.33 350.322 561.229 357.629C563.134 344.89 563.92 332.009 563.58 319.133Z" fill="black"/>
<path d="M536.613 488.421L542.782 303.576" stroke="#92E3A9" stroke-width="1.72695" stroke-linecap="round" stroke-linejoin="round"/>
<path d="M540.072 411.788L571.86 382.021" stroke="#92E3A9" stroke-width="1.72695" stroke-linecap="round" stroke-linejoin="round"/>
<path d="M554.956 398.254L561.708 379.328" stroke="#92E3A9" stroke-width="1.72695" stroke-linecap="round" stroke-linejoin="round"/>
<path d="M513.704 434.771L537.586 460.241" stroke="#92E3A9" stroke-width="1.72695" stroke-linecap="round" stroke-linejoin="round"/>
<path d="M578.628 449.654L538.051 470.617" stroke="#92E3A9" stroke-width="1.72695" stroke-linecap="round" stroke-linejoin="round"/>
<path d="M558.175 459.986L571.86 461.154" stroke="#92E3A9" stroke-width="1.72695" stroke-linecap="round" stroke-linejoin="round"/>
<path d="M258.514 490.953C258.514 496.523 205.433 501.045 139.97 501.045C74.5069 501.045 21.4116 496.553 21.4116 490.953C21.4116 485.353 74.4919 480.861 139.97 480.861C205.448 480.861 258.514 485.383 258.514 490.953Z" fill="#263238"/>
<path d="M80.9455 305.599C80.9455 305.599 90.1091 300.957 94.092 304.94C98.0749 308.923 96.4728 351.537 97.6706 365.073C98.3963 373.146 99.8853 381.133 102.118 388.926C102.118 388.926 88.9712 386.545 79.0139 381.439C79.0139 381.439 70.2545 338.915 80.9455 305.599Z" fill="#263238" stroke="#263238" stroke-width="0.75" stroke-linecap="round" stroke-linejoin="round"/>
<path d="M263.395 402.102C262.318 402.101 261.272 401.736 260.428 401.066C259.585 400.395 258.992 399.459 258.748 398.41C258.503 397.36 258.621 396.259 259.081 395.285C259.541 394.311 260.318 393.521 261.284 393.043L304.572 373.578L338.172 334.932C338.988 333.963 340.155 333.358 341.418 333.25C342.68 333.142 343.933 333.539 344.902 334.356C345.871 335.172 346.476 336.339 346.584 337.601C346.692 338.864 346.295 340.117 345.479 341.086L311.235 380.496C310.825 380.999 310.315 381.412 309.737 381.709L265.536 401.608C264.873 401.944 264.138 402.114 263.395 402.102Z" fill="white" stroke="#263238" stroke-width="0.75" stroke-linecap="round" stroke-linejoin="round"/>
<path d="M292.997 385.226L297.744 383.07" stroke="#263238" stroke-width="0.75" stroke-linecap="round" stroke-linejoin="round"/>
<path d="M271.106 395.183L289.868 386.648" stroke="#263238" stroke-width="0.75" stroke-linecap="round" stroke-linejoin="round"/>
<path d="M335.267 347.553L322.764 361.688" stroke="#263238" stroke-width="0.75" stroke-linecap="round" stroke-linejoin="round"/>
<path d="M320.743 363.707L317.913 366.926" stroke="#263238" stroke-width="0.75" stroke-linecap="round" stroke-linejoin="round"/>
<path d="M269.16 419.27C274.455 396.938 260.644 374.542 238.313 369.247C215.981 363.952 193.585 377.763 188.29 400.094C182.995 422.426 196.806 444.822 219.137 450.117C241.469 455.412 263.865 441.601 269.16 419.27Z" fill="#66359B" stroke="#263238" stroke-width="0.747671" stroke-linecap="round" stroke-linejoin="round"/>
<path d="M124.862 255.874C124.862 255.874 130.852 269.919 132.109 272.659C133.367 275.399 134.565 276.148 134.281 277.016C133.996 277.885 130.942 278.888 130.942 278.888C131.366 283.209 130.616 287.565 128.77 291.495C125.776 297.485 119.936 300.614 119.367 304.372C119.032 307.986 118.982 311.621 119.217 315.243L110.383 307.996C110.383 307.996 112.839 300.899 110.668 295.688C108.827 291.424 105.546 287.942 101.399 285.85C96.2358 282.462 92.5616 277.229 91.1275 271.222C89.8249 264.259 93.8676 256.877 99.2281 251.666C104.589 246.456 115.16 247.474 116.328 247.908C117.495 248.342 113.423 244.913 117.046 244.135C120.67 243.356 122.841 248.627 123.036 249.495C123.23 250.364 124.338 245.737 125.506 248.777C126.674 251.816 124.862 255.874 124.862 255.874Z" fill="white"/>
<mask id="mask0_72_1080" style="mask-type:luminance" maskUnits="userSpaceOnUse" x="90" y="244" width="45" height="72">
<path d="M124.863 255.874C124.863 255.874 130.852 269.919 132.11 272.659C133.367 275.399 134.565 276.148 134.281 277.016C133.996 277.885 130.942 278.888 130.942 278.888C131.366 283.209 130.616 287.565 128.771 291.495C125.776 297.485 119.936 300.614 119.367 304.372C119.032 307.986 118.982 311.621 119.218 315.243L110.383 307.996C110.383 307.996 112.839 300.899 110.668 295.688C108.827 291.424 105.547 287.942 101.399 285.85C96.2361 282.462 92.5618 277.229 91.1278 271.222C89.8251 264.259 93.8679 256.877 99.2283 251.666C104.589 246.456 115.16 247.474 116.328 247.908C117.496 248.342 113.423 244.913 117.047 244.135C120.67 243.356 122.841 248.627 123.036 249.495C123.231 250.364 124.339 245.737 125.506 248.777C126.674 251.816 124.863 255.874 124.863 255.874Z" fill="white"/>
</mask>
<g mask="url(#mask0_72_1080)">
<g style="mix-blend-mode:multiply" opacity="0.5">
<path d="M114.067 311.066C114.015 310.061 113.9 309.061 113.722 308.071C113.139 305.436 116.717 297.23 117.825 287.572C118.933 277.915 111.372 264.424 111.372 264.424L105.832 248.357C103.371 248.885 101.093 250.052 99.2283 251.741C93.8679 256.952 89.8251 264.334 91.1278 271.297C92.5618 277.304 96.2361 282.537 101.399 285.925C105.547 288.017 108.827 291.499 110.668 295.763C112.839 300.974 110.383 308.071 110.383 308.071L114.067 311.066Z" fill="#92E3A9"/>
</g>
</g>
<path d="M124.862 255.874C124.862 255.874 130.852 269.919 132.109 272.659C133.367 275.399 134.565 276.148 134.281 277.016C133.996 277.885 130.942 278.888 130.942 278.888C131.366 283.209 130.616 287.565 128.77 291.495C125.776 297.485 119.936 300.614 119.367 304.372C119.032 307.986 118.982 311.621 119.217 315.243L110.383 307.996C110.383 307.996 112.839 300.899 110.668 295.688C108.827 291.424 105.546 287.942 101.399 285.85C96.2358 282.462 92.5616 277.229 91.1275 271.222C89.8249 264.259 93.8676 256.877 99.2281 251.666C104.589 246.456 115.16 247.474 116.328 247.908C117.495 248.342 113.423 244.913 117.046 244.135C120.67 243.356 122.841 248.627 123.036 249.495C123.23 250.364 124.338 245.737 125.506 248.777C126.674 251.816 124.862 255.874 124.862 255.874Z" stroke="#263238" stroke-width="0.75" stroke-linecap="round" stroke-linejoin="round"/>
<path d="M125.431 263.346C125.431 263.346 122.811 262.627 121.942 264.843C121.67 265.351 121.516 265.914 121.492 266.489C121.469 267.065 121.577 267.639 121.808 268.167" stroke="#263238" stroke-width="0.75" stroke-linecap="round" stroke-linejoin="round"/>
<path d="M128.486 285.415C128.486 285.415 125.88 286.717 124.278 284.98" stroke="#263238" stroke-width="0.75" stroke-linecap="round" stroke-linejoin="round"/>
<path d="M123.38 273.27L111.312 278.495" stroke="#263238" stroke-width="0.75" stroke-linecap="round" stroke-linejoin="round"/>
<path d="M106.266 284.848C104.636 287.247 103.876 290.132 104.11 293.023C104.469 297.964 104.349 304.702 101.819 304.103C99.2883 303.504 103.017 295.913 103.017 292.784C102.867 290.399 102.321 288.056 101.399 285.851" stroke="#263238" stroke-width="0.75" stroke-linecap="round" stroke-linejoin="round"/>
<path d="M132.185 269.469L129.34 270.697" stroke="#263238" stroke-width="0.75" stroke-linecap="round" stroke-linejoin="round"/>
<path d="M127.528 272.283C127.902 273.556 127.902 274.679 127.528 274.783C127.153 274.888 126.554 273.945 126.18 272.672C125.806 271.399 125.821 270.276 126.18 270.157C126.539 270.037 127.168 270.995 127.528 272.283Z" fill="#263238"/>
<path d="M129.04 272.283C130.043 275.278 129.789 278.048 128.471 278.497C127.153 278.947 125.267 276.865 124.263 273.886C123.26 270.906 123.515 268.106 124.832 267.657C126.15 267.207 128.037 269.289 129.04 272.283Z" stroke="#263238" stroke-width="0.75" stroke-linecap="round" stroke-linejoin="round"/>
<path d="M109.036 283.888C109.036 283.888 106.655 281.013 108.796 281.252C109.469 281.391 110.091 281.71 110.597 282.174C111.103 282.638 111.474 283.23 111.671 283.888" stroke="#263238" stroke-width="0.5" stroke-linecap="round" stroke-linejoin="round"/>
<path d="M175.981 333.045L167.581 338.989L168.884 345.937L178.452 342.179L175.981 333.045Z" fill="white" stroke="#263238" stroke-width="0.75" stroke-linecap="round" stroke-linejoin="round"/>
<path d="M168.449 337.252L172.223 351.297C172.223 351.297 146.828 362.886 141.812 366.465C136.796 370.043 132.828 369.07 132.828 369.07L129.504 352.839C129.504 352.839 133.112 354.576 140.794 351.252C148.475 347.928 168.449 337.252 168.449 337.252Z" fill="white" stroke="#263238" stroke-width="0.75" stroke-linecap="round" stroke-linejoin="round"/>
<path d="M180.922 373.803C180.412 373.75 179.937 373.515 179.585 373.141C179.234 372.767 179.028 372.28 179.006 371.767L175.652 316.201C175.617 315.907 175.644 315.609 175.73 315.326C175.816 315.043 175.96 314.781 176.151 314.556C176.343 314.33 176.579 314.147 176.845 314.017C177.111 313.887 177.4 313.812 177.696 313.799C177.991 313.786 178.287 313.833 178.563 313.939C178.839 314.044 179.091 314.206 179.302 314.413C179.514 314.62 179.68 314.868 179.791 315.142C179.903 315.417 179.956 315.711 179.949 316.006L183.303 371.557C183.317 371.841 183.275 372.124 183.18 372.391C183.084 372.658 182.937 372.903 182.746 373.113C182.556 373.323 182.326 373.494 182.069 373.615C181.813 373.736 181.535 373.805 181.252 373.818L180.922 373.803Z" fill="#263238" stroke="#263238" stroke-width="0.75" stroke-linecap="round" stroke-linejoin="round"/>
<path d="M174.528 331.726C173.995 331.703 173.489 331.484 173.108 331.109C172.728 330.735 172.5 330.233 172.468 329.7C172.436 329.167 172.603 328.641 172.937 328.224C173.271 327.808 173.747 327.529 174.274 327.444L182.674 326.426C182.965 326.367 183.266 326.369 183.556 326.431C183.847 326.494 184.121 326.616 184.362 326.79C184.603 326.964 184.806 327.185 184.957 327.441C185.108 327.697 185.205 327.981 185.241 328.276C185.277 328.571 185.252 328.87 185.167 329.155C185.082 329.44 184.94 329.704 184.748 329.931C184.556 330.158 184.319 330.343 184.052 330.474C183.786 330.605 183.495 330.68 183.198 330.693L174.798 331.711L174.528 331.726Z" fill="white" stroke="#263238" stroke-width="0.75" stroke-linecap="round" stroke-linejoin="round"/>
<path d="M174.963 336.07C174.429 336.047 173.923 335.827 173.543 335.453C173.162 335.079 172.934 334.577 172.902 334.044C172.871 333.511 173.038 332.985 173.371 332.568C173.705 332.151 174.181 331.873 174.708 331.788L183.108 330.769C183.675 330.706 184.245 330.868 184.693 331.221C185.141 331.574 185.433 332.09 185.504 332.656C185.537 332.935 185.516 333.218 185.44 333.489C185.364 333.76 185.235 334.013 185.061 334.234C184.888 334.455 184.672 334.64 184.427 334.778C184.182 334.915 183.912 335.003 183.632 335.037L175.232 336.055L174.963 336.07Z" fill="white" stroke="#263238" stroke-width="0.75" stroke-linecap="round" stroke-linejoin="round"/>
<path d="M175.427 340.023C174.901 340.021 174.396 339.818 174.014 339.457C173.633 339.095 173.403 338.602 173.373 338.077C173.342 337.552 173.513 337.035 173.85 336.632C174.187 336.228 174.665 335.968 175.187 335.905L183.228 334.932C183.499 334.896 183.775 334.914 184.039 334.986C184.302 335.057 184.55 335.18 184.766 335.347C184.982 335.515 185.163 335.724 185.297 335.962C185.432 336.2 185.518 336.462 185.551 336.733C185.584 337.005 185.562 337.28 185.488 337.543C185.413 337.806 185.287 338.052 185.117 338.266C184.947 338.48 184.736 338.658 184.497 338.79C184.257 338.922 183.994 339.005 183.722 339.035L175.681 340.008L175.427 340.023Z" fill="white" stroke="#263238" stroke-width="0.75" stroke-linecap="round" stroke-linejoin="round"/>
<path d="M176.775 343.809C176.361 343.767 175.977 343.572 175.7 343.262C175.422 342.951 175.272 342.548 175.277 342.132C175.194 341.683 175.277 341.219 175.512 340.828C175.746 340.436 176.115 340.144 176.55 340.005L182.24 339.092C183.049 338.987 183.737 339.721 183.857 340.769C183.948 341.218 183.867 341.685 183.632 342.078C183.397 342.471 183.023 342.763 182.584 342.895L176.91 343.794L176.775 343.809Z" fill="white" stroke="#263238" stroke-width="0.75" stroke-linecap="round" stroke-linejoin="round"/>
<path d="M173.69 336.969C173.665 337.378 173.492 337.764 173.202 338.053C172.912 338.343 172.527 338.516 172.118 338.541C171.675 338.663 171.203 338.617 170.791 338.412C170.38 338.208 170.058 337.86 169.887 337.433L168.569 331.833C168.39 331.04 169.063 330.261 170.067 330.081C170.508 329.968 170.975 330.017 171.382 330.221C171.789 330.424 172.109 330.768 172.283 331.189L173.615 336.804C173.615 336.804 173.675 336.909 173.69 336.969Z" fill="white" stroke="#263238" stroke-width="0.75" stroke-linecap="round" stroke-linejoin="round"/>
<path d="M107.194 303.652C107.194 303.652 117.48 309.881 122.257 317.697C127.033 325.513 131.091 337.163 133.412 347.389C135.733 357.616 137.604 384.313 139.057 389.824C139.76 392.748 140.831 395.57 142.246 398.224C133.865 401.335 124.965 402.809 116.028 402.566C101.833 401.982 99.6622 398.508 99.6622 398.508C99.6622 398.508 94.8857 366.944 95.3199 341.879C95.7541 316.814 107.194 303.652 107.194 303.652Z" fill="white"/>
<mask id="mask1_72_1080" style="mask-type:luminance" maskUnits="userSpaceOnUse" x="95" y="303" width="48" height="100">
<path d="M107.194 303.656C107.194 303.656 117.481 309.885 122.257 317.701C127.034 325.517 131.091 337.167 133.412 347.393C135.733 357.62 137.605 384.317 139.057 389.828C139.76 392.751 140.832 395.574 142.246 398.228C133.865 401.339 124.965 402.813 116.028 402.57C101.834 401.986 99.6624 398.512 99.6624 398.512C99.6624 398.512 94.8859 366.948 95.3201 341.883C95.7544 316.818 107.194 303.656 107.194 303.656Z" fill="white"/>
</mask>
<g mask="url(#mask1_72_1080)">
<g style="mix-blend-mode:multiply" opacity="0.5">
<path d="M101.13 332.033C101.13 332.033 99.6322 334.383 100.83 328.229C101.799 323.925 103.377 319.78 105.517 315.921L112.539 323.827L116.941 324.127L115.773 326.178L124.263 331.449L120.235 326.702L120.52 319.455L113.722 321.551C113.722 321.551 109.32 313.645 108.152 311.07C107.373 309.303 109.979 307.806 111.805 307.012C110.325 305.86 108.786 304.785 107.194 303.793C107.194 303.793 95.7541 316.969 95.3199 342.02C94.9755 361.889 97.9103 385.832 99.1381 394.905L121.598 393.663L101.13 332.033Z" fill="#92E3A9"/>
</g>
</g>
<path d="M107.194 303.652C107.194 303.652 117.48 309.881 122.257 317.697C127.033 325.513 131.091 337.163 133.412 347.389C135.733 357.616 137.604 384.313 139.057 389.824C139.76 392.748 140.831 395.57 142.246 398.224C133.865 401.335 124.965 402.809 116.028 402.566C101.833 401.982 99.6622 398.508 99.6622 398.508C99.6622 398.508 94.8857 366.944 95.3199 341.879C95.7541 316.814 107.194 303.652 107.194 303.652Z" stroke="#263238" stroke-width="0.75" stroke-linecap="round" stroke-linejoin="round"/>
<path d="M104.154 308.729L114.875 321.606L120.52 319.434L120.236 326.681L128.77 336.968" stroke="#263238" stroke-width="0.75" stroke-linecap="round" stroke-linejoin="round"/>
<path d="M97.5659 336.025C97.5659 336.025 98.7638 348.004 102.342 350.849" stroke="#263238" stroke-width="0.5" stroke-linecap="round" stroke-linejoin="round"/>
<path d="M98.2849 348.947C98.2849 348.947 99.7822 353.439 103.541 354.937" stroke="#263238" stroke-width="0.5" stroke-linecap="round" stroke-linejoin="round"/>
<path d="M129.369 342.479L123.155 344.874L124.114 347.51L129.848 345.353" stroke="#263238" stroke-width="0.5" stroke-linecap="round" stroke-linejoin="round"/>
<path d="M171.28 387.593C170.766 387.592 170.269 387.407 169.879 387.072C169.489 386.737 169.232 386.274 169.153 385.766L161.397 335.396C161.355 335.116 161.368 334.83 161.436 334.555C161.505 334.28 161.626 334.021 161.795 333.793C161.963 333.565 162.174 333.372 162.417 333.226C162.66 333.08 162.929 332.982 163.209 332.94C163.489 332.898 163.775 332.911 164.05 332.979C164.325 333.048 164.584 333.169 164.812 333.337C165.04 333.506 165.233 333.717 165.379 333.96C165.525 334.203 165.622 334.472 165.665 334.752L173.421 385.122C173.503 385.687 173.358 386.262 173.019 386.722C172.68 387.182 172.173 387.489 171.609 387.578L171.28 387.593Z" fill="#263238" stroke="#263238" stroke-width="0.75" stroke-linecap="round" stroke-linejoin="round"/>
<path d="M124.862 255.873C124.862 255.873 126.599 251.816 125.446 248.776C124.293 245.736 123.126 250.363 122.976 249.495C122.826 248.626 120.67 243.416 116.986 244.134C113.303 244.853 117.421 248.342 116.268 247.908C115.115 247.473 104.529 246.41 99.1683 251.666C93.8078 256.921 89.765 264.258 91.0677 271.221C92.5018 277.228 96.176 282.461 101.339 285.85C104.05 287.24 106.414 289.22 108.257 291.644C109.813 290.395 111.234 288.984 112.494 287.437C111.742 287.677 110.943 287.737 110.163 287.613C109.383 287.488 108.643 287.181 108.002 286.718C105.682 285.116 104.529 280.489 107.434 278.169C110.338 275.848 113.138 281.118 113.138 281.118C116.133 282.72 115.01 278.513 113.857 276.626C112.704 274.74 114.291 272.703 114.726 269.963C115.16 267.223 111.401 266.19 111.836 263.435C112.27 260.68 124.862 255.873 124.862 255.873Z" fill="#263238" stroke="#263238" stroke-width="0.75" stroke-linecap="round" stroke-linejoin="round"/>
<path d="M117.885 257.82C117.885 257.82 112.629 255.185 109.275 259.317C105.921 263.45 106.655 270.323 104.02 274.381C103.403 275.498 102.546 276.465 101.51 277.211C100.475 277.957 99.2858 278.463 98.0303 278.693" stroke="white" stroke-width="0.5" stroke-linecap="round" stroke-linejoin="round"/>
<path d="M94.9307 271.458C96.5137 271.628 98.1003 271.172 99.3512 270.187C100.602 269.202 101.418 267.767 101.624 266.188C102.822 260.199 109.515 251.604 116.223 251.364C122.931 251.125 122.437 255.856 122.437 255.856" stroke="white" stroke-width="0.5" stroke-linecap="round" stroke-linejoin="round"/>
<path d="M152.817 354.771L157.01 352.016C157.01 352.016 160.633 345.353 160.918 344.918C161.202 344.484 170.052 340.142 170.77 340.726C171.178 341.082 171.495 341.529 171.695 342.032C171.896 342.534 171.974 343.077 171.923 343.616C171.639 344.349 170.621 345.113 170.621 345.802C170.621 346.491 171.789 352.016 171.789 353.468C171.789 354.92 165.799 357.376 163.389 358.11C160.978 358.844 157.744 358.829 157.01 359.412L154.989 361L152.817 354.771Z" fill="white" stroke="#263238" stroke-width="0.75" stroke-linecap="round" stroke-linejoin="round"/>
<path d="M104.154 325.527C104.154 325.527 100.396 326.531 101.699 337.102C103.001 347.673 113.573 383.294 117.331 387.652C121.089 392.009 157.759 367.662 157.759 367.662L153.267 353.752C153.267 353.752 128.501 363.455 126.48 363.889C124.458 364.323 118.648 332.759 116.627 328.851" fill="white"/>
<mask id="mask2_72_1080" style="mask-type:luminance" maskUnits="userSpaceOnUse" x="101" y="325" width="57" height="64">
<path d="M104.154 325.525C104.154 325.525 100.396 326.529 101.699 337.1C103.001 347.671 113.573 383.292 117.331 387.65C121.089 392.007 157.759 367.66 157.759 367.66L153.267 353.75C153.267 353.75 128.501 363.453 126.48 363.887C124.458 364.321 118.648 332.757 116.627 328.849" fill="white"/>
</mask>
<g mask="url(#mask2_72_1080)">
<g style="mix-blend-mode:multiply" opacity="0.5">
<path d="M157.085 365.638C149.463 368.049 131.825 373.544 129.534 373.305C126.539 373.02 125.731 371.253 123.964 368.917C122.197 366.582 119.577 375.94 117.226 376.823C114.875 377.707 116.642 366.342 117.525 363.931C118.409 361.521 115.474 365.114 115.474 365.114C115.474 365.114 109.619 353.136 106.685 344.9C104.824 339.524 103.358 334.019 102.297 328.43L101.639 330.047C101.308 332.366 101.308 334.72 101.639 337.039C102.941 347.61 113.512 383.232 117.271 387.589C121.029 391.946 157.699 367.6 157.699 367.6L157.085 365.638Z" fill="#92E3A9"/>
</g>
</g>
<path d="M104.154 325.527C104.154 325.527 100.396 326.531 101.699 337.102C103.001 347.673 113.573 383.294 117.331 387.652C121.089 392.009 157.759 367.662 157.759 367.662L153.267 353.752C153.267 353.752 128.501 363.455 126.48 363.889C124.458 364.323 118.648 332.759 116.627 328.851" stroke="#263238" stroke-width="0.75" stroke-linecap="round" stroke-linejoin="round"/>
<path d="M126.464 363.889C124.988 364.844 123.721 366.089 122.741 367.548C121.76 369.007 121.086 370.651 120.76 372.379" stroke="#263238" stroke-width="0.5" stroke-linecap="round" stroke-linejoin="round"/>
<path d="M120.999 367.109C119.993 368.114 119.199 369.31 118.664 370.627C118.129 371.943 117.864 373.354 117.885 374.776" stroke="#263238" stroke-width="0.5" stroke-linecap="round" stroke-linejoin="round"/>
<path d="M83.6708 378.878C83.6708 378.878 79.6879 365.597 80.212 337.986C80.736 310.376 82.3382 307.725 81.0056 305.599C79.6729 303.473 55.551 317.682 37.583 338.391C26.1434 351.627 11.5295 371.227 10.5712 402.102C9.77762 426.793 21.5167 446.752 28.8835 452.277C41.6258 461.83 59.0248 461.172 60.8815 461.172H238.704C238.704 461.172 250.114 457.189 252.764 446.842C255.414 436.496 264.443 407.013 245.607 371.706C233.239 348.542 211.094 323.657 207.365 325.513C203.637 327.37 189.712 353.963 170.741 370.643C152.817 386.41 118.708 397.984 83.6708 378.878Z" fill="#66359B" stroke="#263238" stroke-width="0.75" stroke-linecap="round" stroke-linejoin="round"/>
<path d="M245.652 371.706C243.001 366.765 239.917 361.749 236.668 356.928C226.276 360.506 200.223 371.197 185.759 392.549C173.346 410.877 181.596 439.955 207.47 461.172H238.719C238.719 461.172 250.129 457.189 252.779 446.827C255.429 436.466 264.443 407.013 245.652 371.706Z" fill="white" stroke="#263238" stroke-width="0.75" stroke-linecap="round" stroke-linejoin="round"/>
<path d="M251.357 427.57C251.077 430.166 250.663 432.826 250.114 435.551" stroke="#263238" stroke-width="0.75" stroke-linecap="round" stroke-linejoin="round"/>
<path d="M242.448 376.213C242.448 376.213 253.214 394.765 251.836 421.822" stroke="#263238" stroke-width="0.75" stroke-linecap="round" stroke-linejoin="round"/>
<path d="M79.4483 457.398V430.851C65.598 426.359 56.659 421.028 48.3189 416.027C36.3402 408.855 27.9552 389.524 33.5852 377.007C38.7509 365.447 53.0504 360.281 60.6569 365.447C68.0801 370.325 75.7464 374.823 83.6259 378.923C83.6259 378.923 79.643 365.642 80.1671 338.031C80.6911 310.42 82.2933 307.77 80.9606 305.644C79.628 303.518 55.506 317.727 37.5381 338.435C26.1434 351.627 11.5295 371.227 10.5712 402.102C9.77762 426.793 21.5167 446.752 28.8835 452.277C41.6258 461.83 59.0248 461.171 60.8815 461.171H79.4483C79.4483 459.809 79.4483 458.536 79.4483 457.398Z" fill="white" stroke="#263238" stroke-width="0.75" stroke-linecap="round" stroke-linejoin="round"/>
<path d="M16.2161 407.297C16.3517 410.566 16.7018 413.822 17.2642 417.045" stroke="#263238" stroke-width="0.75" stroke-linecap="round" stroke-linejoin="round"/>
<path d="M59.0249 325.648C54.7126 329.512 48.274 334.048 44.2762 338.675C32.8216 351.912 17.1745 370.823 16.1863 401.698" stroke="#263238" stroke-width="0.75" stroke-linecap="round" stroke-linejoin="round"/>
<path d="M120.835 457.982C120.835 472.581 98.3747 473.913 70.5244 473.913C42.674 473.913 20.2141 473.374 20.2141 457.982C20.2141 436.72 42.674 416.057 70.5244 416.057C98.3747 416.057 120.835 436.72 120.835 457.982Z" fill="#66359B" stroke="#263238" stroke-width="0.75" stroke-linecap="round" stroke-linejoin="round"/>
<path d="M70.4644 416.041C44.7553 416.041 23.583 433.739 20.5435 453.22C23.5381 465.483 44.7553 465.947 70.4644 465.947C96.1735 465.947 117.286 464.809 120.37 453.13C117.346 433.68 96.1885 416.041 70.4644 416.041Z" fill="#263238" stroke="#263238" stroke-width="0.75" stroke-linecap="round" stroke-linejoin="round"/>
<path d="M250.908 459.54C250.908 472.761 230.514 473.974 205.359 473.974C180.204 473.974 159.795 473.495 159.795 459.54C159.795 440.299 180.189 421.553 205.359 421.553C230.529 421.553 250.908 440.299 250.908 459.54Z" fill="#66359B" stroke="#263238" stroke-width="0.75" stroke-linecap="round" stroke-linejoin="round"/>
<path d="M205.358 421.553C182.075 421.553 162.894 437.589 160.154 455.243C162.894 466.338 182.075 466.757 205.358 466.757C228.642 466.757 247.748 465.724 250.548 455.153C247.748 437.544 228.597 421.553 205.358 421.553Z" fill="#263238" stroke="#263238" stroke-width="0.75" stroke-linecap="round" stroke-linejoin="round"/>
<path d="M382.717 302.08C380.937 301.415 379.494 300.069 378.705 298.339C377.916 296.61 377.846 294.638 378.51 292.857L398.724 238.818C399.053 237.933 399.554 237.122 400.196 236.431C400.839 235.739 401.612 235.181 402.471 234.788C403.329 234.396 404.257 234.176 405.2 234.141C406.144 234.107 407.085 234.259 407.97 234.588C408.855 234.918 409.666 235.418 410.357 236.061C411.049 236.704 411.607 237.477 412 238.335C412.392 239.194 412.612 240.121 412.647 241.065C412.681 242.008 412.529 242.95 412.2 243.834L391.986 297.873C391.656 298.76 391.155 299.573 390.51 300.265C389.864 300.957 389.089 301.515 388.227 301.906C387.366 302.297 386.435 302.514 385.49 302.544C384.544 302.574 383.602 302.416 382.717 302.08Z" fill="white" stroke="#263238" stroke-width="0.75" stroke-linecap="round" stroke-linejoin="round"/>
<path d="M405.986 248.553L394.636 278.38" stroke="#263238" stroke-width="0.75" stroke-linecap="round" stroke-linejoin="round"/>
<path d="M351.962 384.433C350.394 383.848 348.956 382.96 347.731 381.819C346.506 380.679 345.517 379.308 344.822 377.786C344.127 376.263 343.738 374.618 343.679 372.946C343.619 371.273 343.89 369.605 344.475 368.037L373.329 290.879C374.52 287.712 376.921 285.148 380.003 283.751C383.085 282.354 386.595 282.239 389.762 283.43C392.929 284.622 395.493 287.022 396.89 290.104C398.287 293.186 398.403 296.696 397.211 299.863L368.298 376.946C367.117 380.099 364.735 382.656 361.674 384.059C358.614 385.462 355.122 385.596 351.962 384.433Z" fill="#263238" stroke="#263238" stroke-width="0.75" stroke-linecap="round" stroke-linejoin="round"/>
<path d="M459.066 100.21C444.681 94.8308 429.024 93.838 414.075 97.3571C399.125 100.876 385.555 108.749 375.08 119.981C364.606 131.212 357.697 145.298 355.227 160.456C352.757 175.614 354.838 191.164 361.206 205.14C367.574 219.115 377.943 230.888 391.002 238.971C404.061 247.053 419.224 251.082 434.573 250.547C449.921 250.012 464.767 244.938 477.231 235.966C489.696 226.994 499.22 214.527 504.6 200.142C511.81 180.852 511.063 159.488 502.524 140.748C493.985 122.008 478.354 107.427 459.066 100.21ZM409.37 233.083C397.477 228.633 387.17 220.756 379.754 210.449C372.337 200.142 368.144 187.867 367.703 175.176C367.263 162.486 370.595 149.95 377.279 139.153C383.963 128.356 393.699 119.784 405.255 114.52C416.81 109.256 429.668 107.537 442.2 109.58C454.733 111.623 466.379 117.337 475.664 125.998C484.95 134.66 491.459 145.88 494.368 158.24C497.277 170.601 496.456 183.547 492.007 195.44C486.038 211.389 473.98 224.314 458.483 231.373C442.986 238.432 425.32 239.047 409.37 233.083Z" fill="#263238" stroke="#263238" stroke-width="0.75" stroke-linecap="round" stroke-linejoin="round"/>
<path d="M379.798 149.353C382.913 142.483 387.36 136.299 392.881 131.159C398.401 126.019 404.886 122.024 411.96 119.406" stroke="#263238" stroke-width="0.75" stroke-linecap="round" stroke-linejoin="round"/>
<path d="M374.662 173.129C374.646 167.305 375.525 161.513 377.267 155.955" stroke="#263238" stroke-width="0.75" stroke-linecap="round" stroke-linejoin="round"/>
<path d="M358.251 188.972C354.385 171.163 357.104 152.556 365.905 136.599C374.706 120.641 388.992 108.414 406.117 102.183C423.242 95.9511 442.045 96.1373 459.043 102.707C476.041 109.276 490.083 121.784 498.566 137.913" stroke="white" stroke-miterlimit="10"/>
<path d="M506.681 163.967C508.876 181.91 504.547 200.043 494.484 215.06C484.421 230.076 469.294 240.974 451.865 245.766C434.435 250.557 415.863 248.922 399.538 241.16C383.213 233.398 370.223 220.025 362.938 203.481" stroke="white" stroke-miterlimit="10"/>
<path d="M501.59 144.426C503.545 149.19 505.005 154.142 505.948 159.204" stroke="white" stroke-miterlimit="10"/>
<path d="M130.357 437.664C142.29 437.664 151.964 427.991 151.964 416.058C151.964 404.125 142.29 394.451 130.357 394.451C118.425 394.451 108.751 404.125 108.751 416.058C108.751 427.991 118.425 437.664 130.357 437.664Z" fill="#263238"/>
<path d="M130.357 434.293C140.43 434.293 148.595 426.128 148.595 416.056C148.595 405.984 140.43 397.818 130.357 397.818C120.285 397.818 112.12 405.984 112.12 416.056C112.12 426.128 120.285 434.293 130.357 434.293Z" fill="white" stroke="#263238" stroke-width="0.75" stroke-linecap="round" stroke-linejoin="round"/>
<path d="M124.818 421.448C124.659 421.285 124.571 421.068 124.571 420.841C124.571 420.615 124.659 420.397 124.818 420.235L129.759 415.294C129.921 415.135 130.139 415.047 130.365 415.047C130.592 415.047 130.809 415.135 130.972 415.294C131.054 415.373 131.12 415.469 131.164 415.574C131.209 415.68 131.232 415.793 131.232 415.908C131.232 416.022 131.209 416.136 131.164 416.241C131.12 416.346 131.054 416.442 130.972 416.521L126.045 421.448C125.966 421.53 125.87 421.596 125.765 421.64C125.659 421.685 125.546 421.708 125.432 421.708C125.317 421.708 125.204 421.685 125.098 421.64C124.993 421.596 124.897 421.53 124.818 421.448Z" fill="#263238"/>
<path d="M117.301 428.964C117.154 428.824 117.036 428.656 116.956 428.469C116.876 428.282 116.835 428.081 116.835 427.878C116.835 427.675 116.876 427.474 116.956 427.288C117.036 427.101 117.154 426.933 117.301 426.793L124.338 419.755C124.478 419.606 124.648 419.486 124.836 419.405C125.024 419.323 125.226 419.281 125.431 419.281C125.636 419.281 125.839 419.323 126.027 419.405C126.215 419.486 126.384 419.606 126.524 419.755C126.672 419.895 126.789 420.063 126.869 420.25C126.949 420.437 126.99 420.638 126.99 420.841C126.99 421.044 126.949 421.245 126.869 421.432C126.789 421.618 126.672 421.787 126.524 421.926L119.487 428.964C119.347 429.113 119.178 429.233 118.99 429.314C118.801 429.396 118.599 429.438 118.394 429.438C118.189 429.438 117.986 429.396 117.798 429.314C117.61 429.233 117.441 429.113 117.301 428.964Z" fill="#263238"/>
<path d="M143.325 416.356C144.639 415.044 145.535 413.371 145.898 411.55C146.262 409.728 146.077 407.84 145.367 406.123C144.656 404.407 143.453 402.94 141.909 401.907C140.365 400.875 138.549 400.324 136.691 400.324C134.834 400.324 133.018 400.875 131.474 401.907C129.93 402.94 128.727 404.407 128.016 406.123C127.306 407.84 127.121 409.728 127.485 411.55C127.848 413.371 128.744 415.044 130.058 416.356C131.819 418.114 134.204 419.101 136.691 419.101C139.179 419.101 141.564 418.114 143.325 416.356Z" fill="#263238"/>
<path d="M141.528 414.546C142.48 413.59 143.128 412.373 143.39 411.05C143.651 409.726 143.515 408.354 142.997 407.108C142.48 405.862 141.605 404.797 140.482 404.047C139.36 403.298 138.041 402.898 136.691 402.898C135.342 402.898 134.023 403.298 132.9 404.047C131.778 404.797 130.903 405.862 130.386 407.108C129.868 408.354 129.731 409.726 129.993 411.05C130.255 412.373 130.902 413.59 131.855 414.546C132.489 415.182 133.243 415.687 134.073 416.032C134.903 416.377 135.793 416.554 136.691 416.554C137.59 416.554 138.48 416.377 139.31 416.032C140.14 415.687 140.893 415.182 141.528 414.546Z" fill="white"/>
<path d="M398.379 339.005C398.379 340.907 397.624 342.731 396.279 344.076C394.934 345.421 393.109 346.177 391.207 346.177H340.642C339.674 346.221 338.707 346.069 337.799 345.728C336.891 345.388 336.061 344.868 335.36 344.198C334.659 343.528 334.102 342.724 333.72 341.832C333.339 340.941 333.143 339.982 333.143 339.012C333.143 338.043 333.339 337.083 333.72 336.192C334.102 335.301 334.659 334.496 335.36 333.826C336.061 333.156 336.891 332.636 337.799 332.296C338.707 331.956 339.674 331.803 340.642 331.847H391.207C393.107 331.847 394.929 332.601 396.273 333.943C397.618 335.285 398.375 337.105 398.379 339.005Z" fill="#DE32F4" stroke="#263238" stroke-width="0.75" stroke-linecap="round" stroke-linejoin="round"/>
<path d="M368.118 343.962C370.318 343.962 372.101 342.179 372.101 339.979C372.101 337.779 370.318 335.996 368.118 335.996C365.919 335.996 364.135 337.779 364.135 339.979C364.135 342.179 365.919 343.962 368.118 343.962Z" fill="white" stroke="#263238" stroke-width="0.75" stroke-linecap="round" stroke-linejoin="round"/>
<path d="M307.581 386.724C312.94 386.724 317.284 382.38 317.284 377.021C317.284 371.662 312.94 367.318 307.581 367.318C302.223 367.318 297.879 371.662 297.879 377.021C297.879 382.38 302.223 386.724 307.581 386.724Z" fill="#66359B" stroke="#263238" stroke-width="0.75" stroke-linecap="round" stroke-linejoin="round"/>
<path d="M311.22 377.023C311.223 376.302 311.012 375.597 310.614 374.997C310.216 374.397 309.649 373.928 308.984 373.65C308.32 373.373 307.588 373.299 306.881 373.437C306.174 373.576 305.524 373.921 305.014 374.43C304.504 374.938 304.156 375.586 304.014 376.292C303.872 376.998 303.943 377.731 304.218 378.397C304.493 379.062 304.96 379.631 305.558 380.032C306.157 380.432 306.861 380.646 307.581 380.646C308.544 380.646 309.467 380.265 310.149 379.586C310.831 378.907 311.216 377.985 311.22 377.023Z" fill="white" stroke="#263238" stroke-width="0.75" stroke-linecap="round" stroke-linejoin="round"/>
<path d="M340.642 348.888C346.001 348.888 350.345 344.544 350.345 339.185C350.345 333.826 346.001 329.482 340.642 329.482C335.284 329.482 330.94 333.826 330.94 339.185C330.94 344.544 335.284 348.888 340.642 348.888Z" fill="#66359B" stroke="#263238" stroke-width="0.75" stroke-linecap="round" stroke-linejoin="round"/>
<path d="M340.642 342.926C342.71 342.926 344.386 341.25 344.386 339.183C344.386 337.115 342.71 335.439 340.642 335.439C338.575 335.439 336.899 337.115 336.899 339.183C336.899 341.25 338.575 342.926 340.642 342.926Z" fill="white" stroke="#263238" stroke-width="0.75" stroke-linecap="round" stroke-linejoin="round"/>
</svg>
