<?xml version="1.0" standalone="no"?>
<!DOCTYPE svg PUBLIC "-//W3C//DTD SVG 20010904//EN"
 "http://www.w3.org/TR/2001/REC-SVG-20010904/DTD/svg10.dtd">
<svg version="1.0" xmlns="http://www.w3.org/2000/svg"
 width="1280.000000pt" height="1089.000000pt" viewBox="0 0 1280.000000 1089.000000"
 preserveAspectRatio="xMidYMid meet">
<metadata>
Created by potrace 1.15, written by Peter Selinger 2001-2017
</metadata>
<g transform="translate(0.000000,1089.000000) scale(0.100000,-0.100000)"
fill="#e91e63" stroke="none">
<path d="M8825 9751 c-60 -5 -135 -13 -165 -19 -30 -6 -80 -14 -110 -17 -183
-21 -550 -135 -745 -232 -199 -98 -331 -167 -345 -178 -14 -12 -96 -58 -326
-182 -155 -83 -382 -149 -588 -171 -95 -10 -297 -7 -351 6 -174 42 -427 144
-785 319 -107 53 -255 119 -330 148 -74 29 -224 87 -332 129 -124 48 -245 87
-326 106 -257 58 -302 63 -547 64 -366 2 -466 -16 -850 -147 -251 -85 -453
-196 -775 -423 -67 -47 -242 -209 -323 -299 -148 -163 -183 -208 -292 -380
-59 -93 -115 -181 -124 -195 -30 -42 -149 -273 -166 -319 -8 -25 -24 -63 -34
-85 -28 -59 -75 -210 -117 -371 -61 -238 -88 -389 -107 -600 -8 -88 -15 -173
-15 -190 -9 -543 0 -635 114 -1199 18 -89 118 -382 189 -556 56 -137 206 -439
271 -547 63 -104 106 -168 238 -353 61 -85 122 -171 136 -191 228 -336 644
-753 1061 -1067 46 -34 116 -87 154 -118 39 -30 131 -98 205 -151 74 -53 151
-108 170 -123 31 -24 260 -173 413 -269 31 -20 79 -51 105 -68 26 -18 84 -55
130 -83 46 -28 113 -70 150 -94 82 -52 145 -90 327 -194 77 -44 156 -90 175
-103 19 -12 148 -83 285 -157 138 -74 275 -149 305 -167 30 -18 82 -46 115
-62 33 -16 119 -63 190 -103 232 -131 508 -260 644 -301 55 -16 87 -20 130
-16 61 7 170 41 241 76 25 13 97 46 160 75 63 28 160 77 215 107 55 31 181
101 280 156 99 55 216 119 260 143 342 182 557 301 695 385 80 48 166 98 193
111 26 14 108 64 182 112 214 139 365 235 392 249 14 7 59 39 101 71 43 32
129 92 192 135 63 42 153 109 200 147 47 39 130 108 185 153 231 190 785 762
920 951 94 132 108 150 138 183 42 45 94 119 188 268 45 72 108 168 139 215
104 157 269 467 355 670 149 347 229 614 300 1000 30 166 46 573 29 770 -23
269 -78 522 -168 765 -61 166 -97 239 -321 660 -86 163 -217 357 -344 511 -14
18 -48 60 -76 94 -54 67 -268 270 -375 355 -83 66 -339 238 -438 293 -84 48
-279 131 -390 168 -327 107 -695 156 -1007 135z m-4670 -1435 c128 -23 405
-102 505 -143 47 -20 167 -76 268 -124 100 -49 185 -89 188 -89 4 0 32 -13 63
-29 31 -15 67 -32 81 -36 14 -4 102 -44 195 -87 183 -85 406 -176 495 -201
219 -62 475 -81 661 -48 219 39 405 83 504 121 55 20 118 43 140 50 45 14 115
46 290 130 162 78 253 120 259 120 6 0 126 52 291 128 142 64 213 90 355 129
257 70 470 96 704 87 266 -10 460 -69 670 -201 247 -155 365 -296 487 -579
126 -292 190 -785 160 -1229 -13 -190 -21 -228 -99 -475 -135 -430 -322 -798
-562 -1109 -83 -106 -259 -321 -318 -386 -93 -102 -290 -300 -377 -379 -49
-44 -95 -85 -101 -91 -6 -5 -42 -35 -79 -65 -38 -30 -85 -69 -104 -85 -20 -17
-56 -47 -81 -65 -24 -19 -54 -44 -67 -56 -12 -11 -51 -38 -85 -59 -35 -21 -77
-50 -94 -64 -61 -50 -623 -411 -639 -411 -3 0 -38 -22 -78 -49 -40 -27 -119
-75 -177 -106 -58 -32 -123 -70 -145 -85 -45 -31 -163 -97 -310 -174 -55 -29
-120 -64 -145 -78 -373 -207 -429 -233 -510 -232 -59 1 -80 7 -225 73 -270
123 -474 235 -640 351 -22 15 -80 52 -130 82 -148 90 -306 188 -375 233 -246
159 -252 163 -538 341 -169 106 -263 175 -528 391 -490 399 -709 613 -996 973
-93 117 -140 195 -241 401 -135 277 -155 324 -215 509 -56 173 -86 306 -102
455 -6 55 -18 154 -26 220 -20 169 -20 477 0 585 9 47 21 109 26 139 5 30 19
84 30 120 11 36 25 82 31 101 31 101 108 274 152 340 28 41 65 98 84 125 47
71 163 186 268 265 130 98 390 230 482 245 21 4 49 11 63 16 84 31 371 34 535
5z"/>
<path d="M7242 6945 c-40 -7 -105 -23 -145 -35 -78 -24 -306 -139 -347 -175
-32 -28 -143 -112 -195 -147 -82 -56 -179 -30 -334 88 -104 80 -235 160 -301
185 -115 43 -314 61 -445 39 -33 -6 -90 -15 -127 -20 -118 -17 -369 -133 -477
-220 -70 -56 -178 -188 -231 -280 -96 -168 -133 -314 -146 -570 -9 -179 24
-371 101 -584 41 -113 85 -192 201 -361 113 -165 192 -255 331 -376 65 -56
141 -124 168 -150 28 -26 109 -87 181 -136 233 -158 305 -207 367 -254 34 -25
94 -65 132 -89 95 -58 236 -140 241 -140 2 0 60 -27 129 -60 118 -57 127 -60
164 -50 92 25 366 182 476 273 33 28 101 77 150 108 50 32 108 71 130 86 22
15 74 48 116 73 42 25 128 90 190 145 146 130 376 358 414 412 17 23 79 104
139 179 129 162 135 173 175 288 17 48 41 101 52 118 12 16 36 72 54 126 18
53 41 117 51 142 28 67 26 398 -4 520 -34 144 -38 155 -91 265 -105 220 -304
422 -526 532 -136 68 -416 100 -593 68z"/>
</g>
</svg>
