<svg width="632" height="373" viewBox="0 0 632 373" fill="none" xmlns="http://www.w3.org/2000/svg">
<rect y="1" width="19.4222" height="20" fill="#303030" fill-opacity="0.5"/>
<rect y="45" width="19.4222" height="20" fill="#303030" fill-opacity="0.5"/>
<rect y="89" width="19.4222" height="20" fill="#303030" fill-opacity="0.5"/>
<rect y="133" width="19.4222" height="20" fill="#303030" fill-opacity="0.5"/>
<rect y="177" width="19.4222" height="20" fill="#303030" fill-opacity="0.5"/>
<rect y="221" width="19.4222" height="20" fill="#303030" fill-opacity="0.5"/>
<rect y="265" width="19.4222" height="20" fill="#303030" fill-opacity="0.5"/>
<rect y="309" width="19.4222" height="20" fill="#303030" fill-opacity="0.5"/>
<rect y="353" width="19.4222" height="20" fill="#303030" fill-opacity="0.5"/>
<rect x="33.9888" width="19.4222" height="20" fill="#303030" fill-opacity="0.5"/>
<rect x="33.9888" y="44" width="19.4222" height="20" fill="#303030" fill-opacity="0.5"/>
<rect x="33.9888" y="88" width="19.4222" height="20" fill="#303030" fill-opacity="0.5"/>
<rect x="33.9888" y="132" width="19.4222" height="20" fill="#303030" fill-opacity="0.5"/>
<rect x="33.9888" y="176" width="19.4222" height="20" fill="#303030" fill-opacity="0.5"/>
<rect x="33.9888" y="220" width="19.4222" height="20" fill="#303030" fill-opacity="0.5"/>
<rect x="33.9888" y="264" width="19.4222" height="20" fill="#303030" fill-opacity="0.5"/>
<rect x="33.9888" y="308" width="19.4222" height="20" fill="#303030" fill-opacity="0.5"/>
<rect x="33.9888" y="352" width="19.4222" height="20" fill="#303030" fill-opacity="0.5"/>
<rect x="67.9775" width="19.4222" height="20" fill="#303030" fill-opacity="0.5"/>
<rect x="67.9775" y="44" width="19.4222" height="20" fill="#303030" fill-opacity="0.5"/>
<rect x="67.9775" y="88" width="19.4222" height="20" fill="#303030" fill-opacity="0.5"/>
<rect x="67.9775" y="132" width="19.4222" height="20" fill="#303030" fill-opacity="0.5"/>
<rect x="67.9775" y="176" width="19.4222" height="20" fill="#303030" fill-opacity="0.5"/>
<rect x="67.9775" y="220" width="19.4222" height="20" fill="#303030" fill-opacity="0.5"/>
<rect x="67.9775" y="264" width="19.4222" height="20" fill="#303030" fill-opacity="0.5"/>
<rect x="67.9775" y="308" width="19.4222" height="20" fill="#303030" fill-opacity="0.5"/>
<rect x="67.9775" y="352" width="19.4222" height="20" fill="#303030" fill-opacity="0.5"/>
<rect x="101.967" width="19.4222" height="20" fill="#303030" fill-opacity="0.5"/>
<rect x="101.967" y="44" width="19.4222" height="20" fill="#303030" fill-opacity="0.5"/>
<rect x="101.967" y="88" width="19.4222" height="20" fill="#303030" fill-opacity="0.5"/>
<rect x="101.967" y="132" width="19.4222" height="20" fill="#303030" fill-opacity="0.5"/>
<rect x="101.967" y="176" width="19.4222" height="20" fill="#303030" fill-opacity="0.5"/>
<rect x="101.967" y="220" width="19.4222" height="20" fill="#303030" fill-opacity="0.5"/>
<rect x="101.967" y="264" width="19.4222" height="20" fill="#303030" fill-opacity="0.5"/>
<rect x="101.967" y="308" width="19.4222" height="20" fill="#303030" fill-opacity="0.5"/>
<rect x="101.967" y="352" width="19.4222" height="20" fill="#303030" fill-opacity="0.5"/>
<rect x="135.956" width="19.4222" height="20" fill="#303030" fill-opacity="0.5"/>
<rect x="135.956" y="44" width="19.4222" height="20" fill="#303030" fill-opacity="0.5"/>
<rect x="135.956" y="88" width="19.4222" height="20" fill="#303030" fill-opacity="0.5"/>
<rect x="135.956" y="132" width="19.4222" height="20" fill="#303030" fill-opacity="0.5"/>
<rect x="135.956" y="176" width="19.4222" height="20" fill="#303030" fill-opacity="0.5"/>
<rect x="135.956" y="220" width="19.4222" height="20" fill="#303030" fill-opacity="0.5"/>
<rect x="135.956" y="264" width="19.4222" height="20" fill="#303030" fill-opacity="0.5"/>
<rect x="135.956" y="308" width="19.4222" height="20" fill="#303030" fill-opacity="0.5"/>
<rect x="135.956" y="352" width="19.4222" height="20" fill="#303030" fill-opacity="0.5"/>
<rect x="169.944" width="19.4222" height="20" fill="#303030" fill-opacity="0.5"/>
<rect x="169.944" y="44" width="19.4222" height="20" fill="#303030" fill-opacity="0.5"/>
<rect x="169.944" y="88" width="19.4222" height="20" fill="#303030" fill-opacity="0.5"/>
<rect x="169.944" y="132" width="19.4222" height="20" fill="#303030" fill-opacity="0.5"/>
<rect x="169.944" y="176" width="19.4222" height="20" fill="#303030" fill-opacity="0.5"/>
<rect x="169.944" y="220" width="19.4222" height="20" fill="#303030" fill-opacity="0.5"/>
<rect x="169.944" y="264" width="19.4222" height="20" fill="#303030" fill-opacity="0.5"/>
<rect x="169.944" y="308" width="19.4222" height="20" fill="#303030" fill-opacity="0.5"/>
<rect x="169.944" y="352" width="19.4222" height="20" fill="#303030" fill-opacity="0.5"/>
<rect x="203.933" width="19.4222" height="20" fill="#303030" fill-opacity="0.5"/>
<rect x="203.933" y="44" width="19.4222" height="20" fill="#303030" fill-opacity="0.5"/>
<rect x="203.933" y="88" width="19.4222" height="20" fill="#303030" fill-opacity="0.5"/>
<rect x="203.933" y="132" width="19.4222" height="20" fill="#303030" fill-opacity="0.5"/>
<rect x="203.933" y="176" width="19.4222" height="20" fill="#303030" fill-opacity="0.5"/>
<rect x="203.933" y="220" width="19.4222" height="20" fill="#303030" fill-opacity="0.5"/>
<rect x="203.933" y="264" width="19.4222" height="20" fill="#303030" fill-opacity="0.5"/>
<rect x="203.933" y="308" width="19.4222" height="20" fill="#303030" fill-opacity="0.5"/>
<rect x="203.933" y="352" width="19.4222" height="20" fill="#303030" fill-opacity="0.5"/>
<rect x="237.922" width="19.4222" height="20" fill="#303030" fill-opacity="0.5"/>
<rect x="237.922" y="44" width="19.4222" height="20" fill="#303030" fill-opacity="0.5"/>
<rect x="237.922" y="88" width="19.4222" height="20" fill="#303030" fill-opacity="0.5"/>
<rect x="237.922" y="132" width="19.4222" height="20" fill="#303030" fill-opacity="0.5"/>
<rect x="237.922" y="176" width="19.4222" height="20" fill="#303030" fill-opacity="0.5"/>
<rect x="237.922" y="220" width="19.4222" height="20" fill="#303030" fill-opacity="0.5"/>
<rect x="237.922" y="264" width="19.4222" height="20" fill="#303030" fill-opacity="0.5"/>
<rect x="237.922" y="308" width="19.4222" height="20" fill="#303030" fill-opacity="0.5"/>
<rect x="237.922" y="352" width="19.4222" height="20" fill="#303030" fill-opacity="0.5"/>
<rect x="271.911" width="19.4222" height="20" fill="#303030" fill-opacity="0.5"/>
<rect x="271.911" y="44" width="19.4222" height="20" fill="#303030" fill-opacity="0.5"/>
<rect x="271.911" y="88" width="19.4222" height="20" fill="#303030" fill-opacity="0.5"/>
<rect x="271.911" y="132" width="19.4222" height="20" fill="#303030" fill-opacity="0.5"/>
<rect x="271.911" y="176" width="19.4222" height="20" fill="#303030" fill-opacity="0.5"/>
<rect x="271.911" y="220" width="19.4222" height="20" fill="#303030" fill-opacity="0.5"/>
<rect x="271.911" y="264" width="19.4222" height="20" fill="#303030" fill-opacity="0.5"/>
<rect x="271.911" y="308" width="19.4222" height="20" fill="#303030" fill-opacity="0.5"/>
<rect x="271.911" y="352" width="19.4222" height="20" fill="#303030" fill-opacity="0.5"/>
<rect x="305.9" width="19.4222" height="20" fill="#303030" fill-opacity="0.5"/>
<rect x="305.9" y="44" width="19.4222" height="20" fill="#303030" fill-opacity="0.5"/>
<rect x="305.9" y="88" width="19.4222" height="20" fill="#303030" fill-opacity="0.5"/>
<rect x="305.9" y="132" width="19.4222" height="20" fill="#303030" fill-opacity="0.5"/>
<rect x="305.9" y="176" width="19.4222" height="20" fill="#303030" fill-opacity="0.5"/>
<rect x="305.9" y="220" width="19.4222" height="20" fill="#303030" fill-opacity="0.5"/>
<rect x="305.9" y="264" width="19.4222" height="20" fill="#303030" fill-opacity="0.5"/>
<rect x="305.9" y="308" width="19.4222" height="20" fill="#303030" fill-opacity="0.5"/>
<rect x="305.9" y="352" width="19.4222" height="20" fill="#303030" fill-opacity="0.5"/>
<rect x="339.889" width="19.4222" height="20" fill="#303030" fill-opacity="0.5"/>
<rect x="339.889" y="44" width="19.4222" height="20" fill="#303030" fill-opacity="0.5"/>
<rect x="339.889" y="88" width="19.4222" height="20" fill="#303030" fill-opacity="0.5"/>
<rect x="339.889" y="132" width="19.4222" height="20" fill="#303030" fill-opacity="0.5"/>
<rect x="339.889" y="176" width="19.4222" height="20" fill="#303030" fill-opacity="0.5"/>
<rect x="339.889" y="220" width="19.4222" height="20" fill="#303030" fill-opacity="0.5"/>
<rect x="339.889" y="264" width="19.4222" height="20" fill="#303030" fill-opacity="0.5"/>
<rect x="339.889" y="308" width="19.4222" height="20" fill="#303030" fill-opacity="0.5"/>
<rect x="339.889" y="352" width="19.4222" height="20" fill="#303030" fill-opacity="0.5"/>
<rect x="373.878" width="19.4222" height="20" fill="#303030" fill-opacity="0.5"/>
<rect x="373.878" y="44" width="19.4222" height="20" fill="#303030" fill-opacity="0.5"/>
<rect x="373.878" y="88" width="19.4222" height="20" fill="#303030" fill-opacity="0.5"/>
<rect x="373.878" y="132" width="19.4222" height="20" fill="#303030" fill-opacity="0.5"/>
<rect x="373.878" y="176" width="19.4222" height="20" fill="#303030" fill-opacity="0.5"/>
<rect x="373.878" y="220" width="19.4222" height="20" fill="#303030" fill-opacity="0.5"/>
<rect x="373.878" y="264" width="19.4222" height="20" fill="#303030" fill-opacity="0.5"/>
<rect x="373.878" y="308" width="19.4222" height="20" fill="#303030" fill-opacity="0.5"/>
<rect x="373.878" y="352" width="19.4222" height="20" fill="#303030" fill-opacity="0.5"/>
<rect x="407.867" width="19.4222" height="20" fill="#303030" fill-opacity="0.5"/>
<rect x="407.867" y="44" width="19.4222" height="20" fill="#303030" fill-opacity="0.5"/>
<rect x="407.867" y="88" width="19.4222" height="20" fill="#303030" fill-opacity="0.5"/>
<rect x="407.867" y="132" width="19.4222" height="20" fill="#303030" fill-opacity="0.5"/>
<rect x="407.867" y="176" width="19.4222" height="20" fill="#303030" fill-opacity="0.5"/>
<rect x="407.867" y="220" width="19.4222" height="20" fill="#303030" fill-opacity="0.5"/>
<rect x="407.867" y="264" width="19.4222" height="20" fill="#303030" fill-opacity="0.5"/>
<rect x="407.867" y="308" width="19.4222" height="20" fill="#303030" fill-opacity="0.5"/>
<rect x="407.867" y="352" width="19.4222" height="20" fill="#303030" fill-opacity="0.5"/>
<rect x="441.855" width="19.4222" height="20" fill="#303030" fill-opacity="0.5"/>
<rect x="441.855" y="44" width="19.4222" height="20" fill="#303030" fill-opacity="0.5"/>
<rect x="441.855" y="88" width="19.4222" height="20" fill="#303030" fill-opacity="0.5"/>
<rect x="441.855" y="132" width="19.4222" height="20" fill="#303030" fill-opacity="0.5"/>
<rect x="441.855" y="176" width="19.4222" height="20" fill="#303030" fill-opacity="0.5"/>
<rect x="441.855" y="220" width="19.4222" height="20" fill="#303030" fill-opacity="0.5"/>
<rect x="441.855" y="264" width="19.4222" height="20" fill="#303030" fill-opacity="0.5"/>
<rect x="441.855" y="308" width="19.4222" height="20" fill="#303030" fill-opacity="0.5"/>
<rect x="441.855" y="352" width="19.4222" height="20" fill="#303030" fill-opacity="0.5"/>
<rect x="475.844" width="19.4222" height="20" fill="#303030" fill-opacity="0.5"/>
<rect x="475.844" y="44" width="19.4222" height="20" fill="#303030" fill-opacity="0.5"/>
<rect x="475.844" y="88" width="19.4222" height="20" fill="#303030" fill-opacity="0.5"/>
<rect x="475.844" y="132" width="19.4222" height="20" fill="#303030" fill-opacity="0.5"/>
<rect x="475.844" y="176" width="19.4222" height="20" fill="#303030" fill-opacity="0.5"/>
<rect x="475.844" y="220" width="19.4222" height="20" fill="#303030" fill-opacity="0.5"/>
<rect x="475.844" y="264" width="19.4222" height="20" fill="#303030" fill-opacity="0.5"/>
<rect x="475.844" y="308" width="19.4222" height="20" fill="#303030" fill-opacity="0.5"/>
<rect x="475.844" y="352" width="19.4222" height="20" fill="#303030" fill-opacity="0.5"/>
<rect x="509.833" width="19.4222" height="20" fill="#303030" fill-opacity="0.5"/>
<rect x="509.833" y="44" width="19.4222" height="20" fill="#303030" fill-opacity="0.5"/>
<rect x="509.833" y="88" width="19.4222" height="20" fill="#303030" fill-opacity="0.5"/>
<rect x="509.833" y="132" width="19.4222" height="20" fill="#303030" fill-opacity="0.5"/>
<rect x="509.833" y="176" width="19.4222" height="20" fill="#303030" fill-opacity="0.5"/>
<rect x="509.833" y="220" width="19.4222" height="20" fill="#303030" fill-opacity="0.5"/>
<rect x="509.833" y="264" width="19.4222" height="20" fill="#303030" fill-opacity="0.5"/>
<rect x="509.833" y="308" width="19.4222" height="20" fill="#303030" fill-opacity="0.5"/>
<rect x="509.833" y="352" width="19.4222" height="20" fill="#303030" fill-opacity="0.5"/>
<rect x="543.822" width="19.4222" height="20" fill="#303030" fill-opacity="0.5"/>
<rect x="543.822" y="44" width="19.4222" height="20" fill="#303030" fill-opacity="0.5"/>
<rect x="543.822" y="88" width="19.4222" height="20" fill="#303030" fill-opacity="0.5"/>
<rect x="543.822" y="132" width="19.4222" height="20" fill="#303030" fill-opacity="0.5"/>
<rect x="543.822" y="176" width="19.4222" height="20" fill="#303030" fill-opacity="0.5"/>
<rect x="543.822" y="220" width="19.4222" height="20" fill="#303030" fill-opacity="0.5"/>
<rect x="543.822" y="264" width="19.4222" height="20" fill="#303030" fill-opacity="0.5"/>
<rect x="543.822" y="308" width="19.4222" height="20" fill="#303030" fill-opacity="0.5"/>
<rect x="543.822" y="352" width="19.4222" height="20" fill="#303030" fill-opacity="0.5"/>
<rect x="577.811" width="19.4222" height="20" fill="#303030" fill-opacity="0.5"/>
<rect x="577.811" y="44" width="19.4222" height="20" fill="#303030" fill-opacity="0.5"/>
<rect x="577.811" y="88" width="19.4222" height="20" fill="#303030" fill-opacity="0.5"/>
<rect x="577.811" y="132" width="19.4222" height="20" fill="#303030" fill-opacity="0.5"/>
<rect x="577.811" y="176" width="19.4222" height="20" fill="#303030" fill-opacity="0.5"/>
<rect x="577.811" y="220" width="19.4222" height="20" fill="#303030" fill-opacity="0.5"/>
<rect x="577.811" y="264" width="19.4222" height="20" fill="#303030" fill-opacity="0.5"/>
<rect x="577.811" y="308" width="19.4222" height="20" fill="#303030" fill-opacity="0.5"/>
<rect x="577.811" y="352" width="19.4222" height="20" fill="#303030" fill-opacity="0.5"/>
<rect x="611.8" width="19.4222" height="20" fill="#303030" fill-opacity="0.5"/>
<rect x="611.8" y="44" width="19.4222" height="20" fill="#303030" fill-opacity="0.5"/>
<rect x="611.8" y="88" width="19.4222" height="20" fill="#303030" fill-opacity="0.5"/>
<rect x="611.8" y="132" width="19.4222" height="20" fill="#303030" fill-opacity="0.5"/>
<rect x="611.8" y="176" width="19.4222" height="20" fill="#303030" fill-opacity="0.5"/>
<rect x="611.8" y="220" width="19.4222" height="20" fill="#303030" fill-opacity="0.5"/>
<rect x="611.8" y="264" width="19.4222" height="20" fill="#303030" fill-opacity="0.5"/>
<rect x="611.8" y="308" width="19.4222" height="20" fill="#303030" fill-opacity="0.5"/>
<rect x="611.8" y="352" width="19.4222" height="20" fill="#303030" fill-opacity="0.5"/>
</svg>
