<svg width="834" height="1194" viewBox="0 0 834 1194" fill="none" xmlns="http://www.w3.org/2000/svg">
<g clip-path="url(#clip0_60_826)">
<rect width="834" height="1194" fill="#232323"/>
<path d="M108.5 229.5C75.5 209 -239 11 -239 11H-164.5C-164.5 11 108.5 179 134.5 194.5C160.5 210 141.5 250 108.5 229.5Z" fill="url(#paint0_linear_60_826)" fill-opacity="0.3"/>
<path d="M205.5 201.5C172.5 181 -142 -17 -142 -17H-67.5C-67.5 -17 205.5 151 231.5 166.5C257.5 182 238.5 222 205.5 201.5Z" fill="url(#paint1_linear_60_826)" fill-opacity="0.3"/>
<path d="M312.5 171.5C279.5 151 -35 -47 -35 -47H39.5C39.5 -47 312.5 121 338.5 136.5C364.5 152 345.5 192 312.5 171.5Z" fill="url(#paint2_linear_60_826)" fill-opacity="0.3"/>
<path d="M646.013 1050L635 1038.05L726.253 939.067H674.333V922H753V1007.33H737.267V951.013L646.013 1050Z" fill="url(#paint3_linear_60_826)"/>
<path d="M108.5 229.5C75.5 209 -239 11 -239 11H-164.5C-164.5 11 108.5 179 134.5 194.5C160.5 210 141.5 250 108.5 229.5Z" fill="url(#paint4_linear_60_826)" fill-opacity="0.3"/>
<path d="M205.5 201.5C172.5 181 -142 -17 -142 -17H-67.5C-67.5 -17 205.5 151 231.5 166.5C257.5 182 238.5 222 205.5 201.5Z" fill="url(#paint5_linear_60_826)" fill-opacity="0.3"/>
<path d="M312.5 171.5C279.5 151 -35 -47 -35 -47H39.5C39.5 -47 312.5 121 338.5 136.5C364.5 152 345.5 192 312.5 171.5Z" fill="url(#paint6_linear_60_826)" fill-opacity="0.3"/>
<g filter="url(#filter0_d_60_826)">
<rect x="125" y="649" width="473" height="545" fill="#5E2898"/>
</g>
<g filter="url(#filter1_i_60_826)">
<rect x="598" y="803" width="473" height="154" transform="rotate(180 598 803)" fill="#101010" fill-opacity="0.5"/>
</g>
<rect x="-4.02979" y="235" width="20.6815" height="21.8231" fill="#303030" fill-opacity="0.2"/>
<rect x="-4.02979" y="283.012" width="20.6815" height="21.8231" fill="#303030" fill-opacity="0.2"/>
<rect x="-4.02979" y="331.02" width="20.6815" height="21.8231" fill="#303030" fill-opacity="0.2"/>
<rect x="-4.02979" y="379.031" width="20.6815" height="21.8231" fill="#303030" fill-opacity="0.2"/>
<rect x="-4.02979" y="427.043" width="20.6815" height="21.8231" fill="#303030" fill-opacity="0.2"/>
<rect x="-4.02979" y="475.055" width="20.6815" height="21.8231" fill="#303030" fill-opacity="0.2"/>
<rect x="-4.02979" y="523.062" width="20.6815" height="21.8231" fill="#303030" fill-opacity="0.2"/>
<rect x="-4.02979" y="571.074" width="20.6815" height="21.8231" fill="#303030" fill-opacity="0.2"/>
<rect x="-4.02979" y="619.086" width="20.6815" height="21.8231" fill="#303030" fill-opacity="0.2"/>
<rect x="32.1631" y="235" width="20.6815" height="21.8231" fill="#303030" fill-opacity="0.2"/>
<rect x="32.1631" y="283.012" width="20.6815" height="21.8231" fill="#303030" fill-opacity="0.2"/>
<rect x="32.1631" y="331.02" width="20.6815" height="21.8231" fill="#303030" fill-opacity="0.2"/>
<rect x="32.1631" y="379.031" width="20.6815" height="21.8231" fill="#303030" fill-opacity="0.2"/>
<rect x="32.1631" y="427.043" width="20.6815" height="21.8231" fill="#303030" fill-opacity="0.2"/>
<rect x="32.1631" y="475.055" width="20.6815" height="21.8231" fill="#303030" fill-opacity="0.2"/>
<rect x="32.1631" y="523.062" width="20.6815" height="21.8231" fill="#303030" fill-opacity="0.2"/>
<rect x="32.1631" y="571.074" width="20.6815" height="21.8231" fill="#303030" fill-opacity="0.2"/>
<rect x="32.1631" y="619.086" width="20.6815" height="21.8231" fill="#303030" fill-opacity="0.2"/>
<rect x="68.3555" y="235" width="20.6815" height="21.8231" fill="#303030" fill-opacity="0.2"/>
<rect x="68.3555" y="283.012" width="20.6815" height="21.8231" fill="#303030" fill-opacity="0.2"/>
<rect x="68.3555" y="331.02" width="20.6815" height="21.8231" fill="#303030" fill-opacity="0.2"/>
<rect x="68.3555" y="379.031" width="20.6815" height="21.8231" fill="#303030" fill-opacity="0.2"/>
<rect x="68.3555" y="427.043" width="20.6815" height="21.8231" fill="#303030" fill-opacity="0.2"/>
<rect x="68.3555" y="475.055" width="20.6815" height="21.8231" fill="#303030" fill-opacity="0.2"/>
<rect x="68.3555" y="523.062" width="20.6815" height="21.8231" fill="#303030" fill-opacity="0.2"/>
<rect x="68.3555" y="571.074" width="20.6815" height="21.8231" fill="#303030" fill-opacity="0.2"/>
<rect x="68.3555" y="619.086" width="20.6815" height="21.8231" fill="#303030" fill-opacity="0.2"/>
<rect x="104.548" y="235" width="20.6815" height="21.8231" fill="#303030" fill-opacity="0.2"/>
<rect x="104.548" y="283.012" width="20.6815" height="21.8231" fill="#303030" fill-opacity="0.2"/>
<rect x="104.548" y="331.02" width="20.6815" height="21.8231" fill="#303030" fill-opacity="0.2"/>
<rect x="104.548" y="379.031" width="20.6815" height="21.8231" fill="#303030" fill-opacity="0.2"/>
<rect x="104.548" y="427.043" width="20.6815" height="21.8231" fill="#303030" fill-opacity="0.2"/>
<rect x="104.548" y="475.055" width="20.6815" height="21.8231" fill="#303030" fill-opacity="0.2"/>
<rect x="104.548" y="523.062" width="20.6815" height="21.8231" fill="#303030" fill-opacity="0.2"/>
<rect x="104.548" y="571.074" width="20.6815" height="21.8231" fill="#303030" fill-opacity="0.2"/>
<rect x="104.548" y="619.086" width="20.6815" height="21.8231" fill="#303030" fill-opacity="0.2"/>
<rect x="140.741" y="235" width="20.6815" height="21.8231" fill="#303030" fill-opacity="0.2"/>
<rect x="140.741" y="283.012" width="20.6815" height="21.8231" fill="#303030" fill-opacity="0.2"/>
<rect x="140.741" y="331.02" width="20.6815" height="21.8231" fill="#303030" fill-opacity="0.2"/>
<rect x="140.741" y="379.031" width="20.6815" height="21.8231" fill="#303030" fill-opacity="0.2"/>
<rect x="140.741" y="427.043" width="20.6815" height="21.8231" fill="#303030" fill-opacity="0.2"/>
<rect x="140.741" y="475.055" width="20.6815" height="21.8231" fill="#303030" fill-opacity="0.2"/>
<rect x="140.741" y="523.062" width="20.6815" height="21.8231" fill="#303030" fill-opacity="0.2"/>
<rect x="140.741" y="571.074" width="20.6815" height="21.8231" fill="#303030" fill-opacity="0.2"/>
<rect x="140.741" y="619.086" width="20.6815" height="21.8231" fill="#303030" fill-opacity="0.2"/>
<rect x="176.934" y="235" width="20.6815" height="21.8231" fill="#303030" fill-opacity="0.2"/>
<rect x="176.934" y="283.012" width="20.6815" height="21.8231" fill="#303030" fill-opacity="0.2"/>
<rect x="176.934" y="331.02" width="20.6815" height="21.8231" fill="#303030" fill-opacity="0.2"/>
<rect x="176.934" y="379.031" width="20.6815" height="21.8231" fill="#303030" fill-opacity="0.2"/>
<rect x="176.934" y="427.043" width="20.6815" height="21.8231" fill="#303030" fill-opacity="0.2"/>
<rect x="176.934" y="475.055" width="20.6815" height="21.8231" fill="#303030" fill-opacity="0.2"/>
<rect x="176.934" y="523.062" width="20.6815" height="21.8231" fill="#303030" fill-opacity="0.2"/>
<rect x="176.934" y="571.074" width="20.6815" height="21.8231" fill="#303030" fill-opacity="0.2"/>
<rect x="176.934" y="619.086" width="20.6815" height="21.8231" fill="#303030" fill-opacity="0.2"/>
<rect x="213.126" y="235" width="20.6815" height="21.8231" fill="#303030" fill-opacity="0.2"/>
<rect x="213.126" y="283.012" width="20.6815" height="21.8231" fill="#303030" fill-opacity="0.2"/>
<rect x="213.126" y="331.02" width="20.6815" height="21.8231" fill="#303030" fill-opacity="0.2"/>
<rect x="213.126" y="379.031" width="20.6815" height="21.8231" fill="#303030" fill-opacity="0.2"/>
<rect x="213.126" y="427.043" width="20.6815" height="21.8231" fill="#303030" fill-opacity="0.2"/>
<rect x="213.126" y="475.055" width="20.6815" height="21.8231" fill="#303030" fill-opacity="0.2"/>
<rect x="213.126" y="523.062" width="20.6815" height="21.8231" fill="#303030" fill-opacity="0.2"/>
<rect x="213.126" y="571.074" width="20.6815" height="21.8231" fill="#303030" fill-opacity="0.2"/>
<rect x="213.126" y="619.086" width="20.6815" height="21.8231" fill="#303030" fill-opacity="0.2"/>
<rect x="249.318" y="235" width="20.6815" height="21.8231" fill="#303030" fill-opacity="0.2"/>
<rect x="249.318" y="283.012" width="20.6815" height="21.8231" fill="#303030" fill-opacity="0.2"/>
<rect x="249.318" y="331.02" width="20.6815" height="21.8231" fill="#303030" fill-opacity="0.2"/>
<rect x="249.318" y="379.031" width="20.6815" height="21.8231" fill="#303030" fill-opacity="0.2"/>
<rect x="249.318" y="427.043" width="20.6815" height="21.8231" fill="#303030" fill-opacity="0.2"/>
<rect x="249.318" y="475.055" width="20.6815" height="21.8231" fill="#303030" fill-opacity="0.2"/>
<rect x="249.318" y="523.062" width="20.6815" height="21.8231" fill="#303030" fill-opacity="0.2"/>
<rect x="249.318" y="571.074" width="20.6815" height="21.8231" fill="#303030" fill-opacity="0.2"/>
<rect x="249.318" y="619.086" width="20.6815" height="21.8231" fill="#303030" fill-opacity="0.2"/>
<rect x="85" y="834" width="127.564" height="123.358" fill="#D9D9D9" fill-opacity="0.3"/>
<rect x="303.729" y="1037.2" width="127.564" height="123.358" fill="#D9D9D9" fill-opacity="0.3"/>
<rect x="489" y="734" width="127.564" height="123.358" fill="#D9D9D9" fill-opacity="0.3"/>
<path d="M108.717 925.887C108.064 925.887 107.476 925.775 106.953 925.551C106.431 925.318 106.02 924.991 105.721 924.571C105.423 924.151 105.273 923.661 105.273 923.101H106.981C107.019 923.521 107.182 923.866 107.471 924.137C107.77 924.408 108.185 924.543 108.717 924.543C109.268 924.543 109.697 924.412 110.005 924.151C110.313 923.88 110.467 923.535 110.467 923.115C110.467 922.788 110.369 922.522 110.173 922.317C109.987 922.112 109.749 921.953 109.459 921.841C109.179 921.729 108.787 921.608 108.283 921.477C107.649 921.309 107.131 921.141 106.729 920.973C106.337 920.796 106.001 920.525 105.721 920.161C105.441 919.797 105.301 919.312 105.301 918.705C105.301 918.145 105.441 917.655 105.721 917.235C106.001 916.815 106.393 916.493 106.897 916.269C107.401 916.045 107.985 915.933 108.647 915.933C109.59 915.933 110.36 916.171 110.957 916.647C111.564 917.114 111.9 917.758 111.965 918.579H110.201C110.173 918.224 110.005 917.921 109.697 917.669C109.389 917.417 108.983 917.291 108.479 917.291C108.022 917.291 107.649 917.408 107.359 917.641C107.07 917.874 106.925 918.21 106.925 918.649C106.925 918.948 107.014 919.195 107.191 919.391C107.378 919.578 107.611 919.727 107.891 919.839C108.171 919.951 108.554 920.072 109.039 920.203C109.683 920.38 110.206 920.558 110.607 920.735C111.018 920.912 111.363 921.188 111.643 921.561C111.933 921.925 112.077 922.415 112.077 923.031C112.077 923.526 111.942 923.992 111.671 924.431C111.41 924.87 111.023 925.224 110.509 925.495C110.005 925.756 109.408 925.887 108.717 925.887ZM114.772 917.053C114.483 917.053 114.24 916.955 114.044 916.759C113.848 916.563 113.75 916.32 113.75 916.031C113.75 915.742 113.848 915.499 114.044 915.303C114.24 915.107 114.483 915.009 114.772 915.009C115.052 915.009 115.29 915.107 115.486 915.303C115.682 915.499 115.78 915.742 115.78 916.031C115.78 916.32 115.682 916.563 115.486 916.759C115.29 916.955 115.052 917.053 114.772 917.053ZM115.556 918.075V925.789H113.96V918.075H115.556ZM119.514 919.377V923.647C119.514 923.936 119.579 924.146 119.71 924.277C119.85 924.398 120.083 924.459 120.41 924.459H121.39V925.789H120.13C119.411 925.789 118.861 925.621 118.478 925.285C118.095 924.949 117.904 924.403 117.904 923.647V919.377H116.994V918.075H117.904V916.157H119.514V918.075H121.39V919.377H119.514ZM129.931 921.743C129.931 922.032 129.912 922.294 129.875 922.527H123.981C124.028 923.143 124.256 923.638 124.667 924.011C125.078 924.384 125.582 924.571 126.179 924.571C127.038 924.571 127.644 924.212 127.999 923.493H129.721C129.488 924.202 129.063 924.786 128.447 925.243C127.84 925.691 127.084 925.915 126.179 925.915C125.442 925.915 124.779 925.752 124.191 925.425C123.612 925.089 123.155 924.622 122.819 924.025C122.492 923.418 122.329 922.718 122.329 921.925C122.329 921.132 122.488 920.436 122.805 919.839C123.132 919.232 123.584 918.766 124.163 918.439C124.751 918.112 125.423 917.949 126.179 917.949C126.907 917.949 127.556 918.108 128.125 918.425C128.694 918.742 129.138 919.19 129.455 919.769C129.772 920.338 129.931 920.996 129.931 921.743ZM128.265 921.239C128.256 920.651 128.046 920.18 127.635 919.825C127.224 919.47 126.716 919.293 126.109 919.293C125.558 919.293 125.087 919.47 124.695 919.825C124.303 920.17 124.07 920.642 123.995 921.239H128.265ZM136.734 919.223C137.005 918.85 137.374 918.546 137.84 918.313C138.316 918.07 138.844 917.949 139.422 917.949C140.104 917.949 140.72 918.112 141.27 918.439C141.821 918.766 142.255 919.232 142.572 919.839C142.89 920.436 143.048 921.122 143.048 921.897C143.048 922.672 142.89 923.367 142.572 923.983C142.255 924.59 141.816 925.066 141.256 925.411C140.706 925.747 140.094 925.915 139.422 925.915C138.825 925.915 138.293 925.798 137.826 925.565C137.369 925.332 137.005 925.033 136.734 924.669V925.789H135.138V915.429H136.734V919.223ZM141.424 921.897C141.424 921.365 141.312 920.908 141.088 920.525C140.874 920.133 140.584 919.839 140.22 919.643C139.866 919.438 139.483 919.335 139.072 919.335C138.671 919.335 138.288 919.438 137.924 919.643C137.57 919.848 137.28 920.147 137.056 920.539C136.842 920.931 136.734 921.393 136.734 921.925C136.734 922.457 136.842 922.924 137.056 923.325C137.28 923.717 137.57 924.016 137.924 924.221C138.288 924.426 138.671 924.529 139.072 924.529C139.483 924.529 139.866 924.426 140.22 924.221C140.584 924.006 140.874 923.698 141.088 923.297C141.312 922.896 141.424 922.429 141.424 921.897ZM147.972 925.915C147.244 925.915 146.586 925.752 145.998 925.425C145.41 925.089 144.948 924.622 144.612 924.025C144.276 923.418 144.108 922.718 144.108 921.925C144.108 921.141 144.281 920.446 144.626 919.839C144.972 919.232 145.443 918.766 146.04 918.439C146.638 918.112 147.305 917.949 148.042 917.949C148.78 917.949 149.447 918.112 150.044 918.439C150.642 918.766 151.113 919.232 151.458 919.839C151.804 920.446 151.976 921.141 151.976 921.925C151.976 922.709 151.799 923.404 151.444 924.011C151.09 924.618 150.604 925.089 149.988 925.425C149.382 925.752 148.71 925.915 147.972 925.915ZM147.972 924.529C148.383 924.529 148.766 924.431 149.12 924.235C149.484 924.039 149.778 923.745 150.002 923.353C150.226 922.961 150.338 922.485 150.338 921.925C150.338 921.365 150.231 920.894 150.016 920.511C149.802 920.119 149.517 919.825 149.162 919.629C148.808 919.433 148.425 919.335 148.014 919.335C147.604 919.335 147.221 919.433 146.866 919.629C146.521 919.825 146.246 920.119 146.04 920.511C145.835 920.894 145.732 921.365 145.732 921.925C145.732 922.756 145.942 923.4 146.362 923.857C146.792 924.305 147.328 924.529 147.972 924.529ZM157.446 917.949C158.053 917.949 158.594 918.075 159.07 918.327C159.556 918.579 159.934 918.952 160.204 919.447C160.475 919.942 160.61 920.539 160.61 921.239V925.789H159.028V921.477C159.028 920.786 158.856 920.259 158.51 919.895C158.165 919.522 157.694 919.335 157.096 919.335C156.499 919.335 156.023 919.522 155.668 919.895C155.323 920.259 155.15 920.786 155.15 921.477V925.789H153.554V918.075H155.15V918.957C155.412 918.64 155.743 918.392 156.144 918.215C156.555 918.038 156.989 917.949 157.446 917.949ZM163.458 917.053C163.169 917.053 162.926 916.955 162.73 916.759C162.534 916.563 162.436 916.32 162.436 916.031C162.436 915.742 162.534 915.499 162.73 915.303C162.926 915.107 163.169 915.009 163.458 915.009C163.738 915.009 163.976 915.107 164.172 915.303C164.368 915.499 164.466 915.742 164.466 916.031C164.466 916.32 164.368 916.563 164.172 916.759C163.976 916.955 163.738 917.053 163.458 917.053ZM164.242 918.075V925.789H162.646V918.075H164.242ZM168.199 919.377V923.647C168.199 923.936 168.265 924.146 168.395 924.277C168.535 924.398 168.769 924.459 169.095 924.459H170.075V925.789H168.815C168.097 925.789 167.546 925.621 167.163 925.285C166.781 924.949 166.589 924.403 166.589 923.647V919.377H165.679V918.075H166.589V916.157H168.199V918.075H170.075V919.377H168.199ZM174.892 925.915C174.164 925.915 173.506 925.752 172.918 925.425C172.33 925.089 171.868 924.622 171.532 924.025C171.196 923.418 171.028 922.718 171.028 921.925C171.028 921.141 171.201 920.446 171.546 919.839C171.892 919.232 172.363 918.766 172.96 918.439C173.558 918.112 174.225 917.949 174.962 917.949C175.7 917.949 176.367 918.112 176.964 918.439C177.562 918.766 178.033 919.232 178.378 919.839C178.724 920.446 178.896 921.141 178.896 921.925C178.896 922.709 178.719 923.404 178.364 924.011C178.01 924.618 177.524 925.089 176.908 925.425C176.302 925.752 175.63 925.915 174.892 925.915ZM174.892 924.529C175.303 924.529 175.686 924.431 176.04 924.235C176.404 924.039 176.698 923.745 176.922 923.353C177.146 922.961 177.258 922.485 177.258 921.925C177.258 921.365 177.151 920.894 176.936 920.511C176.722 920.119 176.437 919.825 176.082 919.629C175.728 919.433 175.345 919.335 174.934 919.335C174.524 919.335 174.141 919.433 173.786 919.629C173.441 919.825 173.166 920.119 172.96 920.511C172.755 920.894 172.652 921.365 172.652 921.925C172.652 922.756 172.862 923.4 173.282 923.857C173.712 924.305 174.248 924.529 174.892 924.529ZM191.181 921.743C191.181 922.032 191.162 922.294 191.125 922.527H185.231C185.278 923.143 185.506 923.638 185.917 924.011C186.328 924.384 186.832 924.571 187.429 924.571C188.288 924.571 188.894 924.212 189.249 923.493H190.971C190.738 924.202 190.313 924.786 189.697 925.243C189.09 925.691 188.334 925.915 187.429 925.915C186.692 925.915 186.029 925.752 185.441 925.425C184.862 925.089 184.405 924.622 184.069 924.025C183.742 923.418 183.579 922.718 183.579 921.925C183.579 921.132 183.738 920.436 184.055 919.839C184.382 919.232 184.834 918.766 185.413 918.439C186.001 918.112 186.673 917.949 187.429 917.949C188.157 917.949 188.806 918.108 189.375 918.425C189.944 918.742 190.388 919.19 190.705 919.769C191.022 920.338 191.181 920.996 191.181 921.743ZM189.515 921.239C189.506 920.651 189.296 920.18 188.885 919.825C188.474 919.47 187.966 919.293 187.359 919.293C186.808 919.293 186.337 919.47 185.945 919.825C185.553 920.17 185.32 920.642 185.245 921.239H189.515ZM125.971 934.949C126.578 934.949 127.119 935.075 127.595 935.327C128.081 935.579 128.459 935.952 128.729 936.447C129.009 936.942 129.149 937.539 129.149 938.239V942.789H127.567V938.477C127.567 937.786 127.395 937.259 127.049 936.895C126.704 936.522 126.233 936.335 125.635 936.335C125.038 936.335 124.562 936.522 124.207 936.895C123.862 937.259 123.689 937.786 123.689 938.477V942.789H122.107V938.477C122.107 937.786 121.935 937.259 121.589 936.895C121.244 936.522 120.773 936.335 120.175 936.335C119.578 936.335 119.102 936.522 118.747 936.895C118.402 937.259 118.229 937.786 118.229 938.477V942.789H116.633V935.075H118.229V935.957C118.491 935.64 118.822 935.392 119.223 935.215C119.625 935.038 120.054 934.949 120.511 934.949C121.127 934.949 121.678 935.08 122.163 935.341C122.649 935.602 123.022 935.98 123.283 936.475C123.517 936.008 123.881 935.64 124.375 935.369C124.87 935.089 125.402 934.949 125.971 934.949ZM134.526 942.915C133.798 942.915 133.14 942.752 132.552 942.425C131.964 942.089 131.502 941.622 131.166 941.025C130.83 940.418 130.662 939.718 130.662 938.925C130.662 938.141 130.835 937.446 131.18 936.839C131.526 936.232 131.997 935.766 132.594 935.439C133.192 935.112 133.859 934.949 134.596 934.949C135.334 934.949 136.001 935.112 136.598 935.439C137.196 935.766 137.667 936.232 138.012 936.839C138.358 937.446 138.53 938.141 138.53 938.925C138.53 939.709 138.353 940.404 137.998 941.011C137.644 941.618 137.158 942.089 136.542 942.425C135.936 942.752 135.264 942.915 134.526 942.915ZM134.526 941.529C134.937 941.529 135.32 941.431 135.674 941.235C136.038 941.039 136.332 940.745 136.556 940.353C136.78 939.961 136.892 939.485 136.892 938.925C136.892 938.365 136.785 937.894 136.57 937.511C136.356 937.119 136.071 936.825 135.716 936.629C135.362 936.433 134.979 936.335 134.568 936.335C134.158 936.335 133.775 936.433 133.42 936.629C133.075 936.825 132.8 937.119 132.594 937.511C132.389 937.894 132.286 938.365 132.286 938.925C132.286 939.756 132.496 940.4 132.916 940.857C133.346 941.305 133.882 941.529 134.526 941.529ZM139.576 938.897C139.576 938.122 139.735 937.436 140.052 936.839C140.379 936.242 140.817 935.78 141.368 935.453C141.928 935.117 142.549 934.949 143.23 934.949C143.734 934.949 144.229 935.061 144.714 935.285C145.209 935.5 145.601 935.789 145.89 936.153V932.429H147.5V942.789H145.89V941.627C145.629 942 145.265 942.308 144.798 942.551C144.341 942.794 143.813 942.915 143.216 942.915C142.544 942.915 141.928 942.747 141.368 942.411C140.817 942.066 140.379 941.59 140.052 940.983C139.735 940.367 139.576 939.672 139.576 938.897ZM145.89 938.925C145.89 938.393 145.778 937.931 145.554 937.539C145.339 937.147 145.055 936.848 144.7 936.643C144.345 936.438 143.963 936.335 143.552 936.335C143.141 936.335 142.759 936.438 142.404 936.643C142.049 936.839 141.76 937.133 141.536 937.525C141.321 937.908 141.214 938.365 141.214 938.897C141.214 939.429 141.321 939.896 141.536 940.297C141.76 940.698 142.049 941.006 142.404 941.221C142.768 941.426 143.151 941.529 143.552 941.529C143.963 941.529 144.345 941.426 144.7 941.221C145.055 941.016 145.339 940.717 145.554 940.325C145.778 939.924 145.89 939.457 145.89 938.925ZM156.666 938.743C156.666 939.032 156.648 939.294 156.61 939.527H150.716C150.763 940.143 150.992 940.638 151.402 941.011C151.813 941.384 152.317 941.571 152.914 941.571C153.773 941.571 154.38 941.212 154.734 940.493H156.456C156.223 941.202 155.798 941.786 155.182 942.243C154.576 942.691 153.82 942.915 152.914 942.915C152.177 942.915 151.514 942.752 150.926 942.425C150.348 942.089 149.89 941.622 149.554 941.025C149.228 940.418 149.064 939.718 149.064 938.925C149.064 938.132 149.223 937.436 149.54 936.839C149.867 936.232 150.32 935.766 150.898 935.439C151.486 935.112 152.158 934.949 152.914 934.949C153.642 934.949 154.291 935.108 154.86 935.425C155.43 935.742 155.873 936.19 156.19 936.769C156.508 937.338 156.666 937.996 156.666 938.743ZM155 938.239C154.991 937.651 154.781 937.18 154.37 936.825C153.96 936.47 153.451 936.293 152.844 936.293C152.294 936.293 151.822 936.47 151.43 936.825C151.038 937.17 150.805 937.642 150.73 938.239H155ZM159.833 936.195C160.066 935.803 160.374 935.5 160.757 935.285C161.149 935.061 161.611 934.949 162.143 934.949V936.601H161.737C161.111 936.601 160.635 936.76 160.309 937.077C159.991 937.394 159.833 937.945 159.833 938.729V942.789H158.237V935.075H159.833V936.195ZM167.502 934.949C168.109 934.949 168.65 935.075 169.126 935.327C169.611 935.579 169.989 935.952 170.26 936.447C170.531 936.942 170.666 937.539 170.666 938.239V942.789H169.084V938.477C169.084 937.786 168.911 937.259 168.566 936.895C168.221 936.522 167.749 936.335 167.152 936.335C166.555 936.335 166.079 936.522 165.724 936.895C165.379 937.259 165.206 937.786 165.206 938.477V942.789H163.61V935.075H165.206V935.957C165.467 935.64 165.799 935.392 166.2 935.215C166.611 935.038 167.045 934.949 167.502 934.949ZM176.048 942.915C175.32 942.915 174.662 942.752 174.074 942.425C173.486 942.089 173.024 941.622 172.688 941.025C172.352 940.418 172.184 939.718 172.184 938.925C172.184 938.141 172.356 937.446 172.702 936.839C173.047 936.232 173.518 935.766 174.116 935.439C174.713 935.112 175.38 934.949 176.118 934.949C176.855 934.949 177.522 935.112 178.12 935.439C178.717 935.766 179.188 936.232 179.534 936.839C179.879 937.446 180.052 938.141 180.052 938.925C180.052 939.709 179.874 940.404 179.52 941.011C179.165 941.618 178.68 942.089 178.064 942.425C177.457 942.752 176.785 942.915 176.048 942.915ZM176.048 941.529C176.458 941.529 176.841 941.431 177.196 941.235C177.56 941.039 177.854 940.745 178.078 940.353C178.302 939.961 178.414 939.485 178.414 938.925C178.414 938.365 178.306 937.894 178.092 937.511C177.877 937.119 177.592 936.825 177.238 936.629C176.883 936.433 176.5 936.335 176.09 936.335C175.679 936.335 175.296 936.433 174.942 936.629C174.596 936.825 174.321 937.119 174.116 937.511C173.91 937.894 173.808 938.365 173.808 938.925C173.808 939.756 174.018 940.4 174.438 940.857C174.867 941.305 175.404 941.529 176.048 941.529Z" fill="white"/>
<path d="M329.479 1111.49C329.479 1110.54 329.698 1109.69 330.137 1108.93C330.585 1108.17 331.187 1107.59 331.943 1107.17C332.708 1106.74 333.543 1106.52 334.449 1106.52C335.485 1106.52 336.404 1106.78 337.207 1107.29C338.019 1107.8 338.607 1108.52 338.971 1109.45H337.053C336.801 1108.94 336.451 1108.55 336.003 1108.3C335.555 1108.05 335.037 1107.92 334.449 1107.92C333.805 1107.92 333.231 1108.07 332.727 1108.36C332.223 1108.65 331.826 1109.06 331.537 1109.6C331.257 1110.14 331.117 1110.77 331.117 1111.49C331.117 1112.21 331.257 1112.84 331.537 1113.38C331.826 1113.92 332.223 1114.34 332.727 1114.64C333.231 1114.93 333.805 1115.08 334.449 1115.08C335.037 1115.08 335.555 1114.95 336.003 1114.7C336.451 1114.45 336.801 1114.06 337.053 1113.55H338.971C338.607 1114.48 338.019 1115.2 337.207 1115.71C336.404 1116.21 335.485 1116.46 334.449 1116.46C333.534 1116.46 332.699 1116.25 331.943 1115.83C331.187 1115.4 330.585 1114.81 330.137 1114.05C329.698 1113.3 329.479 1112.44 329.479 1111.49ZM344.185 1116.5C343.457 1116.5 342.799 1116.34 342.211 1116.01C341.623 1115.68 341.161 1115.21 340.825 1114.61C340.489 1114.01 340.321 1113.31 340.321 1112.51C340.321 1111.73 340.494 1111.04 340.839 1110.43C341.184 1109.82 341.656 1109.36 342.253 1109.03C342.85 1108.7 343.518 1108.54 344.255 1108.54C344.992 1108.54 345.66 1108.7 346.257 1109.03C346.854 1109.36 347.326 1109.82 347.671 1110.43C348.016 1111.04 348.189 1111.73 348.189 1112.51C348.189 1113.3 348.012 1113.99 347.657 1114.6C347.302 1115.21 346.817 1115.68 346.201 1116.01C345.594 1116.34 344.922 1116.5 344.185 1116.5ZM344.185 1115.12C344.596 1115.12 344.978 1115.02 345.333 1114.82C345.697 1114.63 345.991 1114.33 346.215 1113.94C346.439 1113.55 346.551 1113.07 346.551 1112.51C346.551 1111.95 346.444 1111.48 346.229 1111.1C346.014 1110.71 345.73 1110.41 345.375 1110.22C345.02 1110.02 344.638 1109.92 344.227 1109.92C343.816 1109.92 343.434 1110.02 343.079 1110.22C342.734 1110.41 342.458 1110.71 342.253 1111.1C342.048 1111.48 341.945 1111.95 341.945 1112.51C341.945 1113.35 342.155 1113.99 342.575 1114.45C343.004 1114.89 343.541 1115.12 344.185 1115.12ZM359.105 1108.54C359.711 1108.54 360.253 1108.66 360.729 1108.92C361.214 1109.17 361.592 1109.54 361.863 1110.04C362.143 1110.53 362.283 1111.13 362.283 1111.83V1116.38H360.701V1112.07C360.701 1111.38 360.528 1110.85 360.183 1110.48C359.837 1110.11 359.366 1109.92 358.769 1109.92C358.171 1109.92 357.695 1110.11 357.341 1110.48C356.995 1110.85 356.823 1111.38 356.823 1112.07V1116.38H355.241V1112.07C355.241 1111.38 355.068 1110.85 354.723 1110.48C354.377 1110.11 353.906 1109.92 353.309 1109.92C352.711 1109.92 352.235 1110.11 351.881 1110.48C351.535 1110.85 351.363 1111.38 351.363 1112.07V1116.38H349.767V1108.66H351.363V1109.55C351.624 1109.23 351.955 1108.98 352.357 1108.8C352.758 1108.63 353.187 1108.54 353.645 1108.54C354.261 1108.54 354.811 1108.67 355.297 1108.93C355.782 1109.19 356.155 1109.57 356.417 1110.06C356.65 1109.6 357.014 1109.23 357.509 1108.96C358.003 1108.68 358.535 1108.54 359.105 1108.54ZM365.91 1109.8C366.18 1109.44 366.549 1109.15 367.016 1108.9C367.482 1108.66 368.01 1108.54 368.598 1108.54C369.27 1108.54 369.881 1108.71 370.432 1109.04C370.992 1109.37 371.43 1109.83 371.748 1110.43C372.065 1111.03 372.224 1111.71 372.224 1112.49C372.224 1113.26 372.065 1113.96 371.748 1114.57C371.43 1115.18 370.992 1115.66 370.432 1116C369.881 1116.34 369.27 1116.5 368.598 1116.5C368.01 1116.5 367.487 1116.39 367.03 1116.15C366.572 1115.91 366.199 1115.61 365.91 1115.26V1120.05H364.314V1108.66H365.91V1109.8ZM370.6 1112.49C370.6 1111.95 370.488 1111.5 370.264 1111.11C370.049 1110.72 369.76 1110.43 369.396 1110.23C369.041 1110.03 368.658 1109.92 368.248 1109.92C367.846 1109.92 367.464 1110.03 367.1 1110.23C366.745 1110.44 366.456 1110.74 366.232 1111.13C366.017 1111.52 365.91 1111.98 365.91 1112.51C365.91 1113.05 366.017 1113.51 366.232 1113.91C366.456 1114.31 366.745 1114.61 367.1 1114.81C367.464 1115.02 367.846 1115.12 368.248 1115.12C368.658 1115.12 369.041 1115.02 369.396 1114.81C369.76 1114.6 370.049 1114.29 370.264 1113.89C370.488 1113.49 370.6 1113.02 370.6 1112.49ZM373.27 1112.49C373.27 1111.71 373.428 1111.03 373.746 1110.43C374.072 1109.83 374.511 1109.37 375.062 1109.04C375.622 1108.71 376.238 1108.54 376.91 1108.54C377.516 1108.54 378.044 1108.66 378.492 1108.9C378.949 1109.14 379.313 1109.43 379.584 1109.78V1108.66H381.194V1116.38H379.584V1115.23C379.313 1115.59 378.944 1115.9 378.478 1116.14C378.011 1116.38 377.479 1116.5 376.882 1116.5C376.219 1116.5 375.612 1116.34 375.062 1116C374.511 1115.66 374.072 1115.18 373.746 1114.57C373.428 1113.96 373.27 1113.26 373.27 1112.49ZM379.584 1112.51C379.584 1111.98 379.472 1111.52 379.248 1111.13C379.033 1110.74 378.748 1110.44 378.394 1110.23C378.039 1110.03 377.656 1109.92 377.246 1109.92C376.835 1109.92 376.452 1110.03 376.098 1110.23C375.743 1110.43 375.454 1110.72 375.23 1111.11C375.015 1111.5 374.908 1111.95 374.908 1112.49C374.908 1113.02 375.015 1113.49 375.23 1113.89C375.454 1114.29 375.743 1114.6 376.098 1114.81C376.462 1115.02 376.844 1115.12 377.246 1115.12C377.656 1115.12 378.039 1115.02 378.394 1114.81C378.748 1114.61 379.033 1114.31 379.248 1113.91C379.472 1113.51 379.584 1113.05 379.584 1112.51ZM385.152 1109.97V1114.24C385.152 1114.53 385.217 1114.74 385.348 1114.87C385.488 1114.99 385.721 1115.05 386.048 1115.05H387.028V1116.38H385.768C385.049 1116.38 384.499 1116.21 384.116 1115.87C383.733 1115.54 383.542 1114.99 383.542 1114.24V1109.97H382.632V1108.66H383.542V1106.75H385.152V1108.66H387.028V1109.97H385.152ZM390.095 1108.66V1116.38H388.499V1108.66H390.095ZM390.739 1106.59L387.645 1108.12V1106.94L390.739 1105.23V1106.59ZM395.172 1114.95L397.356 1108.66H399.05L396.11 1116.38H394.206L391.28 1108.66H392.988L395.172 1114.95ZM407.327 1112.33C407.327 1112.62 407.308 1112.88 407.271 1113.12H401.377C401.424 1113.73 401.652 1114.23 402.063 1114.6C402.474 1114.97 402.978 1115.16 403.575 1115.16C404.434 1115.16 405.04 1114.8 405.395 1114.08H407.117C406.884 1114.79 406.459 1115.38 405.843 1115.83C405.236 1116.28 404.48 1116.5 403.575 1116.5C402.838 1116.5 402.175 1116.34 401.587 1116.01C401.008 1115.68 400.551 1115.21 400.215 1114.61C399.888 1114.01 399.725 1113.31 399.725 1112.51C399.725 1111.72 399.884 1111.03 400.201 1110.43C400.528 1109.82 400.98 1109.36 401.559 1109.03C402.147 1108.7 402.819 1108.54 403.575 1108.54C404.303 1108.54 404.952 1108.7 405.521 1109.01C406.09 1109.33 406.534 1109.78 406.851 1110.36C407.168 1110.93 407.327 1111.59 407.327 1112.33ZM405.661 1111.83C405.652 1111.24 405.442 1110.77 405.031 1110.41C404.62 1110.06 404.112 1109.88 403.505 1109.88C402.954 1109.88 402.483 1110.06 402.091 1110.41C401.699 1110.76 401.466 1111.23 401.391 1111.83H405.661ZM410.494 1106.02V1116.38H408.898V1106.02H410.494ZM320.838 1129.51C320.838 1128.72 320.997 1128.03 321.314 1127.43C321.641 1126.82 322.089 1126.36 322.658 1126.03C323.227 1125.7 323.881 1125.54 324.618 1125.54C325.551 1125.54 326.321 1125.76 326.928 1126.21C327.544 1126.65 327.959 1127.28 328.174 1128.1H326.452C326.312 1127.72 326.088 1127.42 325.78 1127.2C325.472 1126.99 325.085 1126.88 324.618 1126.88C323.965 1126.88 323.442 1127.12 323.05 1127.58C322.667 1128.04 322.476 1128.68 322.476 1129.51C322.476 1130.35 322.667 1130.99 323.05 1131.46C323.442 1131.93 323.965 1132.16 324.618 1132.16C325.542 1132.16 326.153 1131.75 326.452 1130.94H328.174C327.95 1131.73 327.53 1132.35 326.914 1132.82C326.298 1133.28 325.533 1133.5 324.618 1133.5C323.881 1133.5 323.227 1133.34 322.658 1133.01C322.089 1132.68 321.641 1132.21 321.314 1131.61C320.997 1131.01 320.838 1130.31 320.838 1129.51ZM333.111 1133.5C332.383 1133.5 331.725 1133.34 331.137 1133.01C330.549 1132.68 330.087 1132.21 329.751 1131.61C329.415 1131.01 329.247 1130.31 329.247 1129.51C329.247 1128.73 329.419 1128.04 329.765 1127.43C330.11 1126.82 330.581 1126.36 331.179 1126.03C331.776 1125.7 332.443 1125.54 333.181 1125.54C333.918 1125.54 334.585 1125.7 335.183 1126.03C335.78 1126.36 336.251 1126.82 336.597 1127.43C336.942 1128.04 337.115 1128.73 337.115 1129.51C337.115 1130.3 336.937 1130.99 336.583 1131.6C336.228 1132.21 335.743 1132.68 335.127 1133.01C334.52 1133.34 333.848 1133.5 333.111 1133.5ZM333.111 1132.12C333.521 1132.12 333.904 1132.02 334.259 1131.82C334.623 1131.63 334.917 1131.33 335.141 1130.94C335.365 1130.55 335.477 1130.07 335.477 1129.51C335.477 1128.95 335.369 1128.48 335.155 1128.1C334.94 1127.71 334.655 1127.41 334.301 1127.22C333.946 1127.02 333.563 1126.92 333.153 1126.92C332.742 1126.92 332.359 1127.02 332.005 1127.22C331.659 1127.41 331.384 1127.71 331.179 1128.1C330.973 1128.48 330.871 1128.95 330.871 1129.51C330.871 1130.35 331.081 1130.99 331.501 1131.45C331.93 1131.89 332.467 1132.12 333.111 1132.12ZM348.03 1125.54C348.637 1125.54 349.178 1125.66 349.654 1125.92C350.14 1126.17 350.518 1126.54 350.788 1127.04C351.068 1127.53 351.208 1128.13 351.208 1128.83V1133.38H349.626V1129.07C349.626 1128.38 349.454 1127.85 349.108 1127.48C348.763 1127.11 348.292 1126.92 347.694 1126.92C347.097 1126.92 346.621 1127.11 346.266 1127.48C345.921 1127.85 345.748 1128.38 345.748 1129.07V1133.38H344.166V1129.07C344.166 1128.38 343.994 1127.85 343.648 1127.48C343.303 1127.11 342.832 1126.92 342.234 1126.92C341.637 1126.92 341.161 1127.11 340.806 1127.48C340.461 1127.85 340.288 1128.38 340.288 1129.07V1133.38H338.692V1125.66H340.288V1126.55C340.55 1126.23 340.881 1125.98 341.282 1125.8C341.684 1125.63 342.113 1125.54 342.57 1125.54C343.186 1125.54 343.737 1125.67 344.222 1125.93C344.708 1126.19 345.081 1126.57 345.342 1127.06C345.576 1126.6 345.94 1126.23 346.434 1125.96C346.929 1125.68 347.461 1125.54 348.03 1125.54ZM356.344 1129.49C356.344 1128.71 356.503 1128.03 356.82 1127.43C357.147 1126.83 357.585 1126.37 358.136 1126.04C358.696 1125.71 359.317 1125.54 359.998 1125.54C360.595 1125.54 361.123 1125.66 361.58 1125.9C362.047 1126.15 362.406 1126.44 362.658 1126.78V1125.66H364.268V1137.05H362.658V1132.26C362.406 1132.6 362.042 1132.9 361.566 1133.14C361.09 1133.38 360.549 1133.5 359.942 1133.5C359.279 1133.5 358.673 1133.34 358.122 1133C357.581 1132.66 357.147 1132.18 356.82 1131.57C356.503 1130.96 356.344 1130.26 356.344 1129.49ZM362.658 1129.51C362.658 1128.98 362.546 1128.52 362.322 1128.13C362.107 1127.74 361.823 1127.44 361.468 1127.23C361.113 1127.03 360.731 1126.92 360.32 1126.92C359.909 1126.92 359.527 1127.03 359.172 1127.23C358.817 1127.43 358.528 1127.72 358.304 1128.11C358.089 1128.5 357.982 1128.95 357.982 1129.49C357.982 1130.02 358.089 1130.49 358.304 1130.89C358.528 1131.29 358.817 1131.6 359.172 1131.81C359.536 1132.02 359.919 1132.12 360.32 1132.12C360.731 1132.12 361.113 1132.02 361.468 1131.81C361.823 1131.61 362.107 1131.31 362.322 1130.91C362.546 1130.51 362.658 1130.05 362.658 1129.51ZM373.35 1125.66V1133.38H371.754V1132.47C371.502 1132.79 371.171 1133.04 370.76 1133.22C370.359 1133.4 369.93 1133.49 369.472 1133.49C368.866 1133.49 368.32 1133.36 367.834 1133.11C367.358 1132.86 366.98 1132.49 366.7 1131.99C366.43 1131.5 366.294 1130.9 366.294 1130.2V1125.66H367.876V1129.96C367.876 1130.65 368.049 1131.19 368.394 1131.56C368.74 1131.92 369.211 1132.1 369.808 1132.1C370.406 1132.1 370.877 1131.92 371.222 1131.56C371.577 1131.19 371.754 1130.65 371.754 1129.96V1125.66H373.35ZM374.924 1129.49C374.924 1128.71 375.083 1128.03 375.4 1127.43C375.727 1126.83 376.165 1126.37 376.716 1126.04C377.276 1125.71 377.892 1125.54 378.564 1125.54C379.171 1125.54 379.698 1125.66 380.146 1125.9C380.603 1126.14 380.967 1126.43 381.238 1126.78V1125.66H382.848V1133.38H381.238V1132.23C380.967 1132.59 380.599 1132.9 380.132 1133.14C379.665 1133.38 379.133 1133.5 378.536 1133.5C377.873 1133.5 377.267 1133.34 376.716 1133C376.165 1132.66 375.727 1132.18 375.4 1131.57C375.083 1130.96 374.924 1130.26 374.924 1129.49ZM381.238 1129.51C381.238 1128.98 381.126 1128.52 380.902 1128.13C380.687 1127.74 380.403 1127.44 380.048 1127.23C379.693 1127.03 379.311 1126.92 378.9 1126.92C378.489 1126.92 378.107 1127.03 377.752 1127.23C377.397 1127.43 377.108 1127.72 376.884 1128.11C376.669 1128.5 376.562 1128.95 376.562 1129.49C376.562 1130.02 376.669 1130.49 376.884 1130.89C377.108 1131.29 377.397 1131.6 377.752 1131.81C378.116 1132.02 378.499 1132.12 378.9 1132.12C379.311 1132.12 379.693 1132.02 380.048 1131.81C380.403 1131.61 380.687 1131.31 380.902 1130.91C381.126 1130.51 381.238 1130.05 381.238 1129.51ZM386.54 1123.02V1133.38H384.944V1123.02H386.54ZM388.104 1129.49C388.104 1128.71 388.262 1128.03 388.58 1127.43C388.906 1126.83 389.345 1126.37 389.896 1126.04C390.456 1125.71 391.076 1125.54 391.758 1125.54C392.355 1125.54 392.882 1125.66 393.34 1125.9C393.806 1126.15 394.166 1126.44 394.418 1126.78V1125.66H396.028V1137.05H394.418V1132.26C394.166 1132.6 393.802 1132.9 393.326 1133.14C392.85 1133.38 392.308 1133.5 391.702 1133.5C391.039 1133.5 390.432 1133.34 389.882 1133C389.34 1132.66 388.906 1132.18 388.58 1131.57C388.262 1130.96 388.104 1130.26 388.104 1129.49ZM394.418 1129.51C394.418 1128.98 394.306 1128.52 394.082 1128.13C393.867 1127.74 393.582 1127.44 393.228 1127.23C392.873 1127.03 392.49 1126.92 392.08 1126.92C391.669 1126.92 391.286 1127.03 390.932 1127.23C390.577 1127.43 390.288 1127.72 390.064 1128.11C389.849 1128.5 389.742 1128.95 389.742 1129.49C389.742 1130.02 389.849 1130.49 390.064 1130.89C390.288 1131.29 390.577 1131.6 390.932 1131.81C391.296 1132.02 391.678 1132.12 392.08 1132.12C392.49 1132.12 392.873 1132.02 393.228 1131.81C393.582 1131.61 393.867 1131.31 394.082 1130.91C394.306 1130.51 394.418 1130.05 394.418 1129.51ZM405.11 1125.66V1133.38H403.514V1132.47C403.262 1132.79 402.931 1133.04 402.52 1133.22C402.119 1133.4 401.689 1133.49 401.232 1133.49C400.625 1133.49 400.079 1133.36 399.594 1133.11C399.118 1132.86 398.74 1132.49 398.46 1131.99C398.189 1131.5 398.054 1130.9 398.054 1130.2V1125.66H399.636V1129.96C399.636 1130.65 399.809 1131.19 400.154 1131.56C400.499 1131.92 400.971 1132.1 401.568 1132.1C402.165 1132.1 402.637 1131.92 402.982 1131.56C403.337 1131.19 403.514 1130.65 403.514 1129.96V1125.66H405.11ZM414.286 1129.33C414.286 1129.62 414.267 1129.88 414.23 1130.12H408.336C408.383 1130.73 408.611 1131.23 409.022 1131.6C409.433 1131.97 409.937 1132.16 410.534 1132.16C411.393 1132.16 411.999 1131.8 412.354 1131.08H414.076C413.843 1131.79 413.418 1132.38 412.802 1132.83C412.195 1133.28 411.439 1133.5 410.534 1133.5C409.797 1133.5 409.134 1133.34 408.546 1133.01C407.967 1132.68 407.51 1132.21 407.174 1131.61C406.847 1131.01 406.684 1130.31 406.684 1129.51C406.684 1128.72 406.843 1128.03 407.16 1127.43C407.487 1126.82 407.939 1126.36 408.518 1126.03C409.106 1125.7 409.778 1125.54 410.534 1125.54C411.262 1125.54 411.911 1125.7 412.48 1126.01C413.049 1126.33 413.493 1126.78 413.81 1127.36C414.127 1127.93 414.286 1128.59 414.286 1129.33ZM412.62 1128.83C412.611 1128.24 412.401 1127.77 411.99 1127.41C411.579 1127.06 411.071 1126.88 410.464 1126.88C409.913 1126.88 409.442 1127.06 409.05 1127.41C408.658 1127.76 408.425 1128.23 408.35 1128.83H412.62ZM417.452 1126.78C417.686 1126.39 417.994 1126.09 418.376 1125.87C418.768 1125.65 419.23 1125.54 419.762 1125.54V1127.19H419.356C418.731 1127.19 418.255 1127.35 417.928 1127.67C417.611 1127.98 417.452 1128.53 417.452 1129.32V1133.38H415.856V1125.66H417.452V1126.78ZM334.517 1146.49C334.517 1145.71 334.676 1145.03 334.993 1144.43C335.32 1143.83 335.758 1143.37 336.309 1143.04C336.869 1142.71 337.49 1142.54 338.171 1142.54C338.675 1142.54 339.17 1142.65 339.655 1142.87C340.15 1143.09 340.542 1143.38 340.831 1143.74V1140.02H342.441V1150.38H340.831V1149.22C340.57 1149.59 340.206 1149.9 339.739 1150.14C339.282 1150.38 338.754 1150.5 338.157 1150.5C337.485 1150.5 336.869 1150.34 336.309 1150C335.758 1149.66 335.32 1149.18 334.993 1148.57C334.676 1147.96 334.517 1147.26 334.517 1146.49ZM340.831 1146.51C340.831 1145.98 340.719 1145.52 340.495 1145.13C340.28 1144.74 339.996 1144.44 339.641 1144.23C339.286 1144.03 338.904 1143.92 338.493 1143.92C338.082 1143.92 337.7 1144.03 337.345 1144.23C336.99 1144.43 336.701 1144.72 336.477 1145.11C336.262 1145.5 336.155 1145.95 336.155 1146.49C336.155 1147.02 336.262 1147.49 336.477 1147.89C336.701 1148.29 336.99 1148.6 337.345 1148.81C337.709 1149.02 338.092 1149.12 338.493 1149.12C338.904 1149.12 339.286 1149.02 339.641 1148.81C339.996 1148.61 340.28 1148.31 340.495 1147.91C340.719 1147.51 340.831 1147.05 340.831 1146.51ZM345.349 1141.64C345.06 1141.64 344.817 1141.54 344.621 1141.35C344.425 1141.15 344.327 1140.91 344.327 1140.62C344.327 1140.33 344.425 1140.09 344.621 1139.89C344.817 1139.7 345.06 1139.6 345.349 1139.6C345.629 1139.6 345.867 1139.7 346.063 1139.89C346.259 1140.09 346.357 1140.33 346.357 1140.62C346.357 1140.91 346.259 1141.15 346.063 1141.35C345.867 1141.54 345.629 1141.64 345.349 1141.64ZM346.133 1142.66V1150.38H344.537V1142.66H346.133ZM351.029 1150.5C350.422 1150.5 349.876 1150.4 349.391 1150.18C348.915 1149.96 348.537 1149.66 348.257 1149.29C347.977 1148.9 347.827 1148.48 347.809 1148.01H349.461C349.489 1148.34 349.643 1148.61 349.923 1148.84C350.212 1149.05 350.571 1149.16 351.001 1149.16C351.449 1149.16 351.794 1149.08 352.037 1148.91C352.289 1148.73 352.415 1148.51 352.415 1148.24C352.415 1147.95 352.275 1147.73 351.995 1147.59C351.724 1147.45 351.29 1147.3 350.693 1147.13C350.114 1146.97 349.643 1146.82 349.279 1146.67C348.915 1146.52 348.597 1146.29 348.327 1145.98C348.065 1145.67 347.935 1145.27 347.935 1144.76C347.935 1144.35 348.056 1143.98 348.299 1143.64C348.541 1143.3 348.887 1143.03 349.335 1142.83C349.792 1142.64 350.315 1142.54 350.903 1142.54C351.78 1142.54 352.485 1142.76 353.017 1143.21C353.558 1143.65 353.847 1144.25 353.885 1145.02H352.289C352.261 1144.67 352.121 1144.4 351.869 1144.19C351.617 1143.99 351.276 1143.88 350.847 1143.88C350.427 1143.88 350.105 1143.96 349.881 1144.12C349.657 1144.28 349.545 1144.49 349.545 1144.75C349.545 1144.96 349.619 1145.13 349.769 1145.27C349.918 1145.41 350.1 1145.52 350.315 1145.6C350.529 1145.68 350.847 1145.78 351.267 1145.9C351.827 1146.05 352.284 1146.2 352.639 1146.36C353.003 1146.51 353.315 1146.73 353.577 1147.03C353.838 1147.33 353.973 1147.73 353.983 1148.22C353.983 1148.66 353.861 1149.05 353.619 1149.4C353.376 1149.74 353.031 1150.01 352.583 1150.21C352.144 1150.41 351.626 1150.5 351.029 1150.5ZM357.303 1143.8C357.574 1143.44 357.942 1143.15 358.409 1142.9C358.876 1142.66 359.403 1142.54 359.991 1142.54C360.663 1142.54 361.274 1142.71 361.825 1143.04C362.385 1143.37 362.824 1143.83 363.141 1144.43C363.458 1145.03 363.617 1145.71 363.617 1146.49C363.617 1147.26 363.458 1147.96 363.141 1148.57C362.824 1149.18 362.385 1149.66 361.825 1150C361.274 1150.34 360.663 1150.5 359.991 1150.5C359.403 1150.5 358.88 1150.39 358.423 1150.15C357.966 1149.91 357.592 1149.61 357.303 1149.26V1154.05H355.707V1142.66H357.303V1143.8ZM361.993 1146.49C361.993 1145.95 361.881 1145.5 361.657 1145.11C361.442 1144.72 361.153 1144.43 360.789 1144.23C360.434 1144.03 360.052 1143.92 359.641 1143.92C359.24 1143.92 358.857 1144.03 358.493 1144.23C358.138 1144.44 357.849 1144.74 357.625 1145.13C357.41 1145.52 357.303 1145.98 357.303 1146.51C357.303 1147.05 357.41 1147.51 357.625 1147.91C357.849 1148.31 358.138 1148.61 358.493 1148.81C358.857 1149.02 359.24 1149.12 359.641 1149.12C360.052 1149.12 360.434 1149.02 360.789 1148.81C361.153 1148.6 361.442 1148.29 361.657 1147.89C361.881 1147.49 361.993 1147.02 361.993 1146.49ZM368.541 1150.5C367.813 1150.5 367.155 1150.34 366.567 1150.01C365.979 1149.68 365.517 1149.21 365.181 1148.61C364.845 1148.01 364.677 1147.31 364.677 1146.51C364.677 1145.73 364.85 1145.04 365.195 1144.43C365.541 1143.82 366.012 1143.36 366.609 1143.03C367.207 1142.7 367.874 1142.54 368.611 1142.54C369.349 1142.54 370.016 1142.7 370.613 1143.03C371.211 1143.36 371.682 1143.82 372.027 1144.43C372.373 1145.04 372.545 1145.73 372.545 1146.51C372.545 1147.3 372.368 1147.99 372.013 1148.6C371.659 1149.21 371.173 1149.68 370.557 1150.01C369.951 1150.34 369.279 1150.5 368.541 1150.5ZM368.541 1149.12C368.952 1149.12 369.335 1149.02 369.689 1148.82C370.053 1148.63 370.347 1148.33 370.571 1147.94C370.795 1147.55 370.907 1147.07 370.907 1146.51C370.907 1145.95 370.8 1145.48 370.585 1145.1C370.371 1144.71 370.086 1144.41 369.731 1144.22C369.377 1144.02 368.994 1143.92 368.583 1143.92C368.173 1143.92 367.79 1144.02 367.435 1144.22C367.09 1144.41 366.815 1144.71 366.609 1145.1C366.404 1145.48 366.301 1145.95 366.301 1146.51C366.301 1147.35 366.511 1147.99 366.931 1148.45C367.361 1148.89 367.897 1149.12 368.541 1149.12ZM376.923 1150.5C376.316 1150.5 375.77 1150.4 375.285 1150.18C374.809 1149.96 374.431 1149.66 374.151 1149.29C373.871 1148.9 373.722 1148.48 373.703 1148.01H375.355C375.383 1148.34 375.537 1148.61 375.817 1148.84C376.106 1149.05 376.466 1149.16 376.895 1149.16C377.343 1149.16 377.688 1149.08 377.931 1148.91C378.183 1148.73 378.309 1148.51 378.309 1148.24C378.309 1147.95 378.169 1147.73 377.889 1147.59C377.618 1147.45 377.184 1147.3 376.587 1147.13C376.008 1146.97 375.537 1146.82 375.173 1146.67C374.809 1146.52 374.492 1146.29 374.221 1145.98C373.96 1145.67 373.829 1145.27 373.829 1144.76C373.829 1144.35 373.95 1143.98 374.193 1143.64C374.436 1143.3 374.781 1143.03 375.229 1142.83C375.686 1142.64 376.209 1142.54 376.797 1142.54C377.674 1142.54 378.379 1142.76 378.911 1143.21C379.452 1143.65 379.742 1144.25 379.779 1145.02H378.183C378.155 1144.67 378.015 1144.4 377.763 1144.19C377.511 1143.99 377.17 1143.88 376.741 1143.88C376.321 1143.88 375.999 1143.96 375.775 1144.12C375.551 1144.28 375.439 1144.49 375.439 1144.75C375.439 1144.96 375.514 1145.13 375.663 1145.27C375.812 1145.41 375.994 1145.52 376.209 1145.6C376.424 1145.68 376.741 1145.78 377.161 1145.9C377.721 1146.05 378.178 1146.2 378.533 1146.36C378.897 1146.51 379.21 1146.73 379.471 1147.03C379.732 1147.33 379.868 1147.73 379.877 1148.22C379.877 1148.66 379.756 1149.05 379.513 1149.4C379.27 1149.74 378.925 1150.01 378.477 1150.21C378.038 1150.41 377.52 1150.5 376.923 1150.5ZM382.414 1141.64C382.124 1141.64 381.882 1141.54 381.686 1141.35C381.49 1141.15 381.392 1140.91 381.392 1140.62C381.392 1140.33 381.49 1140.09 381.686 1139.89C381.882 1139.7 382.124 1139.6 382.414 1139.6C382.694 1139.6 382.932 1139.7 383.128 1139.89C383.324 1140.09 383.422 1140.33 383.422 1140.62C383.422 1140.91 383.324 1141.15 383.128 1141.35C382.932 1141.54 382.694 1141.64 382.414 1141.64ZM383.198 1142.66V1150.38H381.602V1142.66H383.198ZM387.155 1143.97V1148.24C387.155 1148.53 387.22 1148.74 387.351 1148.87C387.491 1148.99 387.724 1149.05 388.051 1149.05H389.031V1150.38H387.771C387.052 1150.38 386.502 1150.21 386.119 1149.87C385.736 1149.54 385.545 1148.99 385.545 1148.24V1143.97H384.635V1142.66H385.545V1140.75H387.155V1142.66H389.031V1143.97H387.155ZM391.314 1141.64C391.025 1141.64 390.782 1141.54 390.586 1141.35C390.39 1141.15 390.292 1140.91 390.292 1140.62C390.292 1140.33 390.39 1140.09 390.586 1139.89C390.782 1139.7 391.025 1139.6 391.314 1139.6C391.594 1139.6 391.832 1139.7 392.028 1139.89C392.224 1140.09 392.322 1140.33 392.322 1140.62C392.322 1140.91 392.224 1141.15 392.028 1141.35C391.832 1141.54 391.594 1141.64 391.314 1141.64ZM392.098 1142.66V1150.38H390.502V1142.66H392.098ZM397.175 1148.95L399.359 1142.66H401.053L398.113 1150.38H396.209L393.283 1142.66H394.991L397.175 1148.95ZM405.606 1150.5C404.878 1150.5 404.22 1150.34 403.632 1150.01C403.044 1149.68 402.582 1149.21 402.246 1148.61C401.91 1148.01 401.742 1147.31 401.742 1146.51C401.742 1145.73 401.914 1145.04 402.26 1144.43C402.605 1143.82 403.076 1143.36 403.674 1143.03C404.271 1142.7 404.938 1142.54 405.676 1142.54C406.413 1142.54 407.08 1142.7 407.678 1143.03C408.275 1143.36 408.746 1143.82 409.092 1144.43C409.437 1145.04 409.61 1145.73 409.61 1146.51C409.61 1147.3 409.432 1147.99 409.078 1148.6C408.723 1149.21 408.238 1149.68 407.622 1150.01C407.015 1150.34 406.343 1150.5 405.606 1150.5ZM405.606 1149.12C406.016 1149.12 406.399 1149.02 406.754 1148.82C407.118 1148.63 407.412 1148.33 407.636 1147.94C407.86 1147.55 407.972 1147.07 407.972 1146.51C407.972 1145.95 407.864 1145.48 407.65 1145.1C407.435 1144.71 407.15 1144.41 406.796 1144.22C406.441 1144.02 406.058 1143.92 405.648 1143.92C405.237 1143.92 404.854 1144.02 404.5 1144.22C404.154 1144.41 403.879 1144.71 403.674 1145.1C403.468 1145.48 403.366 1145.95 403.366 1146.51C403.366 1147.35 403.576 1147.99 403.996 1148.45C404.425 1148.89 404.962 1149.12 405.606 1149.12Z" fill="white"/>
<path d="M511.439 808.238V811.094H514.799V812.396H511.439V815.378H515.219V816.68H509.843V806.936H515.219V808.238H511.439ZM521.077 808.84C521.684 808.84 522.225 808.966 522.701 809.218C523.187 809.47 523.565 809.843 523.835 810.338C524.106 810.832 524.241 811.43 524.241 812.13V816.68H522.659V812.368C522.659 811.677 522.487 811.15 522.141 810.786C521.796 810.412 521.325 810.226 520.727 810.226C520.13 810.226 519.654 810.412 519.299 810.786C518.954 811.15 518.781 811.677 518.781 812.368V816.68H517.185V808.966H518.781V809.848C519.043 809.53 519.374 809.283 519.775 809.106C520.186 808.928 520.62 808.84 521.077 808.84ZM525.745 812.816C525.745 812.022 525.904 811.327 526.221 810.73C526.548 810.123 526.996 809.656 527.565 809.33C528.134 809.003 528.788 808.84 529.525 808.84C530.458 808.84 531.228 809.064 531.835 809.512C532.451 809.95 532.866 810.58 533.081 811.402H531.359C531.219 811.019 530.995 810.72 530.687 810.506C530.379 810.291 529.992 810.184 529.525 810.184C528.872 810.184 528.349 810.417 527.957 810.884C527.574 811.341 527.383 811.985 527.383 812.816C527.383 813.646 527.574 814.295 527.957 814.762C528.349 815.228 528.872 815.462 529.525 815.462C530.449 815.462 531.06 815.056 531.359 814.244H533.081C532.857 815.028 532.437 815.653 531.821 816.12C531.205 816.577 530.44 816.806 529.525 816.806C528.788 816.806 528.134 816.642 527.565 816.316C526.996 815.98 526.548 815.513 526.221 814.916C525.904 814.309 525.745 813.609 525.745 812.816ZM534.14 812.788C534.14 812.013 534.298 811.327 534.616 810.73C534.942 810.132 535.381 809.67 535.932 809.344C536.492 809.008 537.108 808.84 537.78 808.84C538.386 808.84 538.914 808.961 539.362 809.204C539.819 809.437 540.183 809.731 540.454 810.086V808.966H542.064V816.68H540.454V815.532C540.183 815.896 539.814 816.199 539.348 816.442C538.881 816.684 538.349 816.806 537.752 816.806C537.089 816.806 536.482 816.638 535.932 816.302C535.381 815.956 534.942 815.48 534.616 814.874C534.298 814.258 534.14 813.562 534.14 812.788ZM540.454 812.816C540.454 812.284 540.342 811.822 540.118 811.43C539.903 811.038 539.618 810.739 539.264 810.534C538.909 810.328 538.526 810.226 538.116 810.226C537.705 810.226 537.322 810.328 536.968 810.534C536.613 810.73 536.324 811.024 536.1 811.416C535.885 811.798 535.778 812.256 535.778 812.788C535.778 813.32 535.885 813.786 536.1 814.188C536.324 814.589 536.613 814.897 536.968 815.112C537.332 815.317 537.714 815.42 538.116 815.42C538.526 815.42 538.909 815.317 539.264 815.112C539.618 814.906 539.903 814.608 540.118 814.216C540.342 813.814 540.454 813.348 540.454 812.816ZM548.052 808.84C548.658 808.84 549.2 808.966 549.676 809.218C550.161 809.47 550.539 809.843 550.81 810.338C551.08 810.832 551.216 811.43 551.216 812.13V816.68H549.634V812.368C549.634 811.677 549.461 811.15 549.116 810.786C548.77 810.412 548.299 810.226 547.702 810.226C547.104 810.226 546.628 810.412 546.274 810.786C545.928 811.15 545.756 811.677 545.756 812.368V816.68H544.16V808.966H545.756V809.848C546.017 809.53 546.348 809.283 546.75 809.106C547.16 808.928 547.594 808.84 548.052 808.84ZM555.114 810.268V814.538C555.114 814.827 555.179 815.037 555.31 815.168C555.45 815.289 555.683 815.35 556.01 815.35H556.99V816.68H555.73C555.011 816.68 554.46 816.512 554.078 816.176C553.695 815.84 553.504 815.294 553.504 814.538V810.268H552.594V808.966H553.504V807.048H555.114V808.966H556.99V810.268H555.114ZM565.531 812.634C565.531 812.923 565.512 813.184 565.475 813.418H559.581C559.627 814.034 559.856 814.528 560.267 814.902C560.677 815.275 561.181 815.462 561.779 815.462C562.637 815.462 563.244 815.102 563.599 814.384H565.321C565.087 815.093 564.663 815.676 564.047 816.134C563.44 816.582 562.684 816.806 561.779 816.806C561.041 816.806 560.379 816.642 559.791 816.316C559.212 815.98 558.755 815.513 558.419 814.916C558.092 814.309 557.929 813.609 557.929 812.816C557.929 812.022 558.087 811.327 558.405 810.73C558.731 810.123 559.184 809.656 559.763 809.33C560.351 809.003 561.023 808.84 561.779 808.84C562.507 808.84 563.155 808.998 563.725 809.316C564.294 809.633 564.737 810.081 565.055 810.66C565.372 811.229 565.531 811.887 565.531 812.634ZM563.865 812.13C563.855 811.542 563.645 811.07 563.235 810.716C562.824 810.361 562.315 810.184 561.709 810.184C561.158 810.184 560.687 810.361 560.295 810.716C559.903 811.061 559.669 811.532 559.595 812.13H563.865ZM573.538 816.806C572.931 816.806 572.385 816.698 571.9 816.484C571.424 816.26 571.046 815.961 570.766 815.588C570.486 815.205 570.337 814.78 570.318 814.314H571.97C571.998 814.64 572.152 814.916 572.432 815.14C572.721 815.354 573.081 815.462 573.51 815.462C573.958 815.462 574.303 815.378 574.546 815.21C574.798 815.032 574.924 814.808 574.924 814.538C574.924 814.248 574.784 814.034 574.504 813.894C574.233 813.754 573.799 813.6 573.202 813.432C572.623 813.273 572.152 813.119 571.788 812.97C571.424 812.82 571.107 812.592 570.836 812.284C570.575 811.976 570.444 811.57 570.444 811.066C570.444 810.655 570.565 810.282 570.808 809.946C571.051 809.6 571.396 809.33 571.844 809.134C572.301 808.938 572.824 808.84 573.412 808.84C574.289 808.84 574.994 809.064 575.526 809.512C576.067 809.95 576.357 810.552 576.394 811.318H574.798C574.77 810.972 574.63 810.697 574.378 810.492C574.126 810.286 573.785 810.184 573.356 810.184C572.936 810.184 572.614 810.263 572.39 810.422C572.166 810.58 572.054 810.79 572.054 811.052C572.054 811.257 572.129 811.43 572.278 811.57C572.427 811.71 572.609 811.822 572.824 811.906C573.039 811.98 573.356 812.078 573.776 812.2C574.336 812.349 574.793 812.503 575.148 812.662C575.512 812.811 575.825 813.035 576.086 813.334C576.347 813.632 576.483 814.029 576.492 814.524C576.492 814.962 576.371 815.354 576.128 815.7C575.885 816.045 575.54 816.316 575.092 816.512C574.653 816.708 574.135 816.806 573.538 816.806ZM585.286 812.634C585.286 812.923 585.268 813.184 585.23 813.418H579.336C579.383 814.034 579.612 814.528 580.022 814.902C580.433 815.275 580.937 815.462 581.534 815.462C582.393 815.462 583 815.102 583.354 814.384H585.076C584.843 815.093 584.418 815.676 583.802 816.134C583.196 816.582 582.44 816.806 581.534 816.806C580.797 816.806 580.134 816.642 579.546 816.316C578.968 815.98 578.51 815.513 578.174 814.916C577.848 814.309 577.684 813.609 577.684 812.816C577.684 812.022 577.843 811.327 578.16 810.73C578.487 810.123 578.94 809.656 579.518 809.33C580.106 809.003 580.778 808.84 581.534 808.84C582.262 808.84 582.911 808.998 583.48 809.316C584.05 809.633 584.493 810.081 584.81 810.66C585.128 811.229 585.286 811.887 585.286 812.634ZM583.62 812.13C583.611 811.542 583.401 811.07 582.99 810.716C582.58 810.361 582.071 810.184 581.464 810.184C580.914 810.184 580.442 810.361 580.05 810.716C579.658 811.061 579.425 811.532 579.35 812.13H583.62ZM593.843 808.966V816.68H592.247V815.77C591.995 816.087 591.664 816.339 591.253 816.526C590.852 816.703 590.422 816.792 589.965 816.792C589.358 816.792 588.812 816.666 588.327 816.414C587.851 816.162 587.473 815.788 587.193 815.294C586.922 814.799 586.787 814.202 586.787 813.502V808.966H588.369V813.264C588.369 813.954 588.542 814.486 588.887 814.86C589.232 815.224 589.704 815.406 590.301 815.406C590.898 815.406 591.37 815.224 591.715 814.86C592.07 814.486 592.247 813.954 592.247 813.264V808.966H593.843ZM598.749 816.806C598.142 816.806 597.596 816.698 597.111 816.484C596.635 816.26 596.257 815.961 595.977 815.588C595.697 815.205 595.548 814.78 595.529 814.314H597.181C597.209 814.64 597.363 814.916 597.643 815.14C597.932 815.354 598.292 815.462 598.721 815.462C599.169 815.462 599.514 815.378 599.757 815.21C600.009 815.032 600.135 814.808 600.135 814.538C600.135 814.248 599.995 814.034 599.715 813.894C599.444 813.754 599.01 813.6 598.413 813.432C597.834 813.273 597.363 813.119 596.999 812.97C596.635 812.82 596.318 812.592 596.047 812.284C595.786 811.976 595.655 811.57 595.655 811.066C595.655 810.655 595.776 810.282 596.019 809.946C596.262 809.6 596.607 809.33 597.055 809.134C597.512 808.938 598.035 808.84 598.623 808.84C599.5 808.84 600.205 809.064 600.737 809.512C601.278 809.95 601.568 810.552 601.605 811.318H600.009C599.981 810.972 599.841 810.697 599.589 810.492C599.337 810.286 598.996 810.184 598.567 810.184C598.147 810.184 597.825 810.263 597.601 810.422C597.377 810.58 597.265 810.79 597.265 811.052C597.265 811.257 597.34 811.43 597.489 811.57C597.638 811.71 597.82 811.822 598.035 811.906C598.25 811.98 598.567 812.078 598.987 812.2C599.547 812.349 600.004 812.503 600.359 812.662C600.723 812.811 601.036 813.035 601.297 813.334C601.558 813.632 601.694 814.029 601.703 814.524C601.703 814.962 601.582 815.354 601.339 815.7C601.096 816.045 600.751 816.316 600.303 816.512C599.864 816.708 599.346 816.806 598.749 816.806ZM528.684 829.816C528.684 829.022 528.843 828.327 529.16 827.73C529.487 827.123 529.935 826.656 530.504 826.33C531.074 826.003 531.727 825.84 532.464 825.84C533.398 825.84 534.168 826.064 534.774 826.512C535.39 826.95 535.806 827.58 536.02 828.402H534.298C534.158 828.019 533.934 827.72 533.626 827.506C533.318 827.291 532.931 827.184 532.464 827.184C531.811 827.184 531.288 827.417 530.896 827.884C530.514 828.341 530.322 828.985 530.322 829.816C530.322 830.646 530.514 831.295 530.896 831.762C531.288 832.228 531.811 832.462 532.464 832.462C533.388 832.462 534 832.056 534.298 831.244H536.02C535.796 832.028 535.376 832.653 534.76 833.12C534.144 833.577 533.379 833.806 532.464 833.806C531.727 833.806 531.074 833.642 530.504 833.316C529.935 832.98 529.487 832.513 529.16 831.916C528.843 831.309 528.684 830.609 528.684 829.816ZM539.207 823.32V833.68H537.611V823.32H539.207ZM542.114 824.944C541.825 824.944 541.582 824.846 541.386 824.65C541.19 824.454 541.092 824.211 541.092 823.922C541.092 823.632 541.19 823.39 541.386 823.194C541.582 822.998 541.825 822.9 542.114 822.9C542.394 822.9 542.632 822.998 542.828 823.194C543.024 823.39 543.122 823.632 543.122 823.922C543.122 824.211 543.024 824.454 542.828 824.65C542.632 824.846 542.394 824.944 542.114 824.944ZM542.898 825.966V833.68H541.302V825.966H542.898ZM552.064 829.634C552.064 829.923 552.045 830.184 552.008 830.418H546.114C546.16 831.034 546.389 831.528 546.8 831.902C547.21 832.275 547.714 832.462 548.312 832.462C549.17 832.462 549.777 832.102 550.132 831.384H551.854C551.62 832.093 551.196 832.676 550.58 833.134C549.973 833.582 549.217 833.806 548.312 833.806C547.574 833.806 546.912 833.642 546.324 833.316C545.745 832.98 545.288 832.513 544.952 831.916C544.625 831.309 544.462 830.609 544.462 829.816C544.462 829.022 544.62 828.327 544.938 827.73C545.264 827.123 545.717 826.656 546.296 826.33C546.884 826.003 547.556 825.84 548.312 825.84C549.04 825.84 549.688 825.998 550.258 826.316C550.827 826.633 551.27 827.081 551.588 827.66C551.905 828.229 552.064 828.887 552.064 829.634ZM550.398 829.13C550.388 828.542 550.178 828.07 549.768 827.716C549.357 827.361 548.848 827.184 548.242 827.184C547.691 827.184 547.22 827.361 546.828 827.716C546.436 828.061 546.202 828.532 546.128 829.13H550.398ZM557.526 825.84C558.133 825.84 558.674 825.966 559.15 826.218C559.636 826.47 560.014 826.843 560.284 827.338C560.555 827.832 560.69 828.43 560.69 829.13V833.68H559.108V829.368C559.108 828.677 558.936 828.15 558.59 827.786C558.245 827.412 557.774 827.226 557.176 827.226C556.579 827.226 556.103 827.412 555.748 827.786C555.403 828.15 555.23 828.677 555.23 829.368V833.68H553.634V825.966H555.23V826.848C555.492 826.53 555.823 826.283 556.224 826.106C556.635 825.928 557.069 825.84 557.526 825.84ZM564.588 827.268V831.538C564.588 831.827 564.654 832.037 564.784 832.168C564.924 832.289 565.158 832.35 565.484 832.35H566.464V833.68H565.204C564.486 833.68 563.935 833.512 563.552 833.176C563.17 832.84 562.978 832.294 562.978 831.538V827.268H562.068V825.966H562.978V824.048H564.588V825.966H566.464V827.268H564.588ZM575.005 829.634C575.005 829.923 574.987 830.184 574.949 830.418H569.055C569.102 831.034 569.331 831.528 569.741 831.902C570.152 832.275 570.656 832.462 571.253 832.462C572.112 832.462 572.719 832.102 573.073 831.384H574.795C574.562 832.093 574.137 832.676 573.521 833.134C572.915 833.582 572.159 833.806 571.253 833.806C570.516 833.806 569.853 833.642 569.265 833.316C568.687 832.98 568.229 832.513 567.893 831.916C567.567 831.309 567.403 830.609 567.403 829.816C567.403 829.022 567.562 828.327 567.879 827.73C568.206 827.123 568.659 826.656 569.237 826.33C569.825 826.003 570.497 825.84 571.253 825.84C571.981 825.84 572.63 825.998 573.199 826.316C573.769 826.633 574.212 827.081 574.529 827.66C574.847 828.229 575.005 828.887 575.005 829.634ZM573.339 829.13C573.33 828.542 573.12 828.07 572.709 827.716C572.299 827.361 571.79 827.184 571.183 827.184C570.633 827.184 570.161 827.361 569.769 827.716C569.377 828.061 569.144 828.532 569.069 829.13H573.339ZM579.376 833.806C578.769 833.806 578.223 833.698 577.738 833.484C577.262 833.26 576.884 832.961 576.604 832.588C576.324 832.205 576.174 831.78 576.156 831.314H577.808C577.836 831.64 577.99 831.916 578.27 832.14C578.559 832.354 578.918 832.462 579.348 832.462C579.796 832.462 580.141 832.378 580.384 832.21C580.636 832.032 580.762 831.808 580.762 831.538C580.762 831.248 580.622 831.034 580.342 830.894C580.071 830.754 579.637 830.6 579.04 830.432C578.461 830.273 577.99 830.119 577.626 829.97C577.262 829.82 576.944 829.592 576.674 829.284C576.412 828.976 576.282 828.57 576.282 828.066C576.282 827.655 576.403 827.282 576.646 826.946C576.888 826.6 577.234 826.33 577.682 826.134C578.139 825.938 578.662 825.84 579.25 825.84C580.127 825.84 580.832 826.064 581.364 826.512C581.905 826.95 582.194 827.552 582.232 828.318H580.636C580.608 827.972 580.468 827.697 580.216 827.492C579.964 827.286 579.623 827.184 579.194 827.184C578.774 827.184 578.452 827.263 578.228 827.422C578.004 827.58 577.892 827.79 577.892 828.052C577.892 828.257 577.966 828.43 578.116 828.57C578.265 828.71 578.447 828.822 578.662 828.906C578.876 828.98 579.194 829.078 579.614 829.2C580.174 829.349 580.631 829.503 580.986 829.662C581.35 829.811 581.662 830.035 581.924 830.334C582.185 830.632 582.32 831.029 582.33 831.524C582.33 831.962 582.208 832.354 581.966 832.7C581.723 833.045 581.378 833.316 580.93 833.512C580.491 833.708 579.973 833.806 579.376 833.806Z" fill="white"/>
<path d="M148.081 890.602L131.143 870.276L136.225 860.113H159.938L165.02 870.276L148.081 890.602ZM144.059 868.582H152.104L149.564 863.501H146.599L144.059 868.582ZM146.388 883.277V871.97H136.987L146.388 883.277ZM149.775 883.277L159.176 871.97H149.775V883.277ZM155.873 868.582H160.362L157.821 863.501H153.332L155.873 868.582ZM135.801 868.582H140.29L142.831 863.501H138.342L135.801 868.582Z" fill="#BCBCBC"/>
<path d="M613.76 737.508H604.648L613.76 744.517V737.508Z" fill="#515151"/>
<path d="M428.491 1040.01H419.379L428.491 1047.02V1040.01Z" fill="#515151"/>
<path d="M210.461 836.102H201.349L210.461 843.111V836.102Z" fill="#515151"/>
<path d="M542.735 782.368C541.836 782.368 541.066 782.047 540.425 781.407C539.785 780.766 539.464 779.996 539.464 779.097V756.201C539.464 755.301 539.785 754.531 540.425 753.891C541.066 753.25 541.836 752.93 542.735 752.93H565.631C566.531 752.93 567.301 753.25 567.941 753.891C568.582 754.531 568.902 755.301 568.902 756.201V779.097C568.902 779.996 568.582 780.766 567.941 781.407C567.301 782.047 566.531 782.368 565.631 782.368H542.735ZM544.371 768.589L550.912 762.047L557.454 768.589L563.996 762.047L565.631 763.683V756.201H542.735V766.954L544.371 768.589ZM542.735 779.097H565.631V768.303L563.996 766.667L557.454 773.209L550.912 766.667L544.371 773.209L542.735 771.574V779.097ZM542.735 779.097V768.303V771.574V756.201V779.097Z" fill="#BCBCBC"/>
<path d="M358.868 1088.22C358.016 1088.22 357.287 1087.91 356.681 1087.31C356.075 1086.7 355.772 1085.97 355.772 1085.12V1078.93H358.868V1080.48H374.346V1061.9H358.868V1063.45H355.772V1057.26C355.772 1056.41 356.075 1055.68 356.681 1055.07C357.287 1054.47 358.016 1054.16 358.868 1054.16H374.346C375.197 1054.16 375.926 1054.47 376.532 1055.07C377.138 1055.68 377.441 1056.41 377.441 1057.26V1085.12C377.441 1085.97 377.138 1086.7 376.532 1087.31C375.926 1087.91 375.197 1088.22 374.346 1088.22H358.868ZM358.868 1083.57V1085.12H374.346V1083.57H358.868ZM353.295 1078.93L351.128 1076.76L359.796 1068.09H354.224V1065H365.059V1075.83H361.963V1070.26L353.295 1078.93ZM358.868 1058.81H374.346V1057.26H358.868V1058.81Z" fill="#BCBCBC"/>
</g>
<defs>
<filter id="filter0_d_60_826" x="125" y="649" width="487" height="553" filterUnits="userSpaceOnUse" color-interpolation-filters="sRGB">
<feFlood flood-opacity="0" result="BackgroundImageFix"/>
<feColorMatrix in="SourceAlpha" type="matrix" values="0 0 0 0 0 0 0 0 0 0 0 0 0 0 0 0 0 0 127 0" result="hardAlpha"/>
<feOffset dx="10" dy="4"/>
<feGaussianBlur stdDeviation="2"/>
<feComposite in2="hardAlpha" operator="out"/>
<feColorMatrix type="matrix" values="0 0 0 0 0 0 0 0 0 0 0 0 0 0 0 0 0 0 0.15 0"/>
<feBlend mode="normal" in2="BackgroundImageFix" result="effect1_dropShadow_60_826"/>
<feBlend mode="normal" in="SourceGraphic" in2="effect1_dropShadow_60_826" result="shape"/>
</filter>
<filter id="filter1_i_60_826" x="125" y="638" width="484" height="165" filterUnits="userSpaceOnUse" color-interpolation-filters="sRGB">
<feFlood flood-opacity="0" result="BackgroundImageFix"/>
<feBlend mode="normal" in="SourceGraphic" in2="BackgroundImageFix" result="shape"/>
<feColorMatrix in="SourceAlpha" type="matrix" values="0 0 0 0 0 0 0 0 0 0 0 0 0 0 0 0 0 0 127 0" result="hardAlpha"/>
<feOffset dx="11" dy="-11"/>
<feGaussianBlur stdDeviation="16"/>
<feComposite in2="hardAlpha" operator="arithmetic" k2="-1" k3="1"/>
<feColorMatrix type="matrix" values="0 0 0 0 0 0 0 0 0 0 0 0 0 0 0 0 0 0 0.25 0"/>
<feBlend mode="normal" in2="shape" result="effect1_innerShadow_60_826"/>
</filter>
<linearGradient id="paint0_linear_60_826" x1="-261.5" y1="-22" x2="133" y2="222" gradientUnits="userSpaceOnUse">
<stop stop-color="#D9D9D9" stop-opacity="0"/>
<stop offset="0.229296" stop-color="#5E2898" stop-opacity="0.23"/>
<stop offset="0.614583" stop-color="#5E2898"/>
<stop offset="1" stop-color="#DE32F4"/>
</linearGradient>
<linearGradient id="paint1_linear_60_826" x1="-164.5" y1="-50" x2="230" y2="194" gradientUnits="userSpaceOnUse">
<stop stop-color="#D9D9D9" stop-opacity="0"/>
<stop offset="0.229296" stop-color="#5E2898" stop-opacity="0.23"/>
<stop offset="0.614583" stop-color="#5E2898"/>
<stop offset="1" stop-color="#DE32F4"/>
</linearGradient>
<linearGradient id="paint2_linear_60_826" x1="-57.5" y1="-80" x2="337" y2="164" gradientUnits="userSpaceOnUse">
<stop stop-color="#D9D9D9" stop-opacity="0"/>
<stop offset="0.229296" stop-color="#5E2898" stop-opacity="0.23"/>
<stop offset="0.614583" stop-color="#5E2898"/>
<stop offset="1" stop-color="#DE32F4"/>
</linearGradient>
<linearGradient id="paint3_linear_60_826" x1="694" y1="922" x2="694" y2="1050" gradientUnits="userSpaceOnUse">
<stop stop-color="#5E2898"/>
<stop offset="1" stop-color="#DE32F4"/>
</linearGradient>
<linearGradient id="paint4_linear_60_826" x1="-261.5" y1="-22" x2="133" y2="222" gradientUnits="userSpaceOnUse">
<stop stop-color="#D9D9D9" stop-opacity="0"/>
<stop offset="0.229296" stop-color="#5E2898" stop-opacity="0.23"/>
<stop offset="0.614583" stop-color="#5E2898"/>
<stop offset="1" stop-color="#DE32F4"/>
</linearGradient>
<linearGradient id="paint5_linear_60_826" x1="-164.5" y1="-50" x2="230" y2="194" gradientUnits="userSpaceOnUse">
<stop stop-color="#D9D9D9" stop-opacity="0"/>
<stop offset="0.229296" stop-color="#5E2898" stop-opacity="0.23"/>
<stop offset="0.614583" stop-color="#5E2898"/>
<stop offset="1" stop-color="#DE32F4"/>
</linearGradient>
<linearGradient id="paint6_linear_60_826" x1="-57.5" y1="-80" x2="337" y2="164" gradientUnits="userSpaceOnUse">
<stop stop-color="#D9D9D9" stop-opacity="0"/>
<stop offset="0.229296" stop-color="#5E2898" stop-opacity="0.23"/>
<stop offset="0.614583" stop-color="#5E2898"/>
<stop offset="1" stop-color="#DE32F4"/>
</linearGradient>
<clipPath id="clip0_60_826">
<rect width="834" height="1194" fill="white"/>
</clipPath>
</defs>
</svg>
