<svg width="490" height="446" viewBox="0 0 490 446" fill="none" xmlns="http://www.w3.org/2000/svg">
<path d="M268.299 218.5C293.639 198 535.142 0 535.142 0H477.934C477.934 0 268.299 168 248.334 183.5C228.368 199 242.958 239 268.299 218.5Z" fill="url(#paint0_linear_71_1658)" fill-opacity="0.3"/>
<path d="M308.997 258.5C334.338 238 575.84 40 575.84 40H518.632C518.632 40 308.997 208 289.032 223.5C269.067 239 283.657 279 308.997 258.5Z" fill="url(#paint1_linear_71_1658)" fill-opacity="0.3"/>
<path d="M361.214 294.5C386.554 274 628.057 76 628.057 76H570.849C570.849 76 361.214 244 341.249 259.5C321.283 275 335.873 315 361.214 294.5Z" fill="url(#paint2_linear_71_1658)" fill-opacity="0.3"/>
<path d="M416.502 322.5C441.843 302 683.345 104 683.345 104H626.137C626.137 104 416.502 272 396.537 287.5C376.572 303 391.162 343 416.502 322.5Z" fill="url(#paint3_linear_71_1658)" fill-opacity="0.3"/>
<rect y="51.0615" width="19.4222" height="21.2332" fill="#303030" fill-opacity="0.5"/>
<rect y="97.7744" width="19.4222" height="21.2332" fill="#303030" fill-opacity="0.5"/>
<rect y="144.488" width="19.4222" height="21.2332" fill="#303030" fill-opacity="0.5"/>
<rect y="191.201" width="19.4222" height="21.2332" fill="#303030" fill-opacity="0.5"/>
<rect y="237.914" width="19.4222" height="21.2332" fill="#303030" fill-opacity="0.5"/>
<rect y="284.627" width="19.4222" height="21.2332" fill="#303030" fill-opacity="0.5"/>
<rect y="331.341" width="19.4222" height="21.2332" fill="#303030" fill-opacity="0.5"/>
<rect y="378.054" width="19.4222" height="21.2332" fill="#303030" fill-opacity="0.5"/>
<rect y="424.767" width="19.4222" height="21.2332" fill="#303030" fill-opacity="0.5"/>
<rect x="33.9888" y="50" width="19.4222" height="21.2332" fill="#303030" fill-opacity="0.5"/>
<rect x="33.9888" y="96.7129" width="19.4222" height="21.2332" fill="#303030" fill-opacity="0.5"/>
<rect x="33.9888" y="143.427" width="19.4222" height="21.2332" fill="#303030" fill-opacity="0.5"/>
<rect x="33.9888" y="190.14" width="19.4222" height="21.2332" fill="#303030" fill-opacity="0.5"/>
<rect x="33.9888" y="236.853" width="19.4222" height="21.2332" fill="#303030" fill-opacity="0.5"/>
<rect x="33.9888" y="283.565" width="19.4222" height="21.2332" fill="#303030" fill-opacity="0.5"/>
<rect x="33.9888" y="330.279" width="19.4222" height="21.2332" fill="#303030" fill-opacity="0.5"/>
<rect x="33.9888" y="376.992" width="19.4222" height="21.2332" fill="#303030" fill-opacity="0.5"/>
<rect x="33.9888" y="423.705" width="19.4222" height="21.2332" fill="#303030" fill-opacity="0.5"/>
<rect x="67.9778" y="50" width="19.4222" height="21.2332" fill="#303030" fill-opacity="0.5"/>
<rect x="67.9778" y="96.7129" width="19.4222" height="21.2332" fill="#303030" fill-opacity="0.5"/>
<rect x="67.9778" y="143.427" width="19.4222" height="21.2332" fill="#303030" fill-opacity="0.5"/>
<rect x="67.9778" y="190.14" width="19.4222" height="21.2332" fill="#303030" fill-opacity="0.5"/>
<rect x="67.9778" y="236.853" width="19.4222" height="21.2332" fill="#303030" fill-opacity="0.5"/>
<rect x="67.9778" y="283.565" width="19.4222" height="21.2332" fill="#303030" fill-opacity="0.5"/>
<rect x="67.9778" y="330.279" width="19.4222" height="21.2332" fill="#303030" fill-opacity="0.5"/>
<rect x="67.9778" y="376.992" width="19.4222" height="21.2332" fill="#303030" fill-opacity="0.5"/>
<rect x="67.9778" y="423.705" width="19.4222" height="21.2332" fill="#303030" fill-opacity="0.5"/>
<rect x="101.967" y="50" width="19.4222" height="21.2332" fill="#303030" fill-opacity="0.5"/>
<rect x="101.967" y="96.7129" width="19.4222" height="21.2332" fill="#303030" fill-opacity="0.5"/>
<rect x="101.967" y="143.427" width="19.4222" height="21.2332" fill="#303030" fill-opacity="0.5"/>
<rect x="101.967" y="190.14" width="19.4222" height="21.2332" fill="#303030" fill-opacity="0.5"/>
<rect x="101.967" y="236.853" width="19.4222" height="21.2332" fill="#303030" fill-opacity="0.5"/>
<rect x="101.967" y="283.565" width="19.4222" height="21.2332" fill="#303030" fill-opacity="0.5"/>
<rect x="101.967" y="330.279" width="19.4222" height="21.2332" fill="#303030" fill-opacity="0.5"/>
<rect x="101.967" y="376.992" width="19.4222" height="21.2332" fill="#303030" fill-opacity="0.5"/>
<rect x="101.967" y="423.705" width="19.4222" height="21.2332" fill="#303030" fill-opacity="0.5"/>
<rect x="135.956" y="50" width="19.4222" height="21.2332" fill="#303030" fill-opacity="0.5"/>
<rect x="135.956" y="96.7129" width="19.4222" height="21.2332" fill="#303030" fill-opacity="0.5"/>
<rect x="135.956" y="143.427" width="19.4222" height="21.2332" fill="#303030" fill-opacity="0.5"/>
<rect x="135.956" y="190.14" width="19.4222" height="21.2332" fill="#303030" fill-opacity="0.5"/>
<rect x="135.956" y="236.853" width="19.4222" height="21.2332" fill="#303030" fill-opacity="0.5"/>
<rect x="135.956" y="283.565" width="19.4222" height="21.2332" fill="#303030" fill-opacity="0.5"/>
<rect x="135.956" y="330.279" width="19.4222" height="21.2332" fill="#303030" fill-opacity="0.5"/>
<rect x="135.956" y="376.992" width="19.4222" height="21.2332" fill="#303030" fill-opacity="0.5"/>
<rect x="135.956" y="423.705" width="19.4222" height="21.2332" fill="#303030" fill-opacity="0.5"/>
<rect x="169.944" y="50" width="19.4222" height="21.2332" fill="#303030" fill-opacity="0.5"/>
<rect x="169.944" y="96.7129" width="19.4222" height="21.2332" fill="#303030" fill-opacity="0.5"/>
<rect x="169.944" y="143.427" width="19.4222" height="21.2332" fill="#303030" fill-opacity="0.5"/>
<rect x="169.944" y="190.14" width="19.4222" height="21.2332" fill="#303030" fill-opacity="0.5"/>
<rect x="169.944" y="236.853" width="19.4222" height="21.2332" fill="#303030" fill-opacity="0.5"/>
<rect x="169.944" y="283.565" width="19.4222" height="21.2332" fill="#303030" fill-opacity="0.5"/>
<rect x="169.944" y="330.279" width="19.4222" height="21.2332" fill="#303030" fill-opacity="0.5"/>
<rect x="169.944" y="376.992" width="19.4222" height="21.2332" fill="#303030" fill-opacity="0.5"/>
<rect x="169.944" y="423.705" width="19.4222" height="21.2332" fill="#303030" fill-opacity="0.5"/>
<rect x="203.933" y="50" width="19.4222" height="21.2332" fill="#303030" fill-opacity="0.5"/>
<rect x="203.933" y="96.7129" width="19.4222" height="21.2332" fill="#303030" fill-opacity="0.5"/>
<rect x="203.933" y="143.427" width="19.4222" height="21.2332" fill="#303030" fill-opacity="0.5"/>
<rect x="203.933" y="190.14" width="19.4222" height="21.2332" fill="#303030" fill-opacity="0.5"/>
<rect x="203.933" y="236.853" width="19.4222" height="21.2332" fill="#303030" fill-opacity="0.5"/>
<rect x="203.933" y="283.565" width="19.4222" height="21.2332" fill="#303030" fill-opacity="0.5"/>
<rect x="203.933" y="330.279" width="19.4222" height="21.2332" fill="#303030" fill-opacity="0.5"/>
<rect x="203.933" y="376.992" width="19.4222" height="21.2332" fill="#303030" fill-opacity="0.5"/>
<rect x="203.933" y="423.705" width="19.4222" height="21.2332" fill="#303030" fill-opacity="0.5"/>
<rect x="237.922" y="50" width="19.4222" height="21.2332" fill="#303030" fill-opacity="0.5"/>
<rect x="237.922" y="96.7129" width="19.4222" height="21.2332" fill="#303030" fill-opacity="0.5"/>
<rect x="237.922" y="143.427" width="19.4222" height="21.2332" fill="#303030" fill-opacity="0.5"/>
<rect x="237.922" y="190.14" width="19.4222" height="21.2332" fill="#303030" fill-opacity="0.5"/>
<rect x="237.922" y="236.853" width="19.4222" height="21.2332" fill="#303030" fill-opacity="0.5"/>
<rect x="237.922" y="283.565" width="19.4222" height="21.2332" fill="#303030" fill-opacity="0.5"/>
<rect x="237.922" y="330.279" width="19.4222" height="21.2332" fill="#303030" fill-opacity="0.5"/>
<rect x="237.922" y="376.992" width="19.4222" height="21.2332" fill="#303030" fill-opacity="0.5"/>
<rect x="237.922" y="423.705" width="19.4222" height="21.2332" fill="#303030" fill-opacity="0.5"/>
<rect x="271.911" y="50" width="19.4222" height="21.2332" fill="#303030" fill-opacity="0.5"/>
<rect x="271.911" y="96.7129" width="19.4222" height="21.2332" fill="#303030" fill-opacity="0.5"/>
<rect x="271.911" y="143.427" width="19.4222" height="21.2332" fill="#303030" fill-opacity="0.5"/>
<rect x="271.911" y="190.14" width="19.4222" height="21.2332" fill="#303030" fill-opacity="0.5"/>
<rect x="271.911" y="236.853" width="19.4222" height="21.2332" fill="#303030" fill-opacity="0.5"/>
<rect x="271.911" y="283.565" width="19.4222" height="21.2332" fill="#303030" fill-opacity="0.5"/>
<rect x="271.911" y="330.279" width="19.4222" height="21.2332" fill="#303030" fill-opacity="0.5"/>
<rect x="271.911" y="376.992" width="19.4222" height="21.2332" fill="#303030" fill-opacity="0.5"/>
<rect x="271.911" y="423.705" width="19.4222" height="21.2332" fill="#303030" fill-opacity="0.5"/>
<rect x="305.9" y="50" width="19.4222" height="21.2332" fill="#303030" fill-opacity="0.5"/>
<rect x="305.9" y="96.7129" width="19.4222" height="21.2332" fill="#303030" fill-opacity="0.5"/>
<rect x="305.9" y="143.427" width="19.4222" height="21.2332" fill="#303030" fill-opacity="0.5"/>
<rect x="305.9" y="190.14" width="19.4222" height="21.2332" fill="#303030" fill-opacity="0.5"/>
<rect x="305.9" y="236.853" width="19.4222" height="21.2332" fill="#303030" fill-opacity="0.5"/>
<rect x="305.9" y="283.565" width="19.4222" height="21.2332" fill="#303030" fill-opacity="0.5"/>
<rect x="305.9" y="330.279" width="19.4222" height="21.2332" fill="#303030" fill-opacity="0.5"/>
<rect x="305.9" y="376.992" width="19.4222" height="21.2332" fill="#303030" fill-opacity="0.5"/>
<rect x="305.9" y="423.705" width="19.4222" height="21.2332" fill="#303030" fill-opacity="0.5"/>
<rect x="339.889" y="50" width="19.4222" height="21.2332" fill="#303030" fill-opacity="0.5"/>
<rect x="339.889" y="96.7129" width="19.4222" height="21.2332" fill="#303030" fill-opacity="0.5"/>
<rect x="339.889" y="143.427" width="19.4222" height="21.2332" fill="#303030" fill-opacity="0.5"/>
<rect x="339.889" y="190.14" width="19.4222" height="21.2332" fill="#303030" fill-opacity="0.5"/>
<rect x="339.889" y="236.853" width="19.4222" height="21.2332" fill="#303030" fill-opacity="0.5"/>
<rect x="339.889" y="283.565" width="19.4222" height="21.2332" fill="#303030" fill-opacity="0.5"/>
<rect x="339.889" y="330.279" width="19.4222" height="21.2332" fill="#303030" fill-opacity="0.5"/>
<rect x="339.889" y="376.992" width="19.4222" height="21.2332" fill="#303030" fill-opacity="0.5"/>
<rect x="339.889" y="423.705" width="19.4222" height="21.2332" fill="#303030" fill-opacity="0.5"/>
<rect x="373.878" y="50" width="19.4222" height="21.2332" fill="#303030" fill-opacity="0.5"/>
<rect x="373.878" y="96.7129" width="19.4222" height="21.2332" fill="#303030" fill-opacity="0.5"/>
<rect x="373.878" y="143.427" width="19.4222" height="21.2332" fill="#303030" fill-opacity="0.5"/>
<rect x="373.878" y="190.14" width="19.4222" height="21.2332" fill="#303030" fill-opacity="0.5"/>
<rect x="373.878" y="236.853" width="19.4222" height="21.2332" fill="#303030" fill-opacity="0.5"/>
<rect x="373.878" y="283.565" width="19.4222" height="21.2332" fill="#303030" fill-opacity="0.5"/>
<rect x="373.878" y="330.279" width="19.4222" height="21.2332" fill="#303030" fill-opacity="0.5"/>
<rect x="373.878" y="376.992" width="19.4222" height="21.2332" fill="#303030" fill-opacity="0.5"/>
<rect x="373.878" y="423.705" width="19.4222" height="21.2332" fill="#303030" fill-opacity="0.5"/>
<rect x="407.867" y="50" width="19.4222" height="21.2332" fill="#303030" fill-opacity="0.5"/>
<rect x="407.867" y="96.7129" width="19.4222" height="21.2332" fill="#303030" fill-opacity="0.5"/>
<rect x="407.867" y="143.427" width="19.4222" height="21.2332" fill="#303030" fill-opacity="0.5"/>
<rect x="407.867" y="190.14" width="19.4222" height="21.2332" fill="#303030" fill-opacity="0.5"/>
<rect x="407.867" y="236.853" width="19.4222" height="21.2332" fill="#303030" fill-opacity="0.5"/>
<rect x="407.867" y="283.565" width="19.4222" height="21.2332" fill="#303030" fill-opacity="0.5"/>
<rect x="407.867" y="330.279" width="19.4222" height="21.2332" fill="#303030" fill-opacity="0.5"/>
<rect x="407.867" y="376.992" width="19.4222" height="21.2332" fill="#303030" fill-opacity="0.5"/>
<rect x="407.867" y="423.705" width="19.4222" height="21.2332" fill="#303030" fill-opacity="0.5"/>
<rect x="441.855" y="50" width="19.4222" height="21.2332" fill="#303030" fill-opacity="0.5"/>
<rect x="441.855" y="96.7129" width="19.4222" height="21.2332" fill="#303030" fill-opacity="0.5"/>
<rect x="441.855" y="143.427" width="19.4222" height="21.2332" fill="#303030" fill-opacity="0.5"/>
<rect x="441.855" y="190.14" width="19.4222" height="21.2332" fill="#303030" fill-opacity="0.5"/>
<rect x="441.855" y="236.853" width="19.4222" height="21.2332" fill="#303030" fill-opacity="0.5"/>
<rect x="441.855" y="283.565" width="19.4222" height="21.2332" fill="#303030" fill-opacity="0.5"/>
<rect x="441.855" y="330.279" width="19.4222" height="21.2332" fill="#303030" fill-opacity="0.5"/>
<rect x="441.855" y="376.992" width="19.4222" height="21.2332" fill="#303030" fill-opacity="0.5"/>
<rect x="441.855" y="423.705" width="19.4222" height="21.2332" fill="#303030" fill-opacity="0.5"/>
<rect x="475.844" y="50" width="19.4222" height="21.2332" fill="#303030" fill-opacity="0.5"/>
<rect x="475.844" y="96.7129" width="19.4222" height="21.2332" fill="#303030" fill-opacity="0.5"/>
<rect x="475.844" y="143.427" width="19.4222" height="21.2332" fill="#303030" fill-opacity="0.5"/>
<rect x="475.844" y="190.14" width="19.4222" height="21.2332" fill="#303030" fill-opacity="0.5"/>
<rect x="475.844" y="236.853" width="19.4222" height="21.2332" fill="#303030" fill-opacity="0.5"/>
<rect x="475.844" y="283.565" width="19.4222" height="21.2332" fill="#303030" fill-opacity="0.5"/>
<rect x="475.844" y="330.279" width="19.4222" height="21.2332" fill="#303030" fill-opacity="0.5"/>
<rect x="475.844" y="376.992" width="19.4222" height="21.2332" fill="#303030" fill-opacity="0.5"/>
<rect x="475.844" y="423.705" width="19.4222" height="21.2332" fill="#303030" fill-opacity="0.5"/>
<defs>
<linearGradient id="paint0_linear_71_1658" x1="552.419" y1="-33" x2="210.685" y2="129.305" gradientUnits="userSpaceOnUse">
<stop stop-color="#D9D9D9" stop-opacity="0"/>
<stop offset="0.229296" stop-color="#5E2898" stop-opacity="0.23"/>
<stop offset="0.614583" stop-color="#5E2898"/>
<stop offset="1" stop-color="#DE32F4"/>
</linearGradient>
<linearGradient id="paint1_linear_71_1658" x1="593.118" y1="7.00001" x2="251.383" y2="169.305" gradientUnits="userSpaceOnUse">
<stop stop-color="#D9D9D9" stop-opacity="0"/>
<stop offset="0.229296" stop-color="#5E2898" stop-opacity="0.23"/>
<stop offset="0.614583" stop-color="#5E2898"/>
<stop offset="1" stop-color="#DE32F4"/>
</linearGradient>
<linearGradient id="paint2_linear_71_1658" x1="645.334" y1="43" x2="303.6" y2="205.305" gradientUnits="userSpaceOnUse">
<stop stop-color="#D9D9D9" stop-opacity="0"/>
<stop offset="0.229296" stop-color="#5E2898" stop-opacity="0.23"/>
<stop offset="0.614583" stop-color="#5E2898"/>
<stop offset="1" stop-color="#DE32F4"/>
</linearGradient>
<linearGradient id="paint3_linear_71_1658" x1="700.623" y1="71" x2="358.888" y2="233.305" gradientUnits="userSpaceOnUse">
<stop stop-color="#D9D9D9" stop-opacity="0"/>
<stop offset="0.229296" stop-color="#5E2898" stop-opacity="0.23"/>
<stop offset="0.614583" stop-color="#5E2898"/>
<stop offset="1" stop-color="#DE32F4"/>
</linearGradient>
</defs>
</svg>
